# This file uses centimeters as units for non-parametric coordinates.

mtllib Drill.mtl
g default
v -2.445932 -1.935356 4.443027
v 2.445932 -1.935356 4.443027
v -1.747095 -0.091468 3.744189
v 1.747095 -0.091468 3.744189
v -2.096514 0.435356 -3.943027
v 2.096514 0.435356 -3.943027
v -2.795351 -1.935356 -3.943027
v 2.795351 -1.935356 -3.943027
v -0.937404 1.500000 -0.500000
v 0.937404 1.500000 -0.500000
v 1.062596 1.500000 -2.439322
v -1.062596 1.500000 -2.439322
v -0.937404 6.000000 -0.500000
v 0.937404 6.000000 -0.500000
v 1.062596 6.000000 -2.439322
v -1.062596 6.000000 -2.439322
v -0.937404 6.500000 1.250000
v 0.937404 6.500000 1.250000
v 1.062596 6.500000 -2.430016
v -1.062596 6.500000 -2.430016
v -0.937404 8.787561 1.500000
v 0.937404 8.787561 1.500000
v 1.062596 8.787561 -2.430016
v -1.062596 8.787561 -2.430016
v -1.312366 9.750000 2.500000
v 1.312366 9.750000 2.500000
v 1.487634 9.543787 -2.852022
v -1.487634 9.543787 -2.852022
v -1.915036 10.485809 8.335663
v 1.915036 10.485809 8.335663
v 2.170792 10.485809 -4.835663
v -2.170792 10.485809 -4.835663
v -1.915036 13.485809 8.335663
v 1.915036 13.485809 8.335663
v 2.170792 13.485809 -4.835663
v -2.170792 13.485809 -4.835663
v -1.470685 14.212439 6.057572
v 1.470685 14.212439 6.057572
v 1.667097 14.212439 -4.057572
v -1.667097 14.212439 -4.057572
v -1.250000 10.983341 8.335663
v 1.250000 10.983341 8.335663
v 1.250000 12.988277 8.335663
v -1.250000 12.988277 8.335663
v -1.250000 10.983341 11.000000
v 1.250000 10.983341 11.000000
v 1.250000 12.988277 11.000000
v -1.250000 12.988277 11.000000
v -0.667926 11.462640 11.000000
v 0.667926 11.462640 11.000000
v 0.667926 12.508981 11.000000
v -0.667926 12.508981 11.000000
v -0.155849 11.863737 12.580954
v 0.155849 11.863737 12.580954
v 0.155849 12.107883 12.580954
v -0.155849 12.107883 12.580954
v 0.750000 7.643781 1.000000
v -0.750000 7.643781 1.000000
v -1.062596 7.643781 -2.430016
v 1.062596 7.643781 -2.430016
v 1.500000 11.683011 8.335663
v 1.500000 12.288608 8.335663
v 1.500000 12.288608 11.000000
v 1.500000 11.683011 11.000000
v -1.500000 11.683011 8.335663
v -1.500000 12.288608 8.335663
v -1.500000 11.683011 11.000000
v -1.500000 12.288608 11.000000
v -0.496178 10.712889 8.335663
v 0.496178 10.712889 8.335663
v 0.496178 10.712889 11.000000
v -0.496178 10.712889 11.000000
v -0.496178 13.258730 8.335663
v 0.496178 13.258730 8.335663
v -0.496178 13.258730 11.000000
v 0.496178 13.258730 11.000000
v 2.307792 11.418584 8.343288
v 2.563548 11.418584 -4.828036
v 2.563548 12.553035 -4.828036
v 2.307792 12.553035 8.343288
v -2.307792 11.418584 8.343288
v -2.563548 11.418584 -4.828036
v -2.307792 12.553035 8.343288
v -2.563548 12.553035 -4.828036
v -0.550642 14.761072 5.664622
v 0.550642 14.761072 5.664622
v 0.624181 14.761072 -3.164622
v -0.624181 14.761072 -3.164622
v -1.133671 11.202452 -5.250000
v 1.133671 11.202452 -5.250000
v -1.133671 12.769167 -5.250000
v 1.133671 12.769167 -5.250000
v 1.294230 1.500297 -1.290842
v 1.376781 1.506443 -2.046038
v 1.365261 5.990560 -2.012286
v 1.282709 5.984413 -1.257089
v 1.363431 6.508286 -2.004828
v 1.318973 6.496949 -0.578146
v 1.360252 7.648739 -1.994682
v 1.123219 7.637604 -0.653829
v 1.357429 8.755691 -1.986130
v 1.318441 8.743608 -0.463007
v -1.294230 1.500297 -1.290842
v -1.376781 1.506443 -2.046038
v -1.282709 5.984413 -1.257089
v -1.365261 5.990560 -2.012286
v -1.318973 6.496949 -0.578146
v -1.363431 6.508286 -2.004828
v -1.123219 7.637604 -0.653829
v -1.360252 7.648739 -1.994682
v -1.318441 8.743608 -0.463007
v -1.357429 8.755691 -1.986130
vt 0.375000 0.000000
vt 0.625000 0.000000
vt 0.375000 0.250000
vt 0.625000 0.250000
vt 0.375000 0.500000
vt 0.625000 0.500000
vt 0.375000 0.750000
vt 0.625000 0.750000
vt 0.375000 1.000000
vt 0.625000 1.000000
vt 0.875000 0.000000
vt 0.875000 0.250000
vt 0.125000 0.000000
vt 0.125000 0.250000
vt 0.375000 0.250000
vt 0.625000 0.250000
vt 0.625000 0.500000
vt 0.375000 0.500000
vt 0.375000 0.250000
vt 0.625000 0.250000
vt 0.625000 0.500000
vt 0.375000 0.500000
vt 0.375000 0.250000
vt 0.625000 0.250000
vt 0.625000 0.500000
vt 0.375000 0.500000
vt 0.375000 0.250000
vt 0.625000 0.250000
vt 0.625000 0.500000
vt 0.375000 0.500000
vt 0.375000 0.250000
vt 0.625000 0.250000
vt 0.625000 0.500000
vt 0.375000 0.500000
vt 0.375000 0.250000
vt 0.625000 0.250000
vt 0.625000 0.500000
vt 0.375000 0.500000
vt 0.375000 0.250000
vt 0.625000 0.250000
vt 0.625000 0.500000
vt 0.375000 0.500000
vt 0.375000 0.250000
vt 0.625000 0.250000
vt 0.625000 0.500000
vt 0.375000 0.500000
vt 0.375000 0.250000
vt 0.625000 0.250000
vt 0.625000 0.250000
vt 0.375000 0.250000
vt 0.375000 0.250000
vt 0.625000 0.250000
vt 0.625000 0.250000
vt 0.375000 0.250000
vt 0.375000 0.250000
vt 0.625000 0.250000
vt 0.625000 0.250000
vt 0.375000 0.250000
vt 0.375000 0.250000
vt 0.625000 0.250000
vt 0.625000 0.250000
vt 0.375000 0.250000
vt 0.625000 0.250000
vt 0.375000 0.250000
vt 0.375000 0.500000
vt 0.625000 0.500000
vt 0.625000 0.250000
vt 0.625000 0.250000
vt 0.625000 0.250000
vt 0.625000 0.250000
vt 0.375000 0.250000
vt 0.375000 0.250000
vt 0.375000 0.250000
vt 0.375000 0.250000
vt 0.375000 0.250000
vt 0.625000 0.250000
vt 0.625000 0.250000
vt 0.375000 0.250000
vt 0.625000 0.250000
vt 0.375000 0.250000
vt 0.375000 0.250000
vt 0.625000 0.250000
vt 0.625000 0.250000
vt 0.625000 0.500000
vt 0.625000 0.500000
vt 0.625000 0.250000
vt 0.375000 0.500000
vt 0.375000 0.250000
vt 0.375000 0.250000
vt 0.375000 0.500000
vt 0.375000 0.250000
vt 0.625000 0.250000
vt 0.625000 0.500000
vt 0.375000 0.500000
vt 0.625000 0.500000
vt 0.375000 0.500000
vt 0.375000 0.500000
vt 0.625000 0.500000
vt 0.625000 0.250000
vt 0.625000 0.500000
vt 0.625000 0.500000
vt 0.625000 0.250000
vt 0.375000 0.500000
vt 0.375000 0.250000
vt 0.375000 0.250000
vt 0.375000 0.500000
vt 0.625000 0.500000
vt 0.625000 0.250000
vt 0.375000 0.250000
vt 0.375000 0.500000
vt 0.625000 0.500000
vt 0.625000 0.250000
vt 0.375000 0.250000
vt 0.375000 0.500000
vt 0.375000 0.250000
vt 0.375000 0.500000
vt 0.625000 0.500000
vt 0.625000 0.250000
vt 0.375000 0.500000
vt 0.375000 0.250000
vt 0.375000 0.250000
vt 0.375000 0.500000
vt 0.375000 0.250000
vt 0.375000 0.250000
vt 0.375000 0.250000
vt 0.375000 0.250000
vt 0.375000 0.500000
vt 0.375000 0.500000
vt 0.375000 0.500000
vt 0.375000 0.500000
vt 0.625000 0.500000
vt 0.625000 0.500000
vt 0.625000 0.500000
vt 0.625000 0.500000
vt 0.625000 0.250000
vt 0.625000 0.250000
vt 0.625000 0.250000
vt 0.625000 0.250000
vt 0.375000 0.250000
vt 0.375000 0.250000
vt 0.375000 0.250000
vt 0.375000 0.250000
vt 0.375000 0.500000
vt 0.375000 0.500000
vt 0.375000 0.500000
vt 0.375000 0.500000
vt 0.625000 0.500000
vt 0.625000 0.500000
vt 0.625000 0.500000
vt 0.625000 0.500000
vt 0.625000 0.250000
vt 0.625000 0.250000
vt 0.625000 0.250000
vt 0.625000 0.250000
vt 0.375000 0.250000
vt 0.375000 0.250000
vt 0.375000 0.250000
vt 0.375000 0.250000
vt 0.375000 0.500000
vt 0.375000 0.500000
vt 0.375000 0.500000
vt 0.375000 0.500000
vt 0.375000 0.250000
vt 0.375000 0.250000
vt 0.375000 0.250000
vt 0.375000 0.250000
vt 0.375000 0.250000
vt 0.375000 0.500000
vt 0.375000 0.500000
vt 0.375000 0.250000
vt 0.375000 0.500000
vt 0.375000 0.500000
vt 0.375000 0.500000
vt 0.375000 0.500000
vt 0.625000 0.500000
vt 0.625000 0.500000
vt 0.625000 0.500000
vt 0.625000 0.500000
vt 0.625000 0.500000
vt 0.625000 0.250000
vt 0.625000 0.250000
vt 0.625000 0.500000
vt 0.625000 0.250000
vt 0.625000 0.250000
vt 0.625000 0.250000
vt 0.625000 0.250000
vn 0.000000 0.354402 0.935093
vn 0.000000 0.354402 0.935093
vn 0.000000 0.719558 0.694432
vn 0.000000 0.719558 0.694432
vn 0.000000 1.000000 0.000000
vn 0.000000 1.000000 0.000000
vn 0.000000 1.000000 0.000000
vn 0.000000 1.000000 0.000000
vn 0.000000 0.196557 -0.980492
vn 0.000000 0.196557 -0.980492
vn 0.000000 0.000000 -1.000000
vn 0.000000 0.000000 -1.000000
vn 0.000000 -1.000000 -0.000000
vn 0.000000 -1.000000 -0.000000
vn 0.000000 -1.000000 -0.000000
vn 0.000000 -1.000000 -0.000000
vn 0.945310 0.322056 0.051656
vn 0.945310 0.322056 0.051656
vn 0.923182 0.380262 0.055993
vn 0.936908 0.345472 0.053414
vn -0.945310 0.322056 0.051656
vn -0.945310 0.322056 0.051656
vn -0.936908 0.345472 0.053414
vn -0.923182 0.380262 0.055993
vn 0.000000 0.936337 0.351104
vn 0.000000 0.936337 0.351104
vn 0.782793 0.618054 0.072417
vn 0.782793 0.618054 0.072417
vn 0.000000 0.816148 -0.577844
vn 0.000000 0.816148 -0.577844
vn -0.782793 0.618054 0.072417
vn -0.782793 0.618054 0.072417
vn -0.327926 -0.000138 0.944703
vn 0.327926 -0.000138 0.944703
vn 0.353552 -0.318100 0.879667
vn -0.353552 -0.318100 0.879667
vn 0.994076 0.001736 0.108678
vn 0.994076 0.001736 0.108678
vn 0.994805 -0.008691 0.101431
vn 0.995085 -0.013476 0.098099
vn 0.164798 0.000677 -0.986327
vn -0.164798 0.000677 -0.986327
vn -0.165479 0.002450 -0.986210
vn 0.165479 0.002450 -0.986210
vn -0.994076 0.001736 0.108678
vn -0.994076 0.001736 0.108678
vn -0.995085 -0.013476 0.098099
vn -0.994805 -0.008691 0.101431
vn 0.039873 -0.959914 0.277446
vn -0.039873 -0.959914 0.277446
vn 0.994819 0.047050 0.090119
vn 0.993104 0.067716 0.095703
vn -0.174672 0.006156 -0.984608
vn 0.174672 0.006156 -0.984608
vn -0.993104 0.067716 0.095703
vn -0.994819 0.047050 0.090119
vn -0.619896 0.255917 0.741778
vn 0.619896 0.255917 0.741778
vn 0.664902 -0.086165 0.741944
vn -0.664902 -0.086165 0.741944
vn 0.995130 -0.002886 0.098533
vn 0.995129 -0.005274 0.098445
vn -0.175349 0.000727 -0.984506
vn 0.175349 0.000727 -0.984506
vn -0.995129 -0.005274 0.098445
vn -0.995130 -0.002886 0.098533
vn 0.000000 -0.720509 0.693445
vn 0.000000 -0.720509 0.693445
vn 0.000000 -0.981054 0.193734
vn 0.000000 -0.981054 0.193734
vn 0.900863 -0.432369 0.038767
vn 0.900863 -0.432369 0.038767
vn 0.790491 -0.611864 0.027328
vn 0.781403 -0.623465 0.026477
vn 0.000000 -0.487302 -0.873233
vn 0.000000 -0.487302 -0.873233
vn 0.000000 -0.487302 -0.873233
vn 0.000000 -0.487302 -0.873233
vn -0.900863 -0.432369 0.038767
vn -0.900863 -0.432369 0.038767
vn -0.781403 -0.623465 0.026477
vn -0.790491 -0.611864 0.027328
vn 0.000000 -0.992144 0.125098
vn 0.000000 -0.992144 0.125098
vn 0.764981 -0.643569 0.024965
vn 0.764981 -0.643569 0.024965
vn 0.000000 -0.903314 -0.428980
vn 0.000000 -0.903314 -0.428980
vn 0.000000 -0.861608 -0.507575
vn 0.000000 -0.861608 -0.507575
vn -0.764981 -0.643569 0.024965
vn -0.764981 -0.643569 0.024965
vn 0.000000 0.000000 1.000000
vn 0.000000 0.000000 1.000000
vn 0.000000 0.000000 1.000000
vn 0.000000 0.000000 1.000000
vn 0.999812 0.000000 0.019414
vn 0.999812 0.000000 0.019414
vn 0.999812 0.000000 0.019414
vn 0.999812 0.000000 0.019414
vn 0.000000 0.000000 -1.000000
vn 0.000000 0.000000 -1.000000
vn 0.000000 0.000000 -1.000000
vn 0.000000 0.000000 -1.000000
vn -0.999812 0.000000 0.019414
vn -0.999812 0.000000 0.019414
vn -0.999812 0.000000 0.019414
vn -0.999812 0.000000 0.019414
vn 0.000000 0.952710 0.303881
vn 0.000000 0.952710 0.303881
vn 0.000000 0.952710 0.303881
vn 0.000000 0.952710 0.303881
vn 0.829740 0.557918 0.016112
vn 0.829740 0.557918 0.016112
vn 0.829740 0.557918 0.016112
vn 0.829740 0.557918 0.016112
vn 0.000000 0.730862 -0.682525
vn 0.000000 0.730862 -0.682525
vn 0.000000 0.730862 -0.682525
vn 0.000000 0.730862 -0.682525
vn -0.829740 0.557918 0.016112
vn -0.829740 0.557918 0.016112
vn -0.829740 0.557918 0.016112
vn -0.829740 0.557918 0.016112
vn 0.000000 0.000000 1.000000
vn 0.000000 0.000000 1.000000
vn 0.000000 0.000000 1.000000
vn 0.000000 0.000000 1.000000
vn -0.003361 0.000000 0.999994
vn -0.003361 0.000000 0.999994
vn 0.000001 0.000000 1.000000
vn 0.000001 0.000000 1.000000
vn 0.000000 0.000000 1.000000
vn 0.000000 0.000000 1.000000
vn 0.000000 0.000000 1.000000
vn 0.000000 0.000000 1.000000
vn 0.003361 0.000000 0.999994
vn 0.003361 0.000000 0.999994
vn -0.000001 0.000000 1.000000
vn -0.000001 0.000000 1.000000
vn 0.000000 -1.000000 0.000000
vn 0.000000 -1.000000 0.000000
vn 0.000000 -1.000000 0.000000
vn 0.000000 -1.000000 0.000000
vn 1.000000 0.000000 0.000000
vn 1.000000 0.000000 0.000000
vn 1.000000 0.000000 0.000000
vn 1.000000 0.000000 0.000000
vn 0.000000 1.000000 0.000000
vn 0.000000 1.000000 0.000000
vn 0.000000 1.000000 0.000000
vn 0.000000 1.000000 0.000000
vn -1.000000 0.000000 0.000000
vn -1.000000 0.000000 0.000000
vn -1.000000 0.000000 0.000000
vn -1.000000 0.000000 0.000000
vn -0.000000 0.000000 1.000000
vn -0.000000 0.000000 1.000000
vn -0.000001 0.000000 1.000000
vn -0.000001 0.000000 1.000000
vn -0.000000 0.000000 1.000000
vn -0.000001 0.000000 1.000000
vn -0.000000 0.000000 1.000000
vn -0.000001 0.000000 1.000000
vn 0.000000 -0.969291 0.245916
vn 0.000000 -0.969291 0.245916
vn 0.000000 -0.969291 0.245916
vn 0.000000 -0.969291 0.245916
vn 0.951340 0.000000 0.308142
vn 0.951340 0.000000 0.308142
vn 0.951340 0.000000 0.308142
vn 0.951340 0.000000 0.308142
vn 0.000000 0.969291 0.245915
vn 0.000000 0.969291 0.245915
vn 0.000000 0.969291 0.245915
vn 0.000000 0.969291 0.245915
vn -0.951340 0.000000 0.308142
vn -0.951340 0.000000 0.308142
vn -0.951340 0.000000 0.308142
vn -0.951340 0.000000 0.308142
vn 0.543096 -0.400110 0.738213
vn -0.543096 -0.400110 0.738213
vn -0.990988 -0.094694 0.094740
vn -0.990988 -0.094694 0.094740
vn -0.170455 0.000650 -0.985365
vn 0.170455 0.000650 -0.985365
vn 0.990988 -0.094694 0.094740
vn 0.990988 -0.094694 0.094740
vn 0.000000 0.000000 -1.000000
vn 0.000000 0.000000 -1.000000
vn 0.000000 0.000000 -1.000000
vn 0.000000 0.000000 -1.000000
vn 0.694934 0.719074 0.000000
vn 0.694934 0.719074 0.000000
vn 0.941692 0.336477 0.000000
vn 0.941692 0.336477 0.000000
vn 0.000000 0.000000 1.000000
vn 0.000000 0.000000 1.000000
vn 0.694934 -0.719074 0.000000
vn 0.694934 -0.719074 0.000000
vn 0.941692 -0.336477 0.000000
vn 0.941692 -0.336477 0.000000
vn 0.000000 0.000000 -1.000000
vn 0.000000 0.000000 -1.000000
vn 0.000000 0.000000 -1.000000
vn 0.000000 0.000000 -1.000000
vn -0.694934 -0.719074 0.000000
vn -0.694934 -0.719074 0.000000
vn -0.941692 -0.336477 0.000000
vn -0.941692 -0.336477 0.000000
vn 0.000000 0.000000 1.000000
vn 0.000000 0.000000 1.000000
vn -0.694934 0.719074 0.000000
vn -0.694934 0.719074 0.000000
vn -0.941692 0.336477 0.000000
vn -0.941692 0.336477 0.000000
vn 0.000000 0.000000 -1.000000
vn 0.000000 0.000000 -1.000000
vn 0.000000 0.000000 -1.000000
vn 0.000000 0.000000 -1.000000
vn 0.337698 -0.941254 0.000000
vn 0.337698 -0.941254 0.000000
vn 0.000000 0.000000 1.000000
vn 0.000000 0.000000 1.000000
vn -0.337698 -0.941254 0.000000
vn -0.337698 -0.941254 0.000000
vn 0.000000 0.000000 -1.000000
vn 0.000000 0.000000 -1.000000
vn 0.000000 0.000000 -1.000000
vn 0.000000 0.000000 -1.000000
vn -0.337698 0.941254 0.000000
vn -0.337698 0.941254 0.000000
vn 0.000000 0.000000 1.000000
vn 0.000000 0.000000 1.000000
vn 0.337698 0.941254 0.000000
vn 0.337698 0.941254 0.000000
vn 0.921432 -0.388126 0.017892
vn 0.921432 -0.388127 0.017892
vn 0.921432 -0.388126 0.017892
vn 0.921432 -0.388126 0.017892
vn 0.019414 0.000000 -0.999812
vn 0.019414 0.000000 -0.999812
vn 0.019414 0.000000 -0.999812
vn 0.019414 0.000000 -0.999812
vn 0.921432 0.388127 0.017892
vn 0.921432 0.388127 0.017892
vn 0.921432 0.388127 0.017892
vn 0.921432 0.388127 0.017892
vn -0.019411 0.000000 0.999812
vn -0.019411 0.000000 0.999812
vn -0.921432 -0.388127 0.017892
vn -0.921432 -0.388127 0.017892
vn -0.921432 -0.388127 0.017892
vn -0.921432 -0.388127 0.017892
vn 0.019411 0.000000 0.999812
vn 0.019411 0.000000 0.999812
vn -0.921432 0.388126 0.017892
vn -0.921432 0.388127 0.017892
vn -0.921432 0.388126 0.017892
vn -0.921432 0.388126 0.017892
vn -0.019414 0.000000 -0.999812
vn -0.019414 0.000000 -0.999812
vn -0.019414 0.000000 -0.999812
vn -0.019414 0.000000 -0.999812
vn 0.000000 0.582287 0.812983
vn 0.000000 0.582287 0.812983
vn 0.000000 0.582287 0.812983
vn 0.000000 0.582287 0.812983
vn 0.489270 0.872104 0.006972
vn 0.489270 0.872104 0.006972
vn 0.489270 0.872104 0.006972
vn 0.489270 0.872104 0.006972
vn 0.000000 0.852031 -0.523491
vn 0.000000 0.852031 -0.523491
vn 0.000000 0.852031 -0.523491
vn 0.000000 0.852031 -0.523491
vn -0.489270 0.872104 0.006972
vn -0.489270 0.872104 0.006972
vn -0.489270 0.872104 0.006972
vn -0.489270 0.872104 0.006972
vn 0.000000 -0.500528 -0.865720
vn 0.000000 -0.500528 -0.865720
vn -0.370996 0.000000 -0.928634
vn -0.370996 0.000000 -0.928634
vn -0.370996 0.000000 -0.928634
vn -0.370996 0.000000 -0.928634
vn 0.000000 0.500529 -0.865720
vn 0.000000 0.500529 -0.865720
vn 0.000000 0.500529 -0.865720
vn 0.000000 0.500529 -0.865720
vn 0.370996 0.000000 -0.928634
vn 0.370996 0.000000 -0.928634
vn 0.370996 0.000000 -0.928634
vn 0.370996 0.000000 -0.928634
vn 0.009110 -0.999957 -0.001579
vn 0.009110 -0.999957 -0.001579
vn 0.009110 -0.999957 -0.001579
vn 0.009110 -0.999957 -0.001579
vn 0.800996 0.004069 -0.598657
vn 0.799248 0.003283 -0.600993
vn 0.910692 -0.000384 0.413087
vn 0.910692 -0.000384 0.413087
vn 0.819474 0.005879 -0.573086
vn 0.789476 -0.570625 0.226086
vn 0.789476 -0.570625 0.226086
vn 0.825181 0.003419 -0.564858
vn 0.959507 0.190514 0.207488
vn 0.959507 0.190514 0.207488
vn 0.829320 0.003163 -0.558765
vn 0.124690 0.992178 0.005952
vn 0.124690 0.992178 0.005952
vn 0.124690 0.992178 0.005952
vn 0.124690 0.992178 0.005952
vn 0.953404 -0.224153 0.201930
vn 0.953404 -0.224153 0.201930
vn -0.009110 -0.999957 -0.001579
vn -0.009110 -0.999957 -0.001579
vn -0.009110 -0.999957 -0.001579
vn -0.009110 -0.999957 -0.001579
vn -0.910692 -0.000384 0.413087
vn -0.910692 -0.000384 0.413087
vn -0.799248 0.003283 -0.600993
vn -0.800995 0.004069 -0.598657
vn -0.789476 -0.570625 0.226086
vn -0.789476 -0.570625 0.226086
vn -0.819474 0.005879 -0.573086
vn -0.959507 0.190514 0.207488
vn -0.959507 0.190514 0.207488
vn -0.825181 0.003419 -0.564858
vn -0.953404 -0.224153 0.201930
vn -0.953404 -0.224153 0.201930
vn -0.124690 0.992178 0.005952
vn -0.124690 0.992178 0.005952
vn -0.124690 0.992178 0.005952
vn -0.124690 0.992178 0.005952
vn -0.829320 0.003163 -0.558765
s 1
g DrillMesh
usemtl initialShadingGroup
f 1/1/1 2/2/2 4/4/3 3/3/4
s off
f 85/91/5 86/92/6 87/93/7 88/94/8
s 2
f 5/5/9 6/6/10 8/8/11 7/7/12
s off
f 7/7/13 8/8/14 2/10/15 1/9/16
s 3
f 2/2/17 8/11/18 6/12/19 4/4/20
s 4
f 7/13/21 1/1/22 3/3/23 5/14/24
s 1
f 3/3/4 4/4/3 10/16/25 9/15/26
s 3
f 4/4/20 6/6/19 11/17/27 10/16/28
s 2
f 6/6/10 5/5/9 12/18/29 11/17/30
s 4
f 5/5/24 3/3/23 9/15/31 12/18/32
s 5
f 9/15/33 10/16/34 14/20/35 13/19/36
s 6
f 93/99/37 94/100/38 95/101/39 96/102/40
s 7
f 11/17/41 12/18/42 16/22/43 15/21/44
s 8
f 104/103/45 103/104/46 105/105/47 106/106/48
s 5
f 13/19/36 14/20/35 18/24/49 17/23/50
s 6
f 96/102/40 95/101/39 97/107/51 98/108/52
s 7
f 15/21/44 16/22/43 20/26/53 19/25/54
s 8
f 106/106/48 105/105/47 107/109/55 108/110/56
s 9
f 17/23/57 18/24/58 57/63/59 58/64/60
s 6
f 98/108/52 97/107/51 99/111/61 100/112/62
s 7
f 19/25/54 20/26/53 59/65/63 60/66/64
s 8
f 108/110/56 107/109/55 109/113/65 110/114/66
s 10
f 21/27/67 22/28/68 26/32/69 25/31/70
s 11
f 22/28/71 23/29/72 27/33/73 26/32/74
s off
f 23/29/75 24/30/76 28/34/77 27/33/78
s 12
f 24/30/79 21/27/80 25/31/81 28/34/82
s 10
f 25/31/70 26/32/69 30/36/83 29/35/84
s 11
f 26/32/74 27/33/73 31/37/85 30/36/86
s 13
f 27/33/87 28/34/88 32/38/89 31/37/90
s 12
f 28/34/82 25/31/81 29/35/91 32/38/92
s off
f 53/59/93 54/60/94 55/61/95 56/62/96
f 77/83/97 78/84/98 79/85/99 80/86/100
f 90/95/101 89/96/102 91/97/103 92/98/104
f 82/87/105 81/88/106 83/89/107 84/90/108
f 33/39/109 34/40/110 38/44/111 37/43/112
f 34/40/113 35/41/114 39/45/115 38/44/116
f 35/41/117 36/42/118 40/46/119 39/45/120
f 36/42/121 33/39/122 37/43/123 40/46/124
f 29/35/125 30/36/126 42/48/127 41/47/128
s 14
f 30/36/129 34/40/130 43/49/131 42/48/132
s off
f 34/40/133 33/39/134 44/50/135 43/49/136
s 15
f 33/39/137 29/35/138 41/47/139 44/50/140
s off
f 69/75/141 70/76/142 71/77/143 72/78/144
f 61/67/145 62/68/146 63/69/147 64/70/148
f 74/79/149 73/80/150 75/81/151 76/82/152
f 66/71/153 65/72/154 67/73/155 68/74/156
s 16
f 45/51/157 46/52/158 50/56/159 49/55/160
f 46/52/158 47/53/161 51/57/162 50/56/159
f 47/53/161 48/54/163 52/58/164 51/57/162
f 48/54/163 45/51/157 49/55/160 52/58/164
s off
f 49/55/165 50/56/166 54/60/167 53/59/168
f 50/56/169 51/57/170 55/61/171 54/60/172
f 51/57/173 52/58/174 56/62/175 55/61/176
f 52/58/177 49/55/178 53/59/179 56/62/180
s 9
f 58/64/60 57/63/59 22/28/181 21/27/182
s 8
f 110/114/66 109/113/65 111/115/183 112/116/184
s 7
f 60/66/64 59/65/63 24/30/185 23/29/186
s 6
f 100/112/62 99/111/61 101/117/187 102/118/188
s off
f 42/48/189 43/49/190 62/68/191 61/67/192
s 17
f 43/49/193 47/53/194 63/69/195 62/68/196
s 16
f 47/53/161 46/52/158 64/70/197 63/69/198
s 18
f 46/52/199 42/48/200 61/67/201 64/70/202
s off
f 44/50/203 41/47/204 65/72/205 66/71/206
s 19
f 41/47/207 45/51/208 67/73/209 65/72/210
s 16
f 45/51/157 48/54/163 68/74/211 67/73/212
s 20
f 48/54/213 44/50/214 66/71/215 68/74/216
s off
f 41/47/217 42/48/218 70/76/219 69/75/220
s 18
f 42/48/200 46/52/199 71/77/221 70/76/222
s 16
f 46/52/158 45/51/157 72/78/223 71/77/224
s 19
f 45/51/208 41/47/207 69/75/225 72/78/226
s off
f 43/49/227 44/50/228 73/80/229 74/79/230
s 20
f 44/50/214 48/54/213 75/81/231 73/80/232
s 16
f 48/54/163 47/53/161 76/82/233 75/81/234
s 17
f 47/53/194 43/49/193 74/79/235 76/82/236
s off
f 30/36/237 31/37/238 78/84/239 77/83/240
f 31/37/241 35/41/242 79/85/243 78/84/244
f 35/41/245 34/40/246 80/86/247 79/85/248
s 14
f 34/40/130 30/36/129 77/83/249 80/86/250
s off
f 32/38/251 29/35/252 81/88/253 82/87/254
s 15
f 29/35/138 33/39/137 83/89/255 81/88/256
s off
f 33/39/257 36/42/258 84/90/259 83/89/260
f 36/42/261 32/38/262 82/87/263 84/90/264
f 37/43/265 38/44/266 86/92/267 85/91/268
f 38/44/269 39/45/270 87/93/271 86/92/272
f 39/45/273 40/46/274 88/94/275 87/93/276
f 40/46/277 37/43/278 85/91/279 88/94/280
s 13
f 31/37/90 32/38/89 89/96/281 90/95/282
s off
f 32/38/283 36/42/284 91/97/285 89/96/286
f 36/42/287 35/41/288 92/98/289 91/97/290
f 35/41/291 31/37/292 90/95/293 92/98/294
f 10/16/295 11/17/296 94/100/297 93/99/298
s 7
f 11/17/41 15/21/44 95/101/299 94/100/300
s 5
f 14/20/35 10/16/34 93/99/301 96/102/302
s 7
f 15/119/44 19/120/54 97/121/303 95/122/299
s 5
f 18/123/49 14/124/35 96/125/304 98/126/305
s 7
f 19/127/54 60/128/64 99/129/306 97/130/303
s 9
f 57/131/59 18/132/58 98/133/307 100/134/308
s 7
f 60/135/64 23/136/186 101/137/309 99/138/306
s off
f 23/139/310 22/140/311 102/141/312 101/142/313
s 9
f 22/143/181 57/144/59 100/145/314 102/146/315
s off
f 12/147/316 9/148/317 103/149/318 104/150/319
s 5
f 9/151/33 13/152/36 105/153/320 103/154/321
s 7
f 16/155/43 12/156/42 104/157/322 106/158/323
s 5
f 13/159/36 17/160/50 107/161/324 105/162/325
s 7
f 20/163/53 16/164/43 106/165/323 108/166/326
s 9
f 17/167/57 58/168/60 109/169/327 107/170/328
s 7
f 59/171/63 20/172/53 108/173/326 110/174/329
s 9
f 58/175/60 21/176/182 111/177/330 109/178/331
s off
f 21/179/332 24/180/333 112/181/334 111/182/335
s 7
f 24/183/185 59/184/63 110/185/329 112/186/336
