# This file uses centimeters as units for non-parametric coordinates.

mtllib Ear.mtl
g default
v 0.326605 -0.444792 0.232901
v 0.554307 -0.159688 0.232901
v -0.430259 0.159688 0.232901
v -0.430259 0.748148 0.232901
v -0.430259 0.159688 -0.232901
v -0.430259 0.748148 -0.232901
v 0.326605 -0.444792 -0.232901
v 0.554307 -0.159688 -0.232901
v 0.392201 -0.943543 -0.232901
v 0.708031 -1.126257 -0.232901
v 0.708031 -1.126257 0.232901
v 0.392201 -0.943543 0.232901
v 0.090609 -1.328112 -0.295321
v 0.217798 -1.452401 -0.295321
v 0.217798 -1.452401 0.021536
v 0.090609 -1.328112 0.021536
v 0.865671 -1.243533 -0.185021
v 0.865671 -1.243533 0.170203
v 0.688708 -1.656224 0.009014
v 0.688708 -1.656224 -0.232624
v 0.942528 -2.274893 -0.185021
v 0.846172 -2.438395 0.170203
v 0.616000 -2.225868 0.009014
v 0.712356 -2.062366 -0.232624
v 0.805809 -2.696323 -0.185021
v 0.805809 -2.696323 0.170203
v 0.481579 -2.247783 0.099057
v 0.481579 -2.247783 -0.142580
v 0.429444 -2.994451 -0.124446
v 0.429444 -2.994451 0.230778
v 0.038926 -1.980759 0.197908
v 0.038926 -1.980759 -0.043729
v -0.139982 -3.103899 -0.124446
v -0.139982 -3.103899 0.230778
v -0.218897 -1.995259 0.197908
v -0.218897 -1.995259 -0.043729
v -0.466857 -2.571524 -0.124446
v -0.466857 -2.571524 0.230778
v -0.367428 -1.935833 0.197908
v -0.367428 -1.935833 -0.043729
v -1.334245 -0.474526 -0.124446
v -1.334245 -0.474526 0.230778
v -0.914596 -0.531610 0.197908
v -0.914596 -0.531610 -0.043729
v -1.233287 0.142523 -0.124446
v -1.233287 0.142523 0.230778
v -0.843291 -0.075709 0.197908
v -0.843291 -0.075709 -0.043729
v -0.430259 0.748148 -0.232901
v -0.430259 0.748148 0.232901
v -0.430259 0.159688 0.232901
v -0.430259 0.159688 -0.232901
v 0.563632 -1.513146 0.271503
v 0.515097 -1.757270 0.135757
v 0.498854 -1.998092 0.149506
v 0.530083 -2.125434 0.312734
v -0.283358 -1.038733 -0.165798
v -0.283358 -1.038733 0.075801
v -0.541180 -1.053232 -0.165798
v -0.541180 -1.053232 0.075801
v -0.354000 -0.761746 -0.165798
v -0.354000 -0.761746 0.075801
v -0.611822 -0.776245 -0.165798
v -0.611822 -0.776245 0.075801
v -0.135917 0.009361 -0.043729
v -0.135917 0.009361 0.197908
v -0.376026 0.104390 -0.043729
v -0.376026 0.104390 0.197908
v 0.410852 -0.703987 -0.043729
v 0.410852 -0.703987 0.197908
v 0.340210 -0.427000 -0.043729
v 0.340210 -0.427000 0.197908
v -0.340131 -0.354611 -0.528087
v -0.340131 0.007583 -0.528087
v 0.265866 -0.551186 -0.528087
v 0.125715 -0.726666 -0.528087
v 0.360482 -1.146105 -0.528087
v 0.166090 -1.033645 -0.528087
v -0.051350 -1.672047 -0.411653
v -0.249714 -1.092234 -0.486786
v 0.457509 -1.218288 -0.498618
v 0.363144 -1.722275 -0.527917
v 0.504814 -1.853085 -0.498618
v 0.363144 -1.722275 -0.527917
v 0.420664 -2.112473 -0.498618
v 0.363144 -1.722275 -0.527917
v 0.189012 -2.295969 -0.461334
v -0.051350 -1.672047 -0.411653
v -0.161467 -2.363334 -0.461334
v -0.210038 -1.680971 -0.411653
v -0.362657 -2.035660 -0.461334
v -0.210038 -1.680971 -0.411653
v -0.896530 -0.744967 -0.461334
v -0.408402 -1.101158 -0.486786
v -0.834391 -0.365176 -0.461334
v -0.451882 -0.930674 -0.486786
v -0.340131 0.007583 -0.528087
v -0.340131 -0.354611 -0.528087
v -0.408402 -1.101158 -0.486786
v -0.249714 -1.092234 -0.486786
v -0.451882 -0.930674 -0.486786
v 0.125715 -0.726666 -0.528087
v -0.340131 -0.354611 -0.528087
v 0.340210 -0.427000 -0.043729
v 0.125715 -0.726666 -0.528087
v 0.166090 -1.033645 -0.528087
vt 0.375000 0.000000
vt 0.625000 0.000000
vt 0.375000 0.250000
vt 0.625000 0.250000
vt 0.375000 0.500000
vt 0.625000 0.500000
vt 0.375000 0.750000
vt 0.625000 0.750000
vt 0.375000 1.000000
vt 0.625000 1.000000
vt 0.875000 0.000000
vt 0.875000 0.250000
vt 0.125000 0.000000
vt 0.125000 0.250000
vt 0.375000 0.750000
vt 0.625000 0.750000
vt 0.625000 1.000000
vt 0.375000 1.000000
vt 0.375000 0.750000
vt 0.625000 0.750000
vt 0.625000 1.000000
vt 0.375000 1.000000
vt 0.625000 0.750000
vt 0.625000 1.000000
vt 0.625000 1.000000
vt 0.625000 0.750000
vt 0.625000 0.750000
vt 0.625000 1.000000
vt 0.625000 1.000000
vt 0.625000 0.750000
vt 0.625000 0.750000
vt 0.625000 1.000000
vt 0.625000 1.000000
vt 0.625000 0.750000
vt 0.625000 0.750000
vt 0.625000 1.000000
vt 0.625000 1.000000
vt 0.625000 0.750000
vt 0.625000 0.750000
vt 0.625000 1.000000
vt 0.625000 1.000000
vt 0.625000 0.750000
vt 0.625000 0.750000
vt 0.625000 1.000000
vt 0.625000 1.000000
vt 0.625000 0.750000
vt 0.625000 0.750000
vt 0.625000 1.000000
vt 0.625000 1.000000
vt 0.625000 0.750000
vt 0.625000 0.750000
vt 0.625000 1.000000
vt 0.625000 1.000000
vt 0.625000 0.750000
vt 0.625000 0.750000
vt 0.625000 1.000000
vt 0.625000 1.000000
vt 0.625000 0.750000
vt 0.625000 1.000000
vt 0.625000 1.000000
vt 0.625000 1.000000
vt 0.625000 1.000000
vt 0.625000 1.000000
vt 0.625000 0.750000
vt 0.625000 0.750000
vt 0.625000 1.000000
vt 0.625000 1.000000
vt 0.625000 0.750000
vt 0.625000 0.750000
vt 0.625000 1.000000
vt 0.625000 1.000000
vt 0.625000 0.750000
vt 0.625000 0.750000
vt 0.625000 1.000000
vt 0.625000 1.000000
vt 0.625000 0.750000
vt 0.625000 0.750000
vt 0.625000 1.000000
vt 0.375000 0.500000
vt 0.625000 0.500000
vt 0.625000 0.750000
vt 0.375000 0.750000
vt 0.625000 0.750000
vt 0.375000 0.750000
vt 0.625000 0.750000
vt 0.375000 0.750000
vt 0.625000 0.750000
vt 0.625000 0.750000
vt 0.625000 0.750000
vt 0.625000 0.750000
vt 0.625000 0.750000
vt 0.625000 0.750000
vt 0.625000 0.750000
vt 0.625000 0.750000
vt 0.625000 0.750000
vt 0.625000 0.750000
vt 0.625000 0.750000
vt 0.625000 0.750000
vt 0.625000 0.750000
vt 0.625000 0.750000
vt 0.625000 0.750000
vt 0.625000 0.750000
vt 0.625000 0.750000
vt 0.625000 0.750000
vt 0.625000 0.750000
vt 0.625000 0.750000
vt 0.625000 0.750000
vt 0.625000 0.750000
vt 0.625000 0.750000
vt 0.625000 0.750000
vt 0.625000 0.750000
vt 0.625000 0.750000
vn 0.000000 0.000000 1.000000
vn 0.000000 0.000000 1.000000
vn 0.000000 0.000000 1.000000
vn 0.000000 0.000000 1.000000
vn -1.000000 0.000000 0.000000
vn -1.000000 0.000000 0.000000
vn -1.000000 0.000000 0.000000
vn -1.000000 0.000000 0.000000
vn -0.000000 0.000000 -1.000000
vn -0.000000 0.000000 -1.000000
vn -0.000000 0.000000 -1.000000
vn -0.000000 0.000000 -1.000000
vn -0.698905 -0.715214 0.000000
vn -0.698905 -0.715214 0.000000
vn -0.698905 -0.715214 0.000000
vn -0.698905 -0.715214 0.000000
vn 0.677879 0.735174 0.000000
vn 0.677879 0.735174 0.000000
vn 0.677879 0.735174 0.000000
vn 0.677879 0.735174 0.000000
vn -0.624059 -0.781378 0.000000
vn -0.624059 -0.781378 0.000000
vn -0.624059 -0.781378 0.000000
vn -0.624059 -0.781378 0.000000
vn 0.000000 0.000000 -1.000000
vn 0.000000 0.000000 -1.000000
vn 0.000000 0.000000 -1.000000
vn 0.000000 0.000000 -1.000000
vn 0.987588 0.157067 0.000000
vn 0.987588 0.157067 0.000000
vn 0.987588 0.157067 0.000000
vn 0.987588 0.157067 0.000000
vn 0.000000 0.000000 1.000000
vn 0.000000 0.000000 1.000000
vn 0.000000 0.000000 1.000000
vn 0.000000 0.000000 1.000000
vn -0.991462 -0.130399 0.000000
vn -0.991462 -0.130399 0.000000
vn -0.991462 -0.130399 0.000000
vn -0.991462 -0.130399 0.000000
vn -0.080127 -0.152370 -0.985070
vn -0.080127 -0.152370 -0.985070
vn -0.080127 -0.152370 -0.985070
vn -0.080127 -0.152370 -0.985070
vn 1.000000 -0.000000 0.000000
vn 1.000000 -0.000000 0.000000
vn 1.000000 -0.000000 0.000000
vn 1.000000 -0.000000 0.000000
vn -0.215336 -0.310740 0.925781
vn -0.215336 -0.310740 0.925781
vn -0.215336 -0.310740 0.925781
vn -0.215336 -0.310740 0.925781
vn -0.786883 0.617103 0.000000
vn -0.786883 0.617103 0.000000
vn -0.786883 0.617103 0.000000
vn -0.786883 0.617103 0.000000
vn 0.596889 0.802324 0.000000
vn 0.596889 0.802324 0.000000
vn 0.596889 0.802324 0.000000
vn 0.596889 0.802324 0.000000
vn -0.086724 -0.385002 0.918832
vn -0.086724 -0.385002 0.918832
vn -0.086724 -0.385002 0.918832
vn -0.086724 -0.385002 0.918832
vn -0.397218 -0.917725 0.000000
vn -0.397218 -0.917725 0.000000
vn -0.397218 -0.917724 0.000000
vn -0.397218 -0.917725 0.000000
vn -0.167535 -0.001066 -0.985866
vn -0.167535 -0.001066 -0.985866
vn -0.167535 -0.001066 -0.985866
vn -0.167535 -0.001066 -0.985866
vn 0.989807 0.025502 0.140113
vn 0.989807 0.025502 0.140113
vn 0.989807 0.025502 0.140113
vn 0.989807 0.025502 0.140113
vn -0.970335 0.071518 0.230942
vn -0.970335 0.071518 0.230942
vn -0.970335 0.071518 0.230942
vn -0.970335 0.071518 0.230942
vn -0.982573 0.049401 -0.179193
vn -0.982573 0.049401 -0.179193
vn -0.982573 0.049401 -0.179193
vn -0.982573 0.049401 -0.179193
vn 0.000000 0.000000 -0.000000
vn 0.216780 0.016155 -0.976087
vn 0.216781 0.016155 -0.976087
vn 0.000000 0.000000 -0.000000
vn 0.965085 -0.251560 0.072998
vn 0.965085 -0.251560 0.072998
vn 0.965085 -0.251560 0.072998
vn 0.965085 -0.251560 0.072998
vn -0.019240 0.317110 0.948194
vn -0.019240 0.317110 0.948194
vn -0.019240 0.317110 0.948194
vn -0.019240 0.317110 0.948194
vn -0.396087 0.890866 0.222426
vn -0.396087 0.890866 0.222426
vn -0.396087 0.890866 0.222426
vn -0.396087 0.890866 0.222426
vn 0.000000 -0.000000 -0.000000
vn 0.156959 -0.050920 -0.986292
vn 0.156959 -0.050920 -0.986292
vn 0.000000 -0.000000 -0.000000
vn 0.620924 -0.783871 0.000000
vn 0.620924 -0.783871 0.000000
vn 0.620924 -0.783871 0.000000
vn 0.620924 -0.783871 0.000000
vn 0.182857 0.158403 0.970295
vn 0.182857 0.158403 0.970295
vn 0.182857 0.158403 0.970295
vn 0.182857 0.158403 0.970295
vn 0.516531 0.856269 0.000000
vn 0.516531 0.856269 0.000000
vn 0.516531 0.856269 0.000000
vn 0.516531 0.856269 0.000000
vn -0.222036 -0.045644 -0.973970
vn -0.222036 -0.045644 -0.973970
vn -0.222036 -0.045644 -0.973970
vn -0.222036 -0.045644 -0.973970
vn 0.188752 -0.982025 0.000000
vn 0.188752 -0.982025 0.000000
vn 0.188752 -0.982025 0.000000
vn 0.188752 -0.982025 0.000000
vn -0.004490 0.029967 0.999541
vn -0.004490 0.029967 0.999541
vn -0.004490 0.029967 0.999541
vn -0.004490 0.029967 0.999541
vn 0.368000 0.929826 0.000000
vn 0.368000 0.929826 0.000000
vn 0.368000 0.929826 0.000000
vn 0.368000 0.929826 0.000000
vn -0.011001 0.073421 -0.997240
vn -0.011001 0.073421 -0.997240
vn -0.011001 0.073421 -0.997240
vn -0.011001 0.073421 -0.997240
vn -0.852187 -0.523238 0.000000
vn -0.852187 -0.523238 0.000000
vn -0.852187 -0.523238 0.000000
vn -0.852187 -0.523238 0.000000
vn 0.046156 0.037078 0.998246
vn 0.046156 0.037078 0.998246
vn 0.046156 0.037078 0.998246
vn 0.046156 0.037078 0.998246
vn 0.371462 0.928448 0.000000
vn 0.371462 0.928448 0.000000
vn 0.371462 0.928448 0.000000
vn 0.371462 0.928448 0.000000
vn 0.000000 0.000000 -0.000000
vn 0.132498 0.081353 -0.987839
vn 0.132498 0.081353 -0.987839
vn 0.000000 0.000000 -0.000000
vn -0.924069 -0.382225 0.000000
vn -0.924069 -0.382225 0.000000
vn -0.924069 -0.382225 0.000000
vn -0.924069 -0.382225 0.000000
vn 0.086936 0.035124 0.995595
vn 0.086936 0.035124 0.995595
vn 0.086936 0.035124 0.995595
vn 0.086936 0.035124 0.995595
vn 0.931762 0.363070 0.000000
vn 0.931762 0.363070 0.000000
vn 0.931762 0.363070 0.000000
vn 0.931762 0.363070 0.000000
vn 0.037715 -0.025361 -0.998967
vn 0.037715 -0.025361 -0.998967
vn 0.037715 -0.025361 -0.998967
vn 0.037715 -0.025361 -0.998967
vn -0.986878 0.161467 0.000000
vn -0.986878 0.161467 0.000000
vn -0.986878 0.161467 0.000000
vn -0.986878 0.161467 0.000000
vn 0.076758 -0.012324 0.996974
vn 0.076758 -0.012324 0.996974
vn 0.028959 -0.030156 0.999126
vn 0.031701 -0.029136 0.999073
vn 0.987989 -0.154527 0.000000
vn 0.987989 -0.154527 0.000000
vn 0.987989 -0.154527 0.000000
vn 0.987989 -0.154527 0.000000
vn -0.056351 0.001911 -0.998409
vn -0.056351 0.001911 -0.998409
vn -0.117937 -0.021839 -0.992781
vn -0.083143 -0.008408 -0.996502
vn -0.602132 0.798397 0.000000
vn -0.602132 0.798397 0.000000
vn -0.602132 0.798397 0.000000
vn -0.602132 0.798397 0.000000
vn -0.001753 -0.041558 0.999135
vn -0.001753 -0.041558 0.999135
vn 0.495154 -0.868805 0.000000
vn 0.495154 -0.868805 0.000000
vn 0.495154 -0.868805 0.000000
vn 0.495154 -0.868805 0.000000
vn -0.133208 -0.027744 -0.990700
vn -0.133208 -0.027744 -0.990700
vn -0.655784 0.486231 -0.577517
vn -0.655784 0.486231 -0.577517
vn -0.655784 0.486231 -0.577517
vn -0.655785 0.486231 -0.577517
vn -0.661208 0.059883 -0.747809
vn -0.661208 0.059883 -0.747809
vn -0.661208 0.059883 -0.747809
vn -0.661208 0.059883 -0.747809
vn -0.784630 -0.619730 -0.017028
vn -0.784630 -0.619730 -0.017028
vn -0.784630 -0.619730 -0.017028
vn -0.784630 -0.619730 -0.017028
vn 0.367562 0.010428 0.929941
vn 0.367562 0.010428 0.929941
vn 0.367562 0.010428 0.929941
vn 0.367562 0.010428 0.929941
vn 0.946161 0.323697 0.000000
vn 0.946161 0.323698 0.000000
vn 0.946161 0.323698 0.000000
vn 0.946161 0.323698 0.000000
vn 0.007093 -0.126117 -0.991990
vn 0.007093 -0.126117 -0.991990
vn 0.007093 -0.126117 -0.991990
vn 0.007093 -0.126117 -0.991990
vn -0.946161 -0.323697 0.000000
vn -0.946161 -0.323697 0.000000
vn -0.946161 -0.323697 0.000000
vn -0.946161 -0.323697 0.000000
vn -0.007095 0.126156 0.991985
vn -0.007095 0.126156 0.991985
vn -0.007095 0.126156 0.991985
vn -0.007095 0.126156 0.991985
vn 0.968983 0.247127 0.000000
vn 0.968983 0.247127 0.000000
vn 0.968983 0.247127 0.000000
vn 0.968983 0.247127 0.000000
vn -0.041099 -0.051430 -0.997831
vn -0.041099 -0.051430 -0.997831
vn -0.041099 -0.051430 -0.997831
vn -0.041099 -0.051430 -0.997831
vn -0.968983 -0.247128 0.000000
vn -0.968983 -0.247128 0.000000
vn -0.968983 -0.247128 0.000000
vn -0.968983 -0.247128 0.000000
vn 0.000000 0.000000 1.000000
vn 0.000000 0.000000 1.000000
vn 0.000000 0.000000 1.000000
vn 0.000000 0.000000 1.000000
vn 0.962257 -0.272143 0.000000
vn 0.962257 -0.272143 0.000000
vn 0.962257 -0.272143 0.000000
vn 0.962257 -0.272143 0.000000
vn 0.278645 0.348889 -0.894781
vn 0.278645 0.348889 -0.894781
vn 0.278645 0.348889 -0.894781
vn 0.278645 0.348889 -0.894781
vn -0.965972 0.258646 0.000000
vn -0.965972 0.258646 0.000000
vn -0.965972 0.258646 0.000000
vn -0.965972 0.258646 0.000000
vn -0.022663 -0.140129 0.989874
vn -0.022663 -0.140129 0.989874
vn -0.022663 -0.140129 0.989874
vn -0.022663 -0.140129 0.989874
vn 0.434339 -0.900750 0.000000
vn 0.434339 -0.900750 0.000000
vn 0.434339 -0.900750 0.000000
vn 0.434339 -0.900749 0.000000
vn -0.097054 -0.012765 -0.995197
vn -0.000000 -0.000000 -0.000000
vn -0.000000 -0.000000 -0.000000
vn -0.097054 -0.012765 -0.995197
vn -0.434339 0.900750 0.000000
vn -0.434339 0.900749 0.000000
vn -0.434339 0.900749 0.000000
vn -0.434339 0.900749 0.000000
vn -0.154625 -0.039435 0.987186
vn -0.154625 -0.039435 0.987186
vn -0.154625 -0.039435 0.987186
vn -0.154625 -0.039435 0.987186
vn -0.956413 0.000000 -0.292018
vn -0.956413 0.000000 -0.292018
vn -0.956413 0.000000 -0.292018
vn -0.956413 0.000000 -0.292018
vn 0.353312 0.383174 -0.853433
vn 0.353312 0.383175 -0.853433
vn 0.353312 0.383174 -0.853433
vn 0.353312 0.383174 -0.853433
vn -0.405295 -0.507466 0.760403
vn -0.405296 -0.507466 0.760403
vn -0.405296 -0.507466 0.760403
vn -0.405296 -0.507466 0.760403
vn 0.640600 0.101881 -0.761086
vn 0.640600 0.101881 -0.761086
vn 0.640600 0.101881 -0.761086
vn 0.640600 0.101881 -0.761086
vn -0.774482 -0.101861 0.624341
vn -0.774482 -0.101861 0.624341
vn -0.774482 -0.101861 0.624341
vn -0.774482 -0.101861 0.624341
vn -0.450284 -0.113695 0.885617
vn -0.450284 -0.113695 0.885617
vn -0.450284 -0.113695 0.885617
vn -0.450285 -0.113695 0.885617
vn -0.407619 0.628287 0.662648
vn -0.407619 0.628287 0.662648
vn -0.407619 0.628287 0.662648
vn -0.407619 0.628287 0.662648
vn 0.556517 0.467710 -0.686685
vn 0.556517 0.467710 -0.686685
vn 0.556517 0.467710 -0.686685
vn 0.556517 0.467710 -0.686685
vn -0.155806 -0.691689 0.705189
vn -0.155806 -0.691689 0.705189
vn -0.155806 -0.691689 0.705189
vn -0.155806 -0.691689 0.705189
vn 0.610390 0.045486 -0.790794
vn 0.610390 0.045486 -0.790794
vn 0.610390 0.045486 -0.790794
vn 0.610390 0.045486 -0.790794
vn -0.666991 -0.038836 0.744053
vn -0.666991 -0.038836 0.744053
vn -0.000000 -0.000000 0.000000
vn -0.000000 -0.000000 0.000000
vn 0.473406 -0.153581 -0.867352
vn 0.473406 -0.153581 -0.867352
vn 0.473406 -0.153581 -0.867352
vn 0.473406 -0.153581 -0.867352
vn -0.137010 0.565485 0.813299
vn -0.137010 0.565485 0.813299
vn -0.000000 0.000000 0.000000
vn -0.000000 0.000000 0.000000
vn 0.158026 -0.384308 -0.909580
vn 0.158026 -0.384308 -0.909580
vn 0.158026 -0.384308 -0.909580
vn 0.158026 -0.384308 -0.909580
vn 0.403955 0.666669 0.626396
vn 0.403955 0.666669 0.626396
vn 0.403955 0.666669 0.626396
vn 0.403955 0.666669 0.626396
vn 0.078975 -0.410883 -0.908261
vn 0.078975 -0.410883 -0.908261
vn 0.078975 -0.410883 -0.908261
vn 0.078975 -0.410883 -0.908261
vn -0.574425 -0.352694 -0.738676
vn -0.574425 -0.352694 -0.738677
vn -0.574425 -0.352694 -0.738676
vn -0.574425 -0.352694 -0.738676
vn 0.289774 0.724274 0.625667
vn 0.289774 0.724274 0.625666
vn 0.000000 0.000000 0.000000
vn 0.000000 0.000000 0.000000
vn -0.688976 -0.284983 -0.666405
vn -0.688976 -0.284983 -0.666406
vn -0.688976 -0.284983 -0.666405
vn -0.688976 -0.284983 -0.666405
vn 0.790603 0.316922 0.523934
vn 0.790603 0.316922 0.523934
vn 0.790603 0.316922 0.523934
vn 0.790603 0.316922 0.523934
vn -0.570407 0.093326 -0.816043
vn -0.570407 0.093326 -0.816043
vn -0.570407 0.093326 -0.816043
vn -0.570407 0.093326 -0.816043
vn 0.677620 -0.030101 0.734796
vn 0.677620 -0.030101 0.734796
vn 0.677620 -0.030101 0.734796
vn 0.677620 -0.030101 0.734796
vn -0.352466 0.309176 -0.883277
vn -0.352466 0.309175 -0.883277
vn -0.352466 0.309175 -0.883277
vn -0.352466 0.309175 -0.883277
vn 0.956413 -0.000000 0.292018
vn 0.956413 -0.000000 0.292018
vn 0.956413 -0.000000 0.292018
vn 0.956413 -0.000000 0.292018
vn 0.624712 -0.188812 0.757684
vn 0.624712 -0.188812 0.757684
vn 0.624712 -0.188812 0.757684
vn 0.624712 -0.188812 0.757684
vn -0.884844 -0.343503 -0.314732
vn -0.884844 -0.343503 -0.314732
vn -0.884844 -0.343503 -0.314732
vn -0.884844 -0.343503 -0.314732
vn 0.943473 0.328497 0.044137
vn 0.943473 0.328497 0.044137
vn 0.943473 0.328497 0.044137
vn 0.943473 0.328497 0.044137
vn -0.910559 -0.232227 -0.341983
vn -0.910559 -0.232227 -0.341983
vn -0.910559 -0.232227 -0.341983
vn -0.910559 -0.232227 -0.341983
vn -0.888730 0.233899 -0.394271
vn -0.888730 0.233899 -0.394271
vn -0.888730 0.233899 -0.394272
vn -0.888730 0.233899 -0.394272
vn 0.452938 0.610495 -0.649725
vn 0.452938 0.610495 -0.649725
vn 0.452938 0.610495 -0.649725
vn 0.452938 0.610495 -0.649725
vn 0.102334 -0.521194 0.847281
vn 0.102334 -0.521194 0.847281
vn 0.102334 -0.521194 0.847281
vn 0.102334 -0.521194 0.847281
vn -0.347615 0.858435 -0.377165
vn -0.347615 0.858435 -0.377165
vn -0.000000 0.000000 -0.000000
vn -0.000000 0.000000 -0.000000
vn 0.847197 0.161059 -0.506277
vn 0.847198 0.161059 -0.506277
vn 0.847198 0.161059 -0.506277
vn 0.847197 0.161059 -0.506277
vn 0.290542 -0.891368 0.347922
vn 0.290542 -0.891368 0.347922
vn 0.290542 -0.891368 0.347922
vn 0.290542 -0.891368 0.347922
s off
g pCube1
usemtl initialShadingGroup
f 1/1/1 2/2/2 4/4/3 3/3/4
f 3/3/5 4/4/6 6/6/7 5/5/8
f 73/79/9 74/80/10 75/81/11 76/82/12
f 13/19/13 14/20/14 15/21/15 16/22/16
f 2/2/17 8/11/18 6/12/19 4/4/20
f 7/13/21 1/1/22 3/3/23 5/14/24
f 76/82/25 75/81/26 77/83/27 78/84/28
f 8/8/29 2/10/30 11/17/31 10/16/32
f 2/10/33 1/9/34 12/18/35 11/17/36
f 1/9/37 7/7/38 9/15/39 12/18/40
f 78/84/41 77/83/42 79/85/43 80/86/44
f 49/55/45 50/56/46 51/57/47 52/58/48
f 11/17/49 12/18/50 16/22/51 15/21/52
f 12/18/53 9/15/54 13/19/55 16/22/56
f 10/16/57 11/17/58 18/24/59 17/23/60
f 11/17/61 15/21/62 19/25/63 18/24/64
f 15/21/65 14/20/66 20/26/67 19/25/68
f 79/85/69 77/83/70 81/87/71 82/88/72
f 17/23/73 18/24/74 22/28/75 21/27/76
f 53/59/77 54/60/78 55/61/79 56/62/80
f 19/25/81 20/26/82 24/30/83 23/29/84
f 82/88/85 81/87/86 83/89/87 84/90/88
f 21/27/89 22/28/90 26/32/91 25/31/92
f 22/28/93 23/29/94 27/33/95 26/32/96
f 23/29/97 24/30/98 28/34/99 27/33/100
f 84/90/101 83/89/102 85/91/103 86/92/104
f 25/31/105 26/32/106 30/36/107 29/35/108
f 26/32/109 27/33/110 31/37/111 30/36/112
f 27/33/113 28/34/114 32/38/115 31/37/116
f 86/92/117 85/91/118 87/93/119 88/94/120
f 29/35/121 30/36/122 34/40/123 33/39/124
f 30/36/125 31/37/126 35/41/127 34/40/128
f 66/71/129 65/72/130 67/73/131 68/74/132
f 88/94/133 87/93/134 89/95/135 90/98/136
f 33/39/137 34/40/138 38/44/139 37/43/140
f 34/40/141 35/41/142 39/45/143 38/44/144
f 35/41/145 36/42/146 40/46/147 39/45/148
f 90/98/149 89/95/150 91/96/151 92/97/152
f 37/43/153 38/44/154 42/48/155 41/47/156
f 38/44/157 39/45/158 43/49/159 42/48/160
f 39/45/161 40/46/162 44/50/163 43/49/164
f 92/97/165 91/96/166 93/99/167 94/100/168
f 41/47/169 42/48/170 46/52/171 45/51/172
s 1
f 42/48/173 43/49/174 47/53/175 46/52/176
s off
f 43/49/177 44/50/178 48/54/179 47/53/180
s 2
f 94/100/181 93/99/182 95/101/183 96/102/184
s off
f 45/51/185 46/52/186 50/56/187 49/55/188
s 1
f 46/52/176 47/53/175 51/57/189 50/56/190
s off
f 47/53/191 48/54/192 52/58/193 51/57/194
s 2
f 96/102/184 95/101/183 97/103/195 98/104/196
s off
f 18/24/197 19/25/198 54/60/199 53/59/200
f 19/25/201 23/29/202 55/61/203 54/60/204
f 23/29/205 22/28/206 56/62/207 55/61/208
f 22/28/209 18/24/210 53/59/211 56/62/212
f 31/37/213 32/38/214 57/64/215 58/63/216
f 88/94/217 90/98/218 99/105/219 100/106/220
f 36/42/221 35/41/222 60/66/223 59/65/224
f 35/41/225 31/37/226 58/63/227 60/66/228
f 70/75/229 69/76/230 71/77/231 72/78/232
f 100/106/233 99/105/234 101/107/235 102/110/236
f 59/65/237 60/66/238 64/70/239 63/69/240
f 60/66/241 58/63/242 62/67/243 64/70/244
f 62/67/245 61/68/246 65/72/247 66/71/248
f 102/110/249 101/107/250 103/108/251 104/109/252
f 63/69/253 64/70/254 68/74/255 67/73/256
f 64/70/257 62/67/258 66/71/259 68/74/260
f 58/63/261 57/64/262 69/76/263 70/75/264
f 100/106/265 102/110/266 105/111/267 106/112/268
f 61/68/269 62/67/270 72/78/271 71/77/272
f 62/67/273 58/63/274 70/75/275 72/78/276
f 5/5/277 6/6/278 74/80/279 73/79/280
f 6/6/281 8/8/282 75/81/283 74/80/284
f 7/7/285 5/5/286 73/79/287 76/82/288
f 8/8/289 10/16/290 77/83/291 75/81/292
f 9/15/293 7/7/294 76/82/295 78/84/296
f 14/20/297 13/19/298 80/86/299 79/85/300
f 13/19/301 9/15/302 78/84/303 80/86/304
f 10/16/305 17/23/306 81/87/307 77/83/308
f 20/26/309 14/20/310 79/85/311 82/88/312
f 17/23/313 21/27/314 83/89/315 81/87/316
f 24/30/317 20/26/318 82/88/319 84/90/320
f 21/27/321 25/31/322 85/91/323 83/89/324
f 28/34/325 24/30/326 84/90/327 86/92/328
f 25/31/329 29/35/330 87/93/331 85/91/332
f 32/38/333 28/34/334 86/92/335 88/94/336
f 29/35/337 33/39/338 89/95/339 87/93/340
f 33/39/341 37/43/342 91/96/343 89/95/344
f 40/46/345 36/42/346 90/98/347 92/97/348
f 37/43/349 41/47/350 93/99/351 91/96/352
f 44/50/353 40/46/354 92/97/355 94/100/356
f 41/47/357 45/51/358 95/101/359 93/99/360
f 48/54/361 44/50/362 94/100/363 96/102/364
f 45/51/365 49/55/366 97/103/367 95/101/368
f 49/55/369 52/58/370 98/104/371 97/103/372
f 52/58/373 48/54/374 96/102/375 98/104/376
f 36/42/377 59/65/378 99/105/379 90/98/380
f 57/64/381 32/38/382 88/94/383 100/106/384
f 59/65/385 63/69/386 101/107/387 99/105/388
f 63/69/389 67/73/390 103/108/391 101/107/392
f 67/73/393 65/72/394 104/109/395 103/108/396
f 65/72/397 61/68/398 102/110/399 104/109/400
f 61/68/401 71/77/402 105/111/403 102/110/404
f 71/77/405 69/76/406 106/112/407 105/111/408
f 69/76/409 57/64/410 100/106/411 106/112/412
