# This file uses centimeters as units for non-parametric coordinates.

mtllib Fish.mtl
g default
v -0.584142 -1.796092 0.500000
v 0.584142 -1.796092 0.500000
v -0.584142 1.796092 0.500000
v 0.584142 1.796092 0.500000
v -0.584142 1.796092 -0.500000
v 0.584142 1.796092 -0.500000
v -0.584142 -1.796092 -0.500000
v 0.584142 -1.796092 -0.500000
v -0.584142 1.149656 -2.189325
v 0.584142 1.149656 -2.189325
v 0.584142 -1.358857 -2.095585
v -0.584142 -1.358857 -2.095585
v -0.443365 -1.128815 3.272870
v 0.443365 -1.128815 3.272870
v 0.443365 0.580436 3.272870
v -0.443365 0.580436 3.272870
v -0.286548 -2.206043 4.047970
v 0.286548 -2.206043 4.047970
v 0.286548 1.824753 4.047970
v -0.286548 1.824753 4.047970
v -0.107806 -2.777168 4.978045
v 0.107806 -2.777168 4.978045
v 0.107806 2.395878 4.978045
v -0.107806 2.395878 4.978045
v -0.443365 -0.190645 3.523888
v -0.443365 -0.274190 3.272870
v -1.186076 -0.165477 0.500000
v -1.186076 -0.165477 -0.500000
v -0.584142 -0.196518 -2.698710
v 0.584142 -0.196518 -2.698710
v 1.186076 -0.165477 -0.500000
v 1.186076 -0.165477 0.500000
v 0.443365 -0.274190 3.272870
v 0.443365 -0.190645 3.523888
v 0.107806 -0.190645 4.229462
v -0.107806 -0.190645 4.229462
v -0.121624 -2.080847 -0.184966
v 0.121624 -2.080847 -0.184966
v 0.121624 -2.080847 0.648034
v -0.121624 -2.080847 0.648034
v 0.092313 -1.413571 2.957836
v -0.092313 -1.413571 2.957836
v -0.121624 -2.593106 0.179867
v 0.121624 -2.593106 0.179867
v 0.121624 -2.593106 1.012867
v -0.121624 -2.593106 1.012867
v 0.092313 -2.043793 3.322669
v -0.092313 -2.043793 3.322669
v -0.167124 1.887511 0.513217
v 0.167124 1.887511 0.513217
v 0.167124 1.887511 -0.486783
v -0.167124 1.887511 -0.486783
v -0.126848 0.828260 3.286087
v 0.126848 0.828260 3.286087
v -0.113100 2.356294 0.647464
v 0.113100 2.356294 0.647464
v 0.113100 2.356294 -0.352536
v -0.113100 2.356294 -0.352536
v -0.085843 1.297043 3.420334
v 0.085843 1.297043 3.420334
vt 0.375000 0.000000
vt 0.625000 0.000000
vt 0.375000 0.250000
vt 0.625000 0.250000
vt 0.375000 0.500000
vt 0.625000 0.500000
vt 0.375000 0.750000
vt 0.625000 0.750000
vt 0.375000 1.000000
vt 0.625000 1.000000
vt 0.875000 0.000000
vt 0.875000 0.250000
vt 0.125000 0.000000
vt 0.125000 0.250000
vt 0.375000 0.500000
vt 0.625000 0.500000
vt 0.625000 0.750000
vt 0.375000 0.750000
vt 0.375000 0.000000
vt 0.625000 0.000000
vt 0.625000 0.250000
vt 0.375000 0.250000
vt 0.375000 0.000000
vt 0.625000 0.000000
vt 0.625000 0.250000
vt 0.375000 0.250000
vt 0.375000 0.000000
vt 0.625000 0.000000
vt 0.625000 0.250000
vt 0.375000 0.250000
vt 0.375000 0.125000
vt 0.375000 0.125000
vt 0.375000 0.125000
vt 0.125000 0.125000
vt 0.375000 0.625000
vt 0.375000 0.625000
vt 0.625000 0.625000
vt 0.625000 0.625000
vt 0.875000 0.125000
vt 0.625000 0.125000
vt 0.625000 0.125000
vt 0.625000 0.125000
vt 0.625000 0.125000
vt 0.375000 0.125000
vt 0.375000 0.750000
vt 0.625000 0.750000
vt 0.625000 1.000000
vt 0.375000 1.000000
vt 0.625000 0.000000
vt 0.625000 0.000000
vt 0.375000 0.000000
vt 0.375000 0.000000
vt 0.375000 0.750000
vt 0.625000 0.750000
vt 0.625000 1.000000
vt 0.375000 1.000000
vt 0.625000 0.000000
vt 0.625000 0.000000
vt 0.375000 0.000000
vt 0.375000 0.000000
vt 0.625000 0.250000
vt 0.625000 0.500000
vt 0.375000 0.500000
vt 0.375000 0.250000
vt 0.375000 0.250000
vt 0.625000 0.250000
vt 0.625000 0.250000
vt 0.625000 0.500000
vt 0.375000 0.500000
vt 0.375000 0.250000
vt 0.375000 0.250000
vt 0.625000 0.250000
vn 0.000000 0.278008 0.960579
vn 0.000000 0.278008 0.960579
vn 0.000000 -0.000000 1.000000
vn 0.000000 -0.000000 1.000000
vn 0.000000 1.000000 0.000000
vn 0.000000 1.000000 0.000000
vn 0.000000 1.000000 0.000000
vn 0.000000 1.000000 0.000000
vn 0.000000 -0.037343 -0.999303
vn 0.000000 -0.037343 -0.999303
vn 0.000000 -0.460577 -0.887620
vn 0.000000 -0.460577 -0.887620
vn 0.000000 -1.000000 0.000000
vn 0.000000 -1.000000 0.000000
vn 0.000000 -1.000000 0.000000
vn 0.000000 -1.000000 0.000000
vn 0.938123 -0.346303 0.000000
vn 0.938123 -0.346303 0.000000
vn 1.000000 -0.000000 0.000000
vn 1.000000 -0.000000 0.000000
vn -0.938123 -0.346303 0.000000
vn -0.938123 -0.346303 0.000000
vn -1.000000 -0.000000 0.000000
vn -1.000000 -0.000000 0.000000
vn 0.000000 0.933956 -0.357387
vn 0.000000 0.933956 -0.357387
vn 0.000000 0.933956 -0.357387
vn 0.000000 0.933956 -0.357387
vn 0.982580 0.001633 -0.185834
vn 0.953472 -0.243791 -0.177359
vn 0.953472 -0.243791 -0.177359
vn 0.982278 0.022846 -0.186034
vn 0.000000 -0.964445 -0.264285
vn 0.000000 -0.964445 -0.264285
vn 0.000000 -0.964445 -0.264285
vn 0.000000 -0.964445 -0.264285
vn -0.953472 -0.243791 -0.177359
vn -0.982580 0.001633 -0.185834
vn -0.982278 0.022846 -0.186034
vn -0.953472 -0.243791 -0.177359
vn 0.000000 -0.972867 0.231366
vn 0.000000 -0.972867 0.231366
vn 0.000000 -0.972867 0.231366
vn 0.000000 -0.972867 0.231366
vn 0.956769 -0.231733 0.175762
vn 0.980954 0.002326 0.194227
vn 0.980998 -0.001509 0.194012
vn 0.956769 -0.231733 0.175762
vn 0.000000 0.934160 0.356854
vn 0.000000 0.934160 0.356854
vn 0.000000 0.934160 0.356854
vn 0.000000 0.934160 0.356854
vn -0.980954 0.002326 0.194227
vn -0.956769 -0.231733 0.175762
vn -0.956769 -0.231733 0.175762
vn -0.980998 -0.001509 0.194012
vn 0.000000 -0.584055 -0.811714
vn 0.000000 -0.584055 -0.811714
vn 0.000000 -0.584055 -0.811714
vn 0.000000 -0.584055 -0.811714
vn 0.992199 -0.032222 0.120430
vn 0.993437 -0.001964 0.114362
vn 0.993514 0.001305 0.113700
vn 0.992199 -0.032222 0.120430
vn 0.000000 0.528724 -0.848794
vn 0.000000 0.528724 -0.848794
vn 0.000000 0.528724 -0.848794
vn 0.000000 0.528724 -0.848794
vn -0.993437 -0.001964 0.114362
vn -0.992199 -0.032222 0.120430
vn -0.992199 -0.032222 0.120430
vn -0.993514 0.001305 0.113700
vn 0.000000 -0.852160 -0.523281
vn 0.000000 -0.852160 -0.523281
vn 0.000000 -0.852160 -0.523281
vn 0.000000 -0.852160 -0.523281
vn 0.946788 0.055418 0.317051
vn 0.948245 0.000000 0.317539
vn 0.948245 -0.000000 0.317539
vn 0.946788 0.055418 0.317051
vn 0.000000 0.852160 -0.523281
vn 0.000000 0.852160 -0.523281
vn 0.000000 0.852160 -0.523281
vn 0.000000 0.852160 -0.523281
vn -0.948245 0.000000 0.317539
vn -0.948245 0.000000 0.317539
vn -0.946788 0.055418 0.317051
vn -0.946788 0.055418 0.317051
vn -0.993667 0.034783 0.106847
vn -0.993667 0.034783 0.106847
vn -0.957856 0.204732 0.201487
vn -0.957856 0.204732 0.201487
vn -0.956001 0.293362 0.000000
vn -0.956001 0.293362 0.000000
vn -0.961598 0.203372 -0.184309
vn -0.961598 0.203372 -0.184309
vn 0.000000 0.353906 -0.935281
vn 0.000000 0.353906 -0.935281
vn 0.961598 0.203372 -0.184308
vn 0.961598 0.203372 -0.184309
vn 0.956001 0.293362 0.000000
vn 0.956001 0.293362 0.000000
vn 0.957856 0.204732 0.201487
vn 0.957856 0.204732 0.201487
vn 0.993667 0.034783 0.106847
vn 0.993667 0.034783 0.106847
vn 0.946788 -0.055418 0.317051
vn 0.946788 -0.055418 0.317051
vn 0.000000 -0.278008 0.960579
vn 0.000000 -0.278008 0.960579
vn -0.946788 -0.055418 0.317051
vn -0.946788 -0.055418 0.317051
vn 0.000000 -0.741858 -0.670557
vn 0.000000 -0.741858 -0.670557
vn 0.000000 -0.741858 -0.670557
vn 0.000000 -0.741858 -0.670557
vn 0.524269 -0.851552 0.000000
vn 0.524269 -0.851552 0.000000
vn 0.524269 -0.851552 0.000000
vn 0.524269 -0.851552 0.000000
vn -0.524269 -0.851552 0.000000
vn -0.524269 -0.851552 0.000000
vn -0.524269 -0.851552 0.000000
vn -0.524269 -0.851552 0.000000
vn 0.525273 -0.818553 0.232505
vn 0.525273 -0.818553 0.232505
vn 0.525273 -0.818553 0.232505
vn 0.525273 -0.818553 0.232505
vn 0.000000 -0.741858 0.670557
vn 0.000000 -0.741858 0.670557
vn 0.000000 -0.741858 0.670557
vn 0.000000 -0.741858 0.670557
vn -0.525273 -0.818553 0.232505
vn -0.525273 -0.818553 0.232505
vn -0.525273 -0.818553 0.232505
vn -0.525273 -0.818553 0.232505
vn 0.000000 -0.580115 -0.814535
vn 0.000000 -0.580115 -0.814535
vn 0.000000 -0.580115 -0.814535
vn 0.000000 -0.580115 -0.814535
vn 1.000000 -0.000000 0.000000
vn 1.000000 -0.000000 0.000000
vn 1.000000 -0.000000 0.000000
vn 1.000000 -0.000000 0.000000
vn -1.000000 0.000000 0.000000
vn -1.000000 0.000000 0.000000
vn -1.000000 0.000000 0.000000
vn -1.000000 0.000000 0.000000
vn 0.999917 0.006937 0.010862
vn 0.999917 0.006937 0.010862
vn 0.999917 0.006937 0.010862
vn 0.999917 0.006937 0.010862
vn 0.000000 0.501003 0.865446
vn 0.000000 0.501003 0.865446
vn 0.000000 0.501003 0.865446
vn 0.000000 0.501003 0.865446
vn -0.999917 0.006937 0.010862
vn -0.999917 0.006937 0.010862
vn -0.999917 0.006937 0.010862
vn -0.999917 0.006937 0.010862
vn 0.214136 0.976804 0.000000
vn 0.214136 0.976804 0.000000
vn 0.214136 0.976804 0.000000
vn 0.214136 0.976804 0.000000
vn 0.000000 0.143087 -0.989710
vn 0.000000 0.143087 -0.989710
vn 0.000000 0.143087 -0.989710
vn 0.000000 0.143087 -0.989710
vn -0.214136 0.976804 0.000000
vn -0.214136 0.976804 0.000000
vn -0.214136 0.976804 0.000000
vn -0.214136 0.976804 0.000000
vn -0.402451 0.842264 0.358642
vn -0.402452 0.842264 0.358642
vn -0.402452 0.842264 0.358642
vn -0.402452 0.842264 0.358642
vn 0.000000 -0.053256 0.998581
vn 0.000000 -0.053256 0.998581
vn 0.000000 -0.053256 0.998581
vn 0.000000 -0.053256 0.998581
vn 0.402451 0.842264 0.358642
vn 0.402451 0.842264 0.358642
vn 0.402451 0.842264 0.358642
vn 0.402451 0.842264 0.358642
vn 0.993425 0.114485 0.000000
vn 0.993425 0.114485 0.000000
vn 0.993425 0.114485 0.000000
vn 0.993425 0.114485 0.000000
vn 0.000000 0.275306 -0.961357
vn 0.000000 0.275306 -0.961357
vn 0.000000 0.275306 -0.961357
vn 0.000000 0.275306 -0.961357
vn -0.993425 0.114485 0.000000
vn -0.993425 0.114485 0.000000
vn -0.993425 0.114485 0.000000
vn -0.993425 0.114485 0.000000
vn -0.995093 0.087785 0.045652
vn -0.995093 0.087785 0.045652
vn -0.995093 0.087785 0.045652
vn -0.995093 0.087785 0.045652
vn 0.000000 -0.275306 0.961357
vn 0.000000 -0.275306 0.961357
vn 0.000000 -0.275306 0.961357
vn 0.000000 -0.275306 0.961357
vn 0.995093 0.087785 0.045652
vn 0.995093 0.087785 0.045652
vn 0.995093 0.087785 0.045652
vn 0.995093 0.087785 0.045652
s 1
g pCube1
usemtl initialShadingGroup
f 21/27/1 22/28/2 35/43/3 36/44/4
s off
f 55/70/5 56/67/6 57/68/7 58/69/8
s 2
f 29/36/9 30/37/10 11/17/11 12/18/12
s off
f 43/53/13 44/54/14 45/55/15 46/56/16
s 3
f 2/2/17 8/11/18 31/39/19 32/40/20
s 4
f 7/13/21 1/1/22 27/33/23 28/34/24
s off
f 5/5/25 6/6/26 10/16/27 9/15/28
s 5
f 31/38/29 8/8/30 11/17/31 30/37/32
s off
f 8/8/33 7/7/34 12/18/35 11/17/36
s 6
f 7/7/37 28/35/38 29/36/39 12/18/40
s off
f 46/60/41 45/57/42 47/58/43 48/59/44
s 7
f 2/2/45 32/40/46 33/41/47 14/20/48
s off
f 56/67/49 55/70/50 59/71/51 60/72/52
s 8
f 27/33/53 1/1/54 13/19/55 26/32/56
s off
f 13/19/57 14/20/58 18/24/59 17/23/60
s 9
f 14/20/61 33/41/62 34/42/63 18/24/64
s off
f 15/21/65 16/22/66 20/26/67 19/25/68
s 10
f 26/32/69 13/19/70 17/23/71 25/31/72
s off
f 17/23/73 18/24/74 22/28/75 21/27/76
s 11
f 18/24/77 34/42/78 35/43/79 22/28/80
s off
f 19/25/81 20/26/82 24/30/83 23/29/84
s 12
f 36/44/85 25/31/86 17/23/87 21/27/88
s 10
f 16/22/89 26/32/69 25/31/72 20/26/90
s 8
f 3/3/91 27/33/53 26/32/56 16/22/92
s 4
f 28/34/24 27/33/23 3/3/93 5/14/94
s 6
f 29/36/39 28/35/38 5/5/95 9/15/96
s 2
f 9/15/97 10/16/98 30/37/10 29/36/9
s 5
f 6/6/99 31/38/29 30/37/32 10/16/100
s 3
f 32/40/20 31/39/19 6/12/101 4/4/102
s 7
f 33/41/47 32/40/46 4/4/103 15/21/104
s 9
f 34/42/63 33/41/62 15/21/105 19/25/106
s 11
f 35/43/79 34/42/78 19/25/107 23/29/108
s 1
f 36/44/4 35/43/3 23/29/109 24/30/110
s 12
f 20/26/111 25/31/86 36/44/85 24/30/112
s off
f 7/7/113 8/8/114 38/46/115 37/45/116
f 8/8/117 2/10/118 39/47/119 38/46/120
f 1/9/121 7/7/122 37/45/123 40/48/124
f 2/2/125 14/20/126 41/50/127 39/49/128
f 14/20/129 13/19/130 42/51/131 41/50/132
f 13/19/133 1/1/134 40/52/135 42/51/136
f 37/45/137 38/46/138 44/54/139 43/53/140
f 38/46/141 39/47/142 45/55/143 44/54/144
f 40/48/145 37/45/146 43/53/147 46/56/148
f 39/49/149 41/50/150 47/58/151 45/57/152
f 41/50/153 42/51/154 48/59/155 47/58/156
f 42/51/157 40/52/158 46/60/159 48/59/160
f 4/4/161 6/6/162 51/62/163 50/61/164
f 6/6/165 5/5/166 52/63/167 51/62/168
f 5/5/169 3/3/170 49/64/171 52/63/172
f 3/3/173 16/22/174 53/65/175 49/64/176
f 16/22/177 15/21/178 54/66/179 53/65/180
f 15/21/181 4/4/182 50/61/183 54/66/184
f 50/61/185 51/62/186 57/68/187 56/67/188
f 51/62/189 52/63/190 58/69/191 57/68/192
f 52/63/193 49/64/194 55/70/195 58/69/196
f 49/64/197 53/65/198 59/71/199 55/70/200
f 53/65/201 54/66/202 60/72/203 59/71/204
f 54/66/205 50/61/206 56/67/207 60/72/208
