# This file uses centimeters as units for non-parametric coordinates.

mtllib Foot.mtl
g default
v -0.647105 -0.647105 0.870054
v 0.647105 -0.647105 0.870054
v -0.647105 0.647105 0.870054
v 0.647105 0.647105 0.870054
v -0.539119 0.602103 -0.743593
v 0.662294 0.602103 -0.786039
v -0.539119 -0.467555 -0.743593
v 0.662294 -0.467555 -0.786039
v -0.738741 1.570931 -2.001033
v 0.261259 1.570931 -2.001033
v 0.261259 -0.205022 -2.159800
v -0.738741 -0.205022 -2.159800
v 1.100651 0.567295 -0.999059
v 1.100651 -0.472230 -0.999059
v 1.027736 -0.205022 -2.467591
v 1.027736 1.570931 -2.308823
v 3.344114 0.567295 -1.736789
v 3.344114 -0.472230 -1.736789
v 2.794414 -0.205022 -3.055234
v 2.794414 1.570931 -2.896467
v 1.511151 0.583234 0.597468
v 1.511151 -0.583234 0.597468
v 3.824897 -0.583234 -0.299264
v 3.824897 0.583234 -0.299264
v -0.933333 3.602292 -3.041501
v -0.015407 3.447999 -3.041501
v -0.197176 2.390479 -4.901929
v -1.115102 2.544772 -4.901929
v 0.710619 3.463339 -3.293938
v 0.528850 2.405819 -5.154366
v 2.375174 3.445829 -3.775898
v 2.193405 2.388309 -5.636327
v -0.814607 5.490901 -5.745141
v -0.116267 5.537294 -5.834795
v -0.347398 4.169140 -7.181012
v -1.045738 4.122747 -7.091358
v 0.442391 5.515119 -6.021325
v 0.211261 4.146965 -7.367542
v 2.136760 5.494131 -6.497463
v 1.905630 4.125977 -7.843680
v -0.841179 2.552879 -5.376534
v -0.075250 2.424135 -5.376534
v -0.783300 3.393980 -6.949054
v -0.200596 3.432691 -7.023862
v 0.530556 2.436935 -5.587171
v 0.265556 3.414188 -7.179505
v 1.919481 2.422325 -5.989325
v 1.679358 3.396675 -7.576801
vt 0.375000 0.000000
vt 0.625000 0.000000
vt 0.375000 0.250000
vt 0.625000 0.250000
vt 0.375000 0.500000
vt 0.625000 0.500000
vt 0.375000 0.750000
vt 0.625000 0.750000
vt 0.375000 1.000000
vt 0.625000 1.000000
vt 0.875000 0.000000
vt 0.875000 0.250000
vt 0.125000 0.000000
vt 0.125000 0.250000
vt 0.375000 0.500000
vt 0.625000 0.500000
vt 0.625000 0.750000
vt 0.375000 0.750000
vt 0.625000 0.500000
vt 0.625000 0.750000
vt 0.625000 0.750000
vt 0.625000 0.500000
vt 0.625000 0.500000
vt 0.625000 0.750000
vt 0.625000 0.750000
vt 0.625000 0.500000
vt 0.625000 0.500000
vt 0.625000 0.750000
vt 0.625000 0.750000
vt 0.625000 0.500000
vt 0.375000 0.500000
vt 0.625000 0.500000
vt 0.625000 0.750000
vt 0.375000 0.750000
vt 0.625000 0.500000
vt 0.625000 0.750000
vt 0.625000 0.500000
vt 0.625000 0.750000
vt 0.375000 0.500000
vt 0.625000 0.500000
vt 0.625000 0.750000
vt 0.375000 0.750000
vt 0.625000 0.500000
vt 0.625000 0.750000
vt 0.625000 0.500000
vt 0.625000 0.750000
vt 0.625000 0.750000
vt 0.375000 0.750000
vt 0.375000 0.750000
vt 0.625000 0.750000
vt 0.625000 0.750000
vt 0.625000 0.750000
vt 0.625000 0.750000
vt 0.625000 0.750000
vn 0.000000 0.000000 1.000000
vn 0.000000 0.000000 1.000000
vn 0.000000 0.000000 1.000000
vn 0.000000 0.000000 1.000000
vn -0.000468 0.999621 -0.027533
vn -0.000468 0.999621 -0.027533
vn -0.000468 0.999621 -0.027533
vn -0.000468 0.999621 -0.027533
vn -0.136101 0.706430 -0.694574
vn -0.136101 0.706430 -0.694574
vn -0.136101 0.706430 -0.694574
vn -0.136101 0.706430 -0.694574
vn -0.001858 -0.994014 -0.109237
vn -0.001858 -0.994014 -0.109237
vn -0.001858 -0.994014 -0.109237
vn -0.001858 -0.994014 -0.109237
vn 0.999958 0.000000 0.009172
vn 0.999958 0.000000 0.009172
vn 0.999958 0.000000 0.009172
vn 0.999958 0.000000 0.009172
vn -0.997768 0.000000 -0.066771
vn -0.997768 0.000000 -0.066771
vn -0.997768 0.000000 -0.066771
vn -0.997768 0.000000 -0.066771
vn 0.011858 0.788427 0.615013
vn 0.011858 0.788427 0.615013
vn 0.011858 0.788428 0.615013
vn 0.011858 0.788428 0.615013
vn 0.918049 0.022322 -0.395838
vn 0.918049 0.022322 -0.395838
vn 0.918049 0.022322 -0.395838
vn 0.918049 0.022322 -0.395838
vn -0.003552 -0.982880 -0.184211
vn -0.003552 -0.982880 -0.184211
vn -0.003552 -0.982880 -0.184211
vn -0.003552 -0.982880 -0.184211
vn -0.989536 -0.008038 0.144061
vn -0.989536 -0.008038 0.144061
vn -0.989536 -0.008038 0.144061
vn -0.989536 -0.008038 0.144061
vn 0.437077 0.000000 0.899424
vn 0.437077 0.000000 0.899424
vn 0.437077 0.000000 0.899424
vn 0.437077 0.000000 0.899424
vn -0.077379 -0.982369 -0.170189
vn -0.077379 -0.982369 -0.170189
vn -0.077379 -0.982369 -0.170189
vn -0.077379 -0.982369 -0.170189
vn -0.199558 0.704184 -0.681397
vn -0.199558 0.704184 -0.681397
vn -0.199558 0.704184 -0.681397
vn -0.199558 0.704184 -0.681397
vn 0.265597 0.783279 0.562078
vn 0.265597 0.783279 0.562078
vn 0.265597 0.783279 0.562078
vn 0.265597 0.783279 0.562078
vn 0.361376 0.000000 0.932420
vn 0.361376 0.000000 0.932420
vn 0.361376 0.000000 0.932420
vn 0.361376 0.000000 0.932420
vn -0.058001 -0.982771 -0.175493
vn -0.058001 -0.982771 -0.175493
vn -0.058001 -0.982771 -0.175493
vn -0.058001 -0.982771 -0.175493
vn -0.183750 0.705024 -0.684965
vn -0.183750 0.705024 -0.684965
vn -0.183750 0.705024 -0.684965
vn -0.183750 0.705024 -0.684965
vn 0.194567 0.784591 0.588695
vn 0.194567 0.784591 0.588695
vn 0.194567 0.784591 0.588695
vn 0.194567 0.784591 0.588695
vn -0.968498 0.000000 0.249021
vn -0.968498 0.000000 0.249021
vn -0.968498 0.000000 0.249021
vn -0.968498 0.000000 0.249021
vn -0.023684 -0.997536 -0.066035
vn -0.023684 -0.997536 -0.066035
vn -0.023684 -0.997536 -0.066035
vn -0.023684 -0.997536 -0.066035
vn 0.948365 0.000000 -0.317183
vn 0.948365 0.000000 -0.317183
vn 0.948364 0.000000 -0.317183
vn 0.948364 0.000000 -0.317183
vn -0.003409 0.999949 -0.009504
vn -0.003409 0.999949 -0.009504
vn -0.003409 0.999949 -0.009504
vn -0.003409 0.999949 -0.009504
vn 0.038067 0.473194 0.880135
vn 0.038067 0.473194 0.880135
vn 0.038067 0.473194 0.880135
vn 0.038067 0.473194 0.880135
vn -0.057867 -0.719310 -0.692275
vn -0.057867 -0.719310 -0.692275
vn -0.057867 -0.719310 -0.692275
vn -0.057867 -0.719310 -0.692275
vn -0.992376 -0.022666 0.121142
vn -0.992377 -0.022666 0.121142
vn -0.995565 0.039201 0.085515
vn -0.995420 0.063775 0.071210
vn 0.302393 0.487714 0.818959
vn 0.302393 0.487714 0.818959
vn 0.302393 0.487714 0.818959
vn 0.302393 0.487714 0.818959
vn -0.236723 -0.721748 -0.650416
vn -0.236723 -0.721748 -0.650416
vn -0.236723 -0.721748 -0.650416
vn -0.236723 -0.721748 -0.650416
vn 0.265048 0.468826 0.842586
vn 0.265048 0.468826 0.842586
vn 0.265048 0.468826 0.842586
vn 0.265048 0.468826 0.842586
vn 0.978484 0.074374 -0.192450
vn 0.978484 0.074374 -0.192450
vn 0.989570 0.016151 -0.143145
vn 0.987332 0.030827 -0.155646
vn -0.210765 -0.717059 -0.664383
vn -0.210765 -0.717059 -0.664383
vn -0.210765 -0.717059 -0.664383
vn -0.210765 -0.717059 -0.664383
vn 0.086281 0.806972 0.584253
vn 0.136639 0.800929 0.582960
vn 0.144869 0.799741 0.582604
vn 0.086281 0.806972 0.584253
vn -0.125250 -0.858478 -0.497320
vn -0.085184 -0.864729 -0.494962
vn -0.085184 -0.864729 -0.494962
vn -0.130247 -0.857597 -0.497557
vn -0.992668 0.113302 0.042112
vn -0.992668 0.113302 0.042112
vn 0.183788 0.793057 0.580761
vn 0.181593 0.793417 0.580959
vn -0.159371 -0.851656 -0.499282
vn -0.158042 -0.851899 -0.499291
vn 0.174983 0.794478 0.581537
vn 0.174983 0.794478 0.581537
vn 0.993026 -0.014335 -0.117022
vn 0.993026 -0.014335 -0.117022
vn -0.152201 -0.852947 -0.499317
vn -0.152201 -0.852946 -0.499317
vn -0.164724 -0.979982 -0.111812
vn -0.164724 -0.979982 -0.111812
vn -0.164724 -0.979982 -0.111812
vn -0.164724 -0.979982 -0.111812
vn -0.824205 -0.463223 -0.325748
vn -0.824205 -0.463223 -0.325748
vn -0.824205 -0.463223 -0.325748
vn -0.824205 -0.463223 -0.325748
vn -0.109049 -0.228189 -0.967491
vn -0.109049 -0.228189 -0.967491
vn -0.109049 -0.228189 -0.967491
vn -0.109049 -0.228189 -0.967491
vn -0.003865 -0.997417 -0.071724
vn -0.003865 -0.997417 -0.071724
vn -0.003865 -0.997417 -0.071724
vn -0.003865 -0.997417 -0.071724
vn -0.315191 -0.257730 -0.913362
vn -0.315191 -0.257730 -0.913362
vn -0.315191 -0.257730 -0.913362
vn -0.315191 -0.257730 -0.913362
vn -0.031276 -0.996929 -0.071797
vn -0.031276 -0.996929 -0.071797
vn -0.031276 -0.996929 -0.071797
vn -0.031276 -0.996929 -0.071797
vn -0.264332 -0.258044 -0.929269
vn -0.264333 -0.258044 -0.929270
vn -0.264333 -0.258044 -0.929270
vn -0.264333 -0.258044 -0.929270
vn 0.750317 -0.484014 -0.450282
vn 0.750317 -0.484014 -0.450282
vn 0.750317 -0.484014 -0.450282
vn 0.750317 -0.484014 -0.450282
s off
g pCube1
usemtl initialShadingGroup
f 1/1/1 2/2/2 4/4/3 3/3/4
f 3/3/5 4/4/6 6/6/7 5/5/8
f 33/39/9 34/40/10 35/41/11 36/42/12
f 7/7/13 8/8/14 2/10/15 1/9/16
f 2/2/17 8/11/18 6/12/19 4/4/20
f 7/13/21 1/1/22 3/3/23 5/14/24
f 5/5/25 6/6/26 10/16/27 9/15/28
f 17/23/29 18/24/30 19/25/31 20/26/32
f 8/8/33 7/7/34 12/18/35 11/17/36
f 7/7/37 5/5/38 9/15/39 12/18/40
f 6/6/41 8/8/42 14/20/43 13/19/44
f 8/8/45 11/17/46 15/21/47 14/20/48
f 35/41/49 34/40/50 37/43/51 38/44/52
f 10/16/53 6/6/54 13/19/55 16/22/56
f 21/27/57 22/28/58 23/29/59 24/30/60
f 14/20/61 15/21/62 19/25/63 18/24/64
f 38/44/65 37/43/66 39/45/67 40/46/68
f 16/22/69 13/19/70 17/23/71 20/26/72
f 13/19/73 14/20/74 22/28/75 21/27/76
f 14/20/77 18/24/78 23/29/79 22/28/80
f 18/24/81 17/23/82 24/30/83 23/29/84
f 17/23/85 13/19/86 21/27/87 24/30/88
f 9/15/89 10/16/90 26/32/91 25/31/92
f 11/17/93 12/18/94 28/34/95 27/33/96
s 1
f 12/18/97 9/15/98 25/31/99 28/34/100
s off
f 10/16/101 16/22/102 29/35/103 26/32/104
f 15/21/105 11/17/106 27/33/107 30/36/108
f 16/22/109 20/26/110 31/37/111 29/35/112
s 2
f 20/26/113 19/25/114 32/38/115 31/37/116
s off
f 19/25/117 15/21/118 30/36/119 32/38/120
s 3
f 25/31/121 26/32/122 34/40/123 33/39/124
s 4
f 42/47/125 41/48/126 43/49/127 44/50/128
s 1
f 28/34/100 25/31/99 33/39/129 36/42/130
s 3
f 26/32/122 29/35/131 37/43/132 34/40/123
s 4
f 45/51/133 42/47/125 44/50/128 46/52/134
s 3
f 29/35/131 31/37/135 39/45/136 37/43/132
s 2
f 31/37/116 32/38/115 40/46/137 39/45/138
s 4
f 47/53/139 45/51/133 46/52/134 48/54/140
s off
f 27/33/141 28/34/142 41/48/143 42/47/144
f 28/34/145 36/42/146 43/49/147 41/48/148
f 36/42/149 35/41/150 44/50/151 43/49/152
f 30/36/153 27/33/154 42/47/155 45/51/156
f 35/41/157 38/44/158 46/52/159 44/50/160
f 32/38/161 30/36/162 45/51/163 47/53/164
f 38/44/165 40/46/166 48/54/167 46/52/168
f 40/46/169 32/38/170 47/53/171 48/54/172
g default
v -0.851733 4.131391 -4.048485
v 1.490812 4.049368 -4.498631
v -0.839916 5.870064 -4.303803
v 1.502629 5.788041 -4.753948
v -0.929072 5.816359 -7.001664
v 1.141647 5.816359 -7.423505
v -0.929072 4.059001 -6.604613
v 1.141647 4.059001 -7.026454
v 1.700588 4.059001 -7.235676
v 2.263328 4.005297 -4.762995
v 1.700588 5.816359 -7.632728
v 2.275145 5.743969 -5.018312
v -1.072756 7.382393 -4.613265
v 1.630302 7.287747 -5.132686
v 1.213766 7.320423 -7.754926
v -1.175633 7.320423 -7.268166
v 2.521706 7.236892 -5.437736
v 1.858726 7.320423 -7.996346
v -1.265375 4.502367 -5.903696
v -1.225903 4.539313 -4.599098
v -1.219872 5.426698 -4.729407
v -1.265375 5.399287 -6.106342
vt 0.375000 0.000000
vt 0.625000 0.000000
vt 0.375000 0.250000
vt 0.625000 0.250000
vt 0.375000 0.500000
vt 0.625000 0.500000
vt 0.375000 0.750000
vt 0.625000 0.750000
vt 0.375000 1.000000
vt 0.625000 1.000000
vt 0.875000 0.000000
vt 0.875000 0.250000
vt 0.125000 0.000000
vt 0.125000 0.250000
vt 0.625000 0.000000
vt 0.875000 0.000000
vt 0.875000 0.250000
vt 0.625000 0.250000
vt 0.375000 0.250000
vt 0.625000 0.250000
vt 0.625000 0.500000
vt 0.375000 0.500000
vt 0.625000 0.250000
vt 0.875000 0.250000
vt 0.875000 0.250000
vt 0.125000 0.000000
vt 0.375000 0.000000
vt 0.375000 0.250000
vt 0.125000 0.250000
vn 0.191584 0.141322 0.971249
vn 0.191584 0.141322 0.971249
vn 0.191584 0.141322 0.971249
vn 0.191584 0.141322 0.971248
vn 0.017152 0.999827 -0.007238
vn 0.017152 0.999827 -0.007238
vn 0.017152 0.999827 -0.007238
vn 0.017152 0.999827 -0.007238
vn -0.194898 -0.216155 -0.956709
vn -0.194898 -0.216155 -0.956709
vn -0.194898 -0.216155 -0.956709
vn -0.194898 -0.216155 -0.956709
vn -0.015880 -0.999780 0.013674
vn -0.015880 -0.999780 0.013674
vn -0.015880 -0.999780 0.013674
vn -0.015880 -0.999780 0.013674
vn 0.974723 -0.044162 -0.219009
vn 0.974723 -0.044162 -0.219009
vn 0.974723 -0.044162 -0.219009
vn 0.974723 -0.044162 -0.219009
vn -0.999463 0.009247 0.031450
vn -0.999463 0.009247 0.031450
vn -0.999463 0.009247 0.031450
vn -0.999463 0.009247 0.031450
vn -0.035292 -0.999358 -0.006222
vn -0.035292 -0.999358 -0.006222
vn -0.035292 -0.999358 -0.006222
vn -0.035292 -0.999358 -0.006222
vn -0.342970 -0.207015 -0.916251
vn -0.342970 -0.207015 -0.916251
vn -0.342970 -0.207015 -0.916251
vn -0.342970 -0.207015 -0.916251
vn 0.038213 0.999165 0.014449
vn 0.038213 0.999165 0.014449
vn 0.038213 0.999165 0.014449
vn 0.038213 0.999165 0.014449
vn 0.327699 0.135085 0.935075
vn 0.327699 0.135085 0.935075
vn 0.327699 0.135085 0.935075
vn 0.327699 0.135085 0.935075
vn 0.191462 0.224971 0.955369
vn 0.191462 0.224971 0.955369
vn 0.191462 0.224971 0.955369
vn 0.191462 0.224971 0.955369
vn -0.195498 -0.202087 -0.959657
vn -0.195498 -0.202087 -0.959657
vn -0.195498 -0.202087 -0.959657
vn -0.195498 -0.202087 -0.959657
vn -0.987984 -0.149637 0.038678
vn -0.987984 -0.149637 0.038678
vn -0.987984 -0.149637 0.038678
vn -0.987984 -0.149637 0.038678
vn 0.327349 0.205072 0.922382
vn 0.327349 0.205072 0.922382
vn 0.327349 0.205072 0.922382
vn 0.327349 0.205072 0.922382
vn 0.953557 -0.189861 -0.233841
vn 0.953557 -0.189861 -0.233841
vn 0.953557 -0.189861 -0.233841
vn 0.953557 -0.189861 -0.233841
vn -0.344431 -0.186240 -0.920153
vn -0.344431 -0.186240 -0.920153
vn -0.344431 -0.186240 -0.920153
vn -0.344431 -0.186240 -0.920153
vn -0.763488 -0.644497 0.041353
vn -0.763488 -0.644497 0.041353
vn -0.763488 -0.644497 0.041353
vn -0.763488 -0.644497 0.041353
vn -0.789493 0.094421 0.606454
vn -0.789493 0.094421 0.606454
vn -0.789493 0.094421 0.606454
vn -0.789493 0.094421 0.606454
vn -0.765143 0.643740 0.012471
vn -0.765143 0.643740 0.012471
vn -0.765143 0.643740 0.012471
vn -0.765143 0.643740 0.012471
vn -0.918540 -0.087123 -0.385609
vn -0.918540 -0.087123 -0.385609
vn -0.918540 -0.087123 -0.385609
vn -0.918540 -0.087123 -0.385609
s off
g pCube2
usemtl initialShadingGroup
f 49/55/173 50/56/174 52/58/175 51/57/176
f 61/73/177 62/74/178 63/75/179 64/76/180
f 53/59/181 54/60/182 56/62/183 55/61/184
f 55/61/185 56/62/186 50/64/187 49/63/188
f 58/69/189 57/70/190 59/71/191 60/72/192
f 67/80/193 68/81/194 69/82/195 70/83/196
f 50/56/197 56/65/198 57/70/199 58/69/200
f 56/65/201 54/66/202 59/71/203 57/70/204
f 63/79/205 62/74/206 65/77/207 66/78/208
f 52/58/209 50/56/210 58/69/211 60/72/212
f 51/57/213 52/58/214 62/74/215 61/73/216
f 54/60/217 53/59/218 64/76/219 63/75/220
f 53/59/221 51/57/222 61/73/223 64/76/224
f 52/58/225 60/72/226 65/77/227 62/74/228
f 60/72/229 59/71/230 66/78/231 65/77/232
f 59/71/233 54/66/234 63/79/235 66/78/236
f 55/67/237 49/55/238 68/81/239 67/80/240
f 49/55/241 51/57/242 69/82/243 68/81/244
f 51/57/245 53/68/246 70/83/247 69/82/248
f 53/68/249 55/67/250 67/80/251 70/83/252
