# This file uses centimeters as units for non-parametric coordinates.

mtllib LoungingBody.mtl
g default
v -0.475112 1.022946 1.746197
v 0.261625 0.844106 1.649327
v -0.230262 1.872018 2.040839
v 0.506475 1.693177 1.943969
v -0.261625 2.127543 1.330554
v 0.475112 1.948703 1.233684
v -0.506475 1.278471 1.035912
v 0.230262 1.099631 0.939042
vt 0.375000 0.000000
vt 0.625000 0.000000
vt 0.375000 0.250000
vt 0.625000 0.250000
vt 0.375000 0.500000
vt 0.625000 0.500000
vt 0.375000 0.750000
vt 0.625000 0.750000
vt 0.375000 1.000000
vt 0.625000 1.000000
vt 0.875000 0.000000
vt 0.875000 0.250000
vt 0.125000 0.000000
vt 0.125000 0.250000
vn 0.041514 -0.338220 0.940151
vn 0.041514 -0.338220 0.940151
vn 0.041514 -0.338220 0.940151
vn 0.041514 -0.338220 0.940151
vn 0.262856 0.911512 0.316310
vn 0.262856 0.911512 0.316310
vn 0.262856 0.911512 0.316310
vn 0.262856 0.911512 0.316310
vn -0.041514 0.338220 -0.940151
vn -0.041514 0.338220 -0.940151
vn -0.041514 0.338220 -0.940151
vn -0.041514 0.338220 -0.940151
vn -0.262856 -0.911512 -0.316310
vn -0.262856 -0.911512 -0.316310
vn -0.262856 -0.911512 -0.316310
vn -0.262856 -0.911512 -0.316310
vn 0.963942 -0.233993 -0.126744
vn 0.963942 -0.233993 -0.126744
vn 0.963942 -0.233993 -0.126744
vn 0.963942 -0.233993 -0.126744
vn -0.963942 0.233993 0.126744
vn -0.963942 0.233993 0.126744
vn -0.963942 0.233993 0.126744
vn -0.963942 0.233993 0.126744
s off
g pCube1
usemtl initialShadingGroup
f 1/1/1 2/2/2 4/4/3 3/3/4
f 3/3/5 4/4/6 6/6/7 5/5/8
f 5/5/9 6/6/10 8/8/11 7/7/12
f 7/7/13 8/8/14 2/10/15 1/9/16
f 2/2/17 8/11/18 6/12/19 4/4/20
f 7/13/21 1/1/22 3/3/23 5/14/24
g default
v -0.500000 -0.341451 -0.148671
v 0.500000 -0.341451 -0.148671
v -1.071040 0.721593 1.499617
v -0.383276 -0.004029 1.478336
v -0.008147 1.751435 0.735733
v 0.679617 1.025812 0.714451
v -0.500000 0.508934 -0.674833
v 0.500000 0.508934 -0.674833
vt 0.375000 0.000000
vt 0.625000 0.000000
vt 0.375000 0.250000
vt 0.625000 0.250000
vt 0.375000 0.500000
vt 0.625000 0.500000
vt 0.375000 0.750000
vt 0.625000 0.750000
vt 0.375000 1.000000
vt 0.625000 1.000000
vt 0.875000 0.000000
vt 0.875000 0.250000
vt 0.125000 0.000000
vt 0.125000 0.250000
vn -0.383562 -0.898417 0.213838
vn -0.383561 -0.898417 0.213838
vn -0.383561 -0.898417 0.213838
vn -0.383561 -0.898417 0.213838
vn 0.345971 0.301866 0.888359
vn 0.345971 0.301866 0.888359
vn 0.345971 0.301866 0.888359
vn 0.345971 0.301866 0.888359
vn 0.321850 0.764970 -0.557882
vn 0.321850 0.764970 -0.557882
vn 0.321850 0.764971 -0.557882
vn 0.321850 0.764970 -0.557882
vn 0.000000 -0.526162 -0.850385
vn 0.000000 -0.526162 -0.850385
vn 0.000000 -0.526162 -0.850385
vn 0.000000 -0.526162 -0.850385
vn 0.904016 -0.306737 0.297771
vn 0.904016 -0.306737 0.297771
vn 0.904016 -0.306737 0.297771
vn 0.904016 -0.306737 0.297771
vn -0.905729 0.326879 -0.269825
vn -0.905729 0.326879 -0.269825
vn -0.905729 0.326879 -0.269825
vn -0.905729 0.326879 -0.269825
s off
g pCube2
usemtl initialShadingGroup
f 9/15/25 10/16/26 12/18/27 11/17/28
f 11/17/29 12/18/30 14/20/31 13/19/32
f 13/19/33 14/20/34 16/22/35 15/21/36
f 15/21/37 16/22/38 10/24/39 9/23/40
f 10/16/41 16/25/42 14/26/43 12/18/44
f 15/27/45 9/15/46 11/17/47 13/28/48
g default
v -0.500000 -0.341451 -0.666642
v 0.500000 -0.341451 -0.666642
v -0.500000 1.100795 -0.666642
v 0.500000 1.100795 -0.666642
v -0.500000 1.100795 -2.067874
v 0.500000 1.100795 -2.067874
v -0.500000 -0.341451 -2.067874
v 0.500000 -0.341451 -2.067874
vt 0.375000 0.000000
vt 0.625000 0.000000
vt 0.375000 0.250000
vt 0.625000 0.250000
vt 0.375000 0.500000
vt 0.625000 0.500000
vt 0.375000 0.750000
vt 0.625000 0.750000
vt 0.375000 1.000000
vt 0.625000 1.000000
vt 0.875000 0.000000
vt 0.875000 0.250000
vt 0.125000 0.000000
vt 0.125000 0.250000
vn 0.000000 0.000000 1.000000
vn 0.000000 0.000000 1.000000
vn 0.000000 0.000000 1.000000
vn 0.000000 0.000000 1.000000
vn 0.000000 1.000000 0.000000
vn 0.000000 1.000000 0.000000
vn 0.000000 1.000000 0.000000
vn 0.000000 1.000000 0.000000
vn 0.000000 0.000000 -1.000000
vn 0.000000 0.000000 -1.000000
vn 0.000000 0.000000 -1.000000
vn 0.000000 0.000000 -1.000000
vn 0.000000 -1.000000 0.000000
vn 0.000000 -1.000000 0.000000
vn 0.000000 -1.000000 0.000000
vn 0.000000 -1.000000 0.000000
vn 1.000000 0.000000 0.000000
vn 1.000000 0.000000 0.000000
vn 1.000000 0.000000 0.000000
vn 1.000000 0.000000 0.000000
vn -1.000000 0.000000 0.000000
vn -1.000000 0.000000 0.000000
vn -1.000000 0.000000 0.000000
vn -1.000000 0.000000 0.000000
s off
g pCube3
usemtl initialShadingGroup
f 17/29/49 18/30/50 20/32/51 19/31/52
f 19/31/53 20/32/54 22/34/55 21/33/56
f 21/33/57 22/34/58 24/36/59 23/35/60
f 23/35/61 24/36/62 18/38/63 17/37/64
f 18/30/65 24/39/66 22/40/67 20/32/68
f 23/41/69 17/29/70 19/31/71 21/42/72
g default
v 0.862519 -0.150052 1.129968
v 1.297391 -0.101201 0.933358
v 0.254634 0.846275 0.935166
v 0.679617 1.025812 0.714451
v 0.094655 0.668982 0.482912
v 0.519639 0.848518 0.262197
v 0.869919 -0.709930 0.783314
v 1.294902 -0.530393 0.562599
vt 0.375000 0.000000
vt 0.625000 0.000000
vt 0.375000 0.250000
vt 0.625000 0.250000
vt 0.375000 0.500000
vt 0.625000 0.500000
vt 0.375000 0.750000
vt 0.625000 0.750000
vt 0.375000 1.000000
vt 0.625000 1.000000
vt 0.875000 0.000000
vt 0.875000 0.250000
vt 0.125000 0.000000
vt 0.125000 0.250000
vn 0.328349 0.359703 0.873385
vn 0.328349 0.359703 0.873385
vn 0.328349 0.359703 0.873385
vn 0.328349 0.359703 0.873385
vn -0.460039 0.869821 -0.178257
vn -0.460039 0.869821 -0.178257
vn -0.460039 0.869821 -0.178257
vn -0.460039 0.869821 -0.178257
vn -0.304141 -0.362883 -0.880803
vn -0.304141 -0.362883 -0.880803
vn -0.304141 -0.362883 -0.880803
vn -0.304141 -0.362883 -0.880803
vn 0.481233 -0.513123 0.710718
vn 0.481233 -0.513123 0.710718
vn 0.481233 -0.513123 0.710718
vn 0.481233 -0.513123 0.710718
vn 0.822847 0.367618 -0.433335
vn 0.822847 0.367618 -0.433335
vn 0.822847 0.367618 -0.433335
vn 0.822847 0.367618 -0.433335
vn -0.795536 -0.361950 0.485915
vn -0.795536 -0.361950 0.485915
vn -0.795537 -0.361950 0.485915
vn -0.795536 -0.361950 0.485915
s off
g pCube4
usemtl initialShadingGroup
f 25/43/73 26/44/74 28/46/75 27/45/76
f 27/45/77 28/46/78 30/48/79 29/47/80
f 29/47/81 30/48/82 32/50/83 31/49/84
f 31/49/85 32/50/86 26/52/87 25/51/88
f 26/44/89 32/53/90 30/54/91 28/46/92
f 31/55/93 25/43/94 27/45/95 29/56/96
g default
v 0.831065 -0.627493 2.212869
v 1.221296 -0.627493 2.212869
v 0.831065 -0.237262 2.212869
v 1.221296 -0.237262 2.212869
v 0.862519 -0.150052 1.129968
v 1.297391 -0.101201 0.933358
v 0.869919 -0.709930 0.783314
v 1.294902 -0.530393 0.562599
vt 0.375000 0.000000
vt 0.625000 0.000000
vt 0.375000 0.250000
vt 0.625000 0.250000
vt 0.375000 0.500000
vt 0.625000 0.500000
vt 0.375000 0.750000
vt 0.625000 0.750000
vt 0.375000 1.000000
vt 0.625000 1.000000
vt 0.875000 0.000000
vt 0.875000 0.250000
vt 0.125000 0.000000
vt 0.125000 0.250000
vn 0.000000 0.000000 1.000000
vn 0.000000 0.000000 1.000000
vn 0.000000 0.000000 1.000000
vn 0.000000 0.000000 1.000000
vn -0.036905 0.995041 0.092362
vn -0.036905 0.995041 0.092362
vn -0.036905 0.995041 0.092362
vn -0.036905 0.995041 0.092362
vn -0.481233 0.513123 -0.710718
vn -0.481233 0.513123 -0.710718
vn -0.481233 0.513123 -0.710718
vn -0.481233 0.513123 -0.710718
vn 0.215913 -0.976407 0.003235
vn 0.215913 -0.976407 0.003235
vn 0.215913 -0.976407 0.003235
vn 0.215913 -0.976407 0.003235
vn 0.998480 -0.025208 0.049012
vn 0.998480 -0.025208 0.049012
vn 0.998480 -0.025208 0.049012
vn 0.998480 -0.025208 0.049012
vn -0.999606 0.002419 -0.027968
vn -0.999606 0.002419 -0.027968
vn -0.999606 0.002419 -0.027968
vn -0.999606 0.002419 -0.027968
s off
g pCube5
usemtl initialShadingGroup
f 33/57/97 34/58/98 36/60/99 35/59/100
f 35/59/101 36/60/102 38/62/103 37/61/104
f 37/61/105 38/62/106 40/64/107 39/63/108
f 39/63/109 40/64/110 34/66/111 33/65/112
f 34/58/113 40/67/114 38/68/115 36/60/116
f 39/69/117 33/57/118 35/59/119 37/70/120
g default
v 0.196796 -0.533861 2.574712
v 0.553994 -0.629682 2.416769
v 0.006623 0.843893 2.186809
v 0.313100 0.870066 2.039654
v -0.133010 0.763541 1.881706
v 0.173467 0.789714 1.734551
v 0.176046 -0.612353 2.160592
v 0.554868 -0.580001 1.978700
vt 0.375000 0.000000
vt 0.625000 0.000000
vt 0.375000 0.250000
vt 0.625000 0.250000
vt 0.375000 0.500000
vt 0.625000 0.500000
vt 0.375000 0.750000
vt 0.625000 0.750000
vt 0.375000 1.000000
vt 0.625000 1.000000
vt 0.875000 0.000000
vt 0.875000 0.250000
vt 0.125000 0.000000
vt 0.125000 0.250000
vn 0.424634 0.291498 0.857155
vn 0.424634 0.291498 0.857155
vn 0.424634 0.291498 0.857155
vn 0.424634 0.291498 0.857155
vn -0.168382 0.969470 -0.178257
vn -0.168382 0.969470 -0.178257
vn -0.168382 0.969470 -0.178257
vn -0.168382 0.969470 -0.178257
vn -0.398439 -0.267336 -0.877370
vn -0.398439 -0.267336 -0.877370
vn -0.398439 -0.267336 -0.877370
vn -0.398439 -0.267336 -0.877370
vn -0.069658 -0.996945 0.035330
vn -0.069658 -0.996945 0.035330
vn -0.069658 -0.996945 0.035330
vn -0.069658 -0.996945 0.035330
vn 0.967554 0.169207 -0.187637
vn 0.967554 0.169207 -0.187637
vn 0.967554 0.169207 -0.187637
vn 0.967554 0.169207 -0.187637
vn -0.963615 -0.116441 0.240598
vn -0.963615 -0.116441 0.240598
vn -0.963615 -0.116441 0.240598
vn -0.963615 -0.116441 0.240598
s off
g pCube6
usemtl initialShadingGroup
f 41/71/121 42/72/122 44/74/123 43/73/124
f 43/73/125 44/74/126 46/76/127 45/75/128
f 45/75/129 46/76/130 48/78/131 47/77/132
f 47/77/133 48/78/134 42/80/135 41/79/136
f 42/72/137 48/81/138 46/82/139 44/74/140
f 47/83/141 41/71/142 43/73/143 45/84/144
g default
v -0.074309 0.750931 2.087163
v 0.328138 0.798448 1.963299
v -0.074309 1.155523 2.242373
v 0.328138 1.203040 2.118509
v -0.166102 1.251472 2.011697
v 0.236345 1.298989 1.887833
v -0.166102 0.846880 1.856487
v 0.236345 0.894397 1.732623
v -0.101395 1.583808 2.223208
v 0.301052 1.631325 2.099344
v 0.263432 1.672200 1.992793
v -0.139015 1.624684 2.116657
vt 0.375000 0.000000
vt 0.625000 0.000000
vt 0.375000 0.250000
vt 0.625000 0.250000
vt 0.375000 0.500000
vt 0.625000 0.500000
vt 0.375000 0.750000
vt 0.625000 0.750000
vt 0.375000 1.000000
vt 0.625000 1.000000
vt 0.875000 0.000000
vt 0.875000 0.250000
vt 0.125000 0.000000
vt 0.125000 0.250000
vt 0.375000 0.250000
vt 0.625000 0.250000
vt 0.625000 0.500000
vt 0.375000 0.500000
vn 0.313075 -0.340165 0.886720
vn 0.313075 -0.340165 0.886720
vn 0.313075 -0.340165 0.886720
vn 0.313075 -0.340165 0.886720
vn 0.000000 0.933656 0.358171
vn 0.000000 0.933656 0.358171
vn 0.000000 0.933656 0.358171
vn 0.000000 0.933656 0.358171
vn -0.313075 0.340165 -0.886720
vn -0.313075 0.340165 -0.886720
vn -0.313075 0.340165 -0.886720
vn -0.313075 0.340165 -0.886720
vn -0.008193 -0.924434 -0.381254
vn -0.008193 -0.924434 -0.381254
vn -0.008193 -0.924434 -0.381254
vn -0.008193 -0.924434 -0.381254
vn 0.938607 0.123565 -0.322102
vn 0.938607 0.123565 -0.322102
vn 0.938607 0.123565 -0.322102
vn 0.938607 0.123565 -0.322102
vn -0.938607 -0.123565 0.322102
vn -0.938607 -0.123565 0.322102
vn -0.938607 -0.123565 0.322102
vn -0.938607 -0.123565 0.322102
vn 0.287035 0.060933 0.955980
vn 0.287035 0.060933 0.955980
vn 0.287035 0.060933 0.955980
vn 0.287035 0.060933 0.955980
vn 0.937898 0.036923 -0.344942
vn 0.937898 0.036923 -0.344942
vn 0.937898 0.036923 -0.344942
vn 0.937898 0.036923 -0.344942
vn -0.312399 0.278124 -0.908325
vn -0.312399 0.278124 -0.908325
vn -0.312399 0.278124 -0.908325
vn -0.312399 0.278124 -0.908325
vn -0.937897 -0.036923 0.344942
vn -0.937897 -0.036923 0.344942
vn -0.937897 -0.036923 0.344942
vn -0.937898 -0.036923 0.344942
s off
g pCube7
usemtl initialShadingGroup
f 49/85/145 50/86/146 52/88/147 51/87/148
f 57/99/149 58/100/150 59/101/151 60/102/152
f 53/89/153 54/90/154 56/92/155 55/91/156
f 55/91/157 56/92/158 50/94/159 49/93/160
f 50/86/161 56/95/162 54/96/163 52/88/164
f 55/97/165 49/85/166 51/87/167 53/98/168
f 51/87/169 52/88/170 58/100/171 57/99/172
f 52/88/173 54/90/174 59/101/175 58/100/176
f 54/90/177 53/89/178 60/102/179 59/101/180
f 53/89/181 51/87/182 57/99/183 60/102/184
g default
v 0.501534 0.444311 -1.425618
v 2.245688 0.056981 -1.825693
v 0.640428 1.078636 -1.434216
v 2.384583 0.691306 -1.834292
v 0.500000 1.100795 -2.067874
v 2.244154 0.713465 -2.467950
v 0.361106 0.466470 -2.059276
v 2.105260 0.079140 -2.459352
vt 0.375000 0.000000
vt 0.625000 0.000000
vt 0.375000 0.250000
vt 0.625000 0.250000
vt 0.375000 0.500000
vt 0.625000 0.500000
vt 0.375000 0.750000
vt 0.625000 0.750000
vt 0.375000 1.000000
vt 0.625000 1.000000
vt 0.875000 0.000000
vt 0.875000 0.250000
vt 0.125000 0.000000
vt 0.125000 0.250000
vn 0.216239 -0.034122 0.975744
vn 0.216239 -0.034122 0.975744
vn 0.216239 -0.034122 0.975744
vn 0.216239 -0.034122 0.975744
vn 0.213878 0.976771 -0.013240
vn 0.213878 0.976771 -0.013240
vn 0.213878 0.976771 -0.013240
vn 0.213878 0.976771 -0.013240
vn -0.216239 0.034122 -0.975744
vn -0.216239 0.034122 -0.975744
vn -0.216239 0.034122 -0.975744
vn -0.216239 0.034122 -0.975744
vn -0.213878 -0.976771 0.013240
vn -0.213878 -0.976771 0.013240
vn -0.213878 -0.976771 0.013240
vn -0.213878 -0.976771 0.013240
vn 0.952626 -0.211553 -0.218514
vn 0.952626 -0.211553 -0.218514
vn 0.952626 -0.211553 -0.218514
vn 0.952626 -0.211553 -0.218514
vn -0.952626 0.211553 0.218514
vn -0.952626 0.211553 0.218514
vn -0.952626 0.211553 0.218514
vn -0.952626 0.211553 0.218514
s off
g pCube8
usemtl initialShadingGroup
f 61/103/185 62/104/186 64/106/187 63/105/188
f 63/105/189 64/106/190 66/108/191 65/107/192
f 65/107/193 66/108/194 68/110/195 67/109/196
f 67/109/197 68/110/198 62/112/199 61/111/200
f 62/104/201 68/113/202 66/114/203 64/106/204
f 67/115/205 61/103/206 63/105/207 65/116/208
g default
v 0.149377 -0.344386 -2.061991
v 0.166077 -0.318609 -3.892624
v 0.152229 0.304953 -2.052822
v 0.168929 0.330730 -3.883455
v -0.497148 0.307888 -2.058705
v -0.480448 0.333665 -3.889338
v -0.500000 -0.341451 -2.067874
v -0.483300 -0.315674 -3.898507
vt 0.375000 0.000000
vt 0.625000 0.000000
vt 0.375000 0.250000
vt 0.625000 0.250000
vt 0.375000 0.500000
vt 0.625000 0.500000
vt 0.375000 0.750000
vt 0.625000 0.750000
vt 0.375000 1.000000
vt 0.625000 1.000000
vt 0.875000 0.000000
vt 0.875000 0.250000
vt 0.125000 0.000000
vt 0.125000 0.250000
vn 0.999949 -0.004520 0.009058
vn 0.999949 -0.004520 0.009058
vn 0.999949 -0.004520 0.009058
vn 0.999949 -0.004520 0.009058
vn 0.004392 0.999891 0.014119
vn 0.004392 0.999891 0.014119
vn 0.004392 0.999891 0.014119
vn 0.004392 0.999891 0.014119
vn -0.999949 0.004520 -0.009058
vn -0.999949 0.004520 -0.009058
vn -0.999949 0.004520 -0.009058
vn -0.999949 0.004520 -0.009058
vn -0.004392 -0.999891 -0.014119
vn -0.004392 -0.999891 -0.014119
vn -0.004392 -0.999891 -0.014119
vn -0.004392 -0.999891 -0.014119
vn 0.009121 0.014079 -0.999859
vn 0.009121 0.014079 -0.999859
vn 0.009121 0.014079 -0.999859
vn 0.009121 0.014079 -0.999859
vn -0.009121 -0.014079 0.999859
vn -0.009121 -0.014079 0.999859
vn -0.009121 -0.014079 0.999859
vn -0.009121 -0.014079 0.999859
s off
g pCube9
usemtl initialShadingGroup
f 69/117/209 70/118/210 72/120/211 71/119/212
f 71/119/213 72/120/214 74/122/215 73/121/216
f 73/121/217 74/122/218 76/124/219 75/123/220
f 75/123/221 76/124/222 70/126/223 69/125/224
f 70/118/225 76/127/226 74/128/227 72/120/228
f 75/129/229 69/117/230 71/119/231 73/130/232
g default
v 0.166077 -0.318610 -3.892624
v -0.219283 -0.166608 -5.483918
v 0.168929 0.330730 -3.883455
v -0.217535 0.231418 -5.478297
v -0.480448 0.333665 -3.889337
v -0.615584 0.233217 -5.481903
v -0.483300 -0.315674 -3.898507
v -0.617332 -0.164809 -5.487524
vt 0.375000 0.000000
vt 0.625000 0.000000
vt 0.375000 0.250000
vt 0.625000 0.250000
vt 0.375000 0.500000
vt 0.625000 0.500000
vt 0.375000 0.750000
vt 0.625000 0.750000
vt 0.375000 1.000000
vt 0.625000 1.000000
vt 0.875000 0.000000
vt 0.875000 0.250000
vt 0.125000 0.000000
vt 0.125000 0.250000
vn 0.971886 -0.000944 -0.235449
vn 0.971886 -0.000944 -0.235449
vn 0.971886 -0.000944 -0.235449
vn 0.971886 -0.000944 -0.235449
vn 0.005085 0.997977 -0.063377
vn 0.005085 0.997977 -0.063377
vn 0.005085 0.997977 -0.063377
vn 0.005085 0.997977 -0.063377
vn -0.996431 0.003186 0.084350
vn -0.996431 0.003186 0.084350
vn -0.996431 0.003186 0.084350
vn -0.996431 0.003186 0.084350
vn -0.003647 -0.995546 -0.094212
vn -0.003647 -0.995546 -0.094212
vn -0.003647 -0.995545 -0.094212
vn -0.003647 -0.995546 -0.094212
vn 0.009121 0.014079 -0.999859
vn 0.009121 0.014079 -0.999859
vn 0.009121 0.014079 -0.999859
vn 0.009121 0.014079 -0.999859
vn -0.009122 -0.014079 0.999859
vn -0.009122 -0.014079 0.999859
vn -0.009122 -0.014079 0.999859
vn -0.009122 -0.014079 0.999859
s off
g pCube10
usemtl initialShadingGroup
f 77/131/233 78/132/234 80/134/235 79/133/236
f 79/133/237 80/134/238 82/136/239 81/135/240
f 81/135/241 82/136/242 84/138/243 83/137/244
f 83/137/245 84/138/246 78/140/247 77/139/248
f 78/132/249 84/141/250 82/142/251 80/134/252
f 83/143/253 77/131/254 79/133/255 81/144/256
g default
v 2.103039 0.080228 -2.439123
v 1.354764 0.312256 -3.884830
v 2.244155 0.713465 -2.467950
v 1.441264 0.700412 -3.902501
v 1.631497 0.857293 -2.307643
v 1.065723 0.788574 -3.804237
v 1.490381 0.224056 -2.278816
v 0.979223 0.400419 -3.786567
vt 0.375000 0.000000
vt 0.625000 0.000000
vt 0.375000 0.250000
vt 0.625000 0.250000
vt 0.375000 0.500000
vt 0.625000 0.500000
vt 0.375000 0.750000
vt 0.625000 0.750000
vt 0.375000 1.000000
vt 0.625000 1.000000
vt 0.875000 0.000000
vt 0.875000 0.250000
vt 0.125000 0.000000
vt 0.125000 0.250000
vn 0.853631 -0.211892 -0.475833
vn 0.853630 -0.211892 -0.475833
vn 0.853631 -0.211892 -0.475833
vn 0.853631 -0.211892 -0.475833
vn 0.197239 0.973077 -0.119244
vn 0.197239 0.973076 -0.119244
vn 0.197239 0.973076 -0.119244
vn 0.197239 0.973077 -0.119244
vn -0.915888 0.219408 0.336169
vn -0.915888 0.219408 0.336169
vn -0.915888 0.219408 0.336169
vn -0.915888 0.219408 0.336169
vn -0.236680 -0.971015 -0.033341
vn -0.236680 -0.971016 -0.033341
vn -0.236680 -0.971015 -0.033341
vn -0.236680 -0.971016 -0.033341
vn -0.250534 0.011763 -0.968036
vn -0.250534 0.011763 -0.968036
vn -0.250534 0.011763 -0.968036
vn -0.250534 0.011763 -0.968036
vn 0.250534 -0.011763 0.968036
vn 0.250534 -0.011763 0.968036
vn 0.250534 -0.011763 0.968036
vn 0.250534 -0.011763 0.968036
s off
g pCube11
usemtl initialShadingGroup
f 85/145/257 86/146/258 88/148/259 87/147/260
f 87/147/261 88/148/262 90/150/263 89/149/264
f 89/149/265 90/150/266 92/152/267 91/151/268
f 91/151/269 92/152/270 86/154/271 85/153/272
f 86/146/273 92/155/274 90/156/275 88/148/276
f 91/157/277 85/145/278 87/147/279 89/158/280
