# This file uses centimeters as units for non-parametric coordinates.

mtllib Mineral.mtl
g default
v -3.408922 -2.982672 0.038209
v 0.408490 -2.982672 0.038209
v -3.408922 -0.214667 0.038209
v 0.408490 -0.214667 0.038209
v -3.408922 -0.214667 -2.909675
v 0.408490 -0.214667 -2.909675
v -3.408922 -2.982672 -2.909675
v 0.408490 -2.982672 -2.909675
vt 0.375000 0.000000
vt 0.625000 0.000000
vt 0.375000 0.250000
vt 0.625000 0.250000
vt 0.375000 0.500000
vt 0.625000 0.500000
vt 0.375000 0.750000
vt 0.625000 0.750000
vt 0.375000 1.000000
vt 0.625000 1.000000
vt 0.875000 0.000000
vt 0.875000 0.250000
vt 0.125000 0.000000
vt 0.125000 0.250000
vn 0.000000 0.000000 1.000000
vn 0.000000 0.000000 1.000000
vn 0.000000 0.000000 1.000000
vn 0.000000 0.000000 1.000000
vn 0.000000 1.000000 0.000000
vn 0.000000 1.000000 0.000000
vn 0.000000 1.000000 0.000000
vn 0.000000 1.000000 0.000000
vn 0.000000 0.000000 -1.000000
vn 0.000000 0.000000 -1.000000
vn 0.000000 0.000000 -1.000000
vn 0.000000 0.000000 -1.000000
vn 0.000000 -1.000000 0.000000
vn 0.000000 -1.000000 0.000000
vn 0.000000 -1.000000 0.000000
vn 0.000000 -1.000000 0.000000
vn 1.000000 0.000000 0.000000
vn 1.000000 0.000000 0.000000
vn 1.000000 0.000000 0.000000
vn 1.000000 0.000000 0.000000
vn -1.000000 0.000000 0.000000
vn -1.000000 0.000000 0.000000
vn -1.000000 0.000000 0.000000
vn -1.000000 0.000000 0.000000
s off
g pCube2
usemtl initialShadingGroup
f 1/1/1 2/2/2 4/4/3 3/3/4
f 3/3/5 4/4/6 6/6/7 5/5/8
f 5/5/9 6/6/10 8/8/11 7/7/12
f 7/7/13 8/8/14 2/10/15 1/9/16
f 2/2/17 8/11/18 6/12/19 4/4/20
f 7/13/21 1/1/22 3/3/23 5/14/24
g default
v -0.952582 -1.744219 0.628071
v 0.952582 -1.744219 0.628071
v -0.952582 1.744219 0.628071
v 0.952582 1.744219 0.628071
v -0.952582 1.744219 -0.961229
v 0.952582 1.744219 -0.961229
v -0.952582 -1.744219 -0.961229
v 0.952582 -1.744219 -0.961229
v -3.917775 -1.744219 -0.961229
v -3.917775 -1.744219 0.628071
v -3.917775 1.744219 0.628071
v -3.917775 1.744219 -0.961229
v -0.952582 1.744219 -3.760794
v 0.952582 1.744219 -3.760794
v 0.952582 -0.224559 -3.760794
v -0.952582 -0.224559 -3.760794
v -3.917775 -0.224559 -3.760794
v -3.917775 1.744219 -3.760794
v -0.952582 2.828435 0.628071
v -0.952582 2.828435 -0.961229
v -3.917775 2.828435 -0.961229
v -3.917775 2.828435 0.628071
v 0.952582 2.828435 -0.961229
v 0.952582 2.828435 -3.760794
v -0.952582 2.828435 -3.760794
v -3.917775 1.969372 -3.760794
v -3.917775 2.828435 -2.927886
v -3.917775 1.744219 -2.927886
v -3.917775 -0.676678 -2.927886
v -0.952582 -0.676678 -2.927886
v 0.952582 -0.676678 -2.927886
v 0.952582 1.744219 -2.927886
v 0.952582 2.828435 -2.927886
v -0.952582 2.828435 -2.927886
v -2.845835 2.828435 -3.760794
v -2.845835 2.828435 -2.927886
v -2.845835 2.828435 -0.961229
v -2.845835 2.828435 0.628071
v -2.845835 1.744219 0.628071
v -2.845835 -1.744219 0.628071
v -2.845835 -1.744219 -0.961229
v -2.845835 -0.676678 -2.927886
v -2.845835 -0.224559 -3.760794
v -2.845835 1.744218 -3.760794
v 0.952582 -0.612456 -3.046199
v 0.952582 1.744218 -3.046199
v 0.952582 2.828435 -3.046199
v -0.952582 2.828435 -3.046199
v -2.845835 2.828435 -3.046199
v -3.917775 1.969372 -3.046199
v -3.917775 1.744218 -3.046199
v -3.917775 -0.612456 -3.046199
v -2.845835 -0.612456 -3.046199
v -0.952582 -0.612456 -3.046199
v -2.959707 1.969372 -3.760794
v -2.845835 1.969372 -2.927886
v -2.959707 2.828435 -2.927886
v -2.959707 2.828435 -0.961229
v -2.959707 2.828435 0.628071
v -2.959707 1.744219 0.628071
v -2.959707 -1.744219 0.628071
v -2.959707 -1.744219 -0.961229
v -2.959707 -0.676678 -2.927886
v -2.959707 -0.612456 -3.046199
v -2.959707 -0.224559 -3.760794
v -2.959707 1.744218 -3.760794
vt 0.375000 0.000000
vt 0.625000 0.000000
vt 0.375000 0.250000
vt 0.625000 0.250000
vt 0.375000 0.500000
vt 0.625000 0.500000
vt 0.375000 0.750000
vt 0.625000 0.750000
vt 0.375000 1.000000
vt 0.625000 1.000000
vt 0.875000 0.000000
vt 0.875000 0.250000
vt 0.125000 0.000000
vt 0.125000 0.250000
vt 0.125000 0.000000
vt 0.375000 0.000000
vt 0.375000 0.250000
vt 0.125000 0.250000
vt 0.375000 0.500000
vt 0.625000 0.500000
vt 0.625000 0.750000
vt 0.375000 0.750000
vt 0.125000 0.000000
vt 0.125000 0.000000
vt 0.125000 0.250000
vt 0.125000 0.250000
vt 0.375000 0.250000
vt 0.125000 0.250000
vt 0.125000 0.250000
vt 0.375000 0.250000
vt 0.375000 0.500000
vt 0.625000 0.500000
vt 0.625000 0.500000
vt 0.375000 0.500000
vt 0.125000 0.250000
vt 0.125000 0.250000
vt 0.125000 0.250000
vt 0.125000 0.250000
vt 0.125000 0.000000
vt 0.375000 0.750000
vt 0.125000 0.000000
vt 0.625000 0.750000
vt 0.625000 0.500000
vt 0.625000 0.500000
vt 0.125000 0.250000
vt 0.375000 0.500000
vt 0.125000 0.250000
vt 0.125000 0.250000
vt 0.125000 0.250000
vt 0.375000 0.250000
vt 0.375000 0.250000
vt 0.375000 0.000000
vt 0.125000 0.000000
vt 0.125000 0.000000
vt 0.125000 0.000000
vt 0.125000 0.250000
vt 0.625000 0.750000
vt 0.625000 0.500000
vt 0.625000 0.500000
vt 0.125000 0.250000
vt 0.375000 0.500000
vt 0.125000 0.250000
vt 0.125000 0.250000
vt 0.125000 0.250000
vt 0.125000 0.000000
vt 0.125000 0.000000
vt 0.375000 0.750000
vt 0.125000 0.000000
vt 0.125000 0.250000
vt 0.125000 0.250000
vt 0.125000 0.250000
vt 0.125000 0.250000
vt 0.375000 0.250000
vt 0.375000 0.250000
vt 0.375000 0.000000
vt 0.125000 0.000000
vt 0.125000 0.000000
vt 0.125000 0.000000
vt 0.125000 0.000000
vt 0.125000 0.250000
vn 0.000000 0.000000 1.000000
vn 0.000000 0.000000 1.000000
vn 0.000000 0.000000 1.000000
vn 0.000000 0.000000 1.000000
vn 0.000000 1.000000 0.000000
vn 0.000000 1.000000 0.000000
vn 0.000000 1.000000 0.000000
vn 0.000000 1.000000 0.000000
vn 0.000000 0.000000 -1.000000
vn 0.000000 0.000000 -1.000000
vn 0.000000 0.000000 -1.000000
vn 0.000000 0.000000 -1.000000
vn 0.000000 -1.000000 0.000000
vn 0.000000 -1.000000 0.000000
vn 0.000000 -1.000000 0.000000
vn 0.000000 -1.000000 0.000000
vn 1.000000 0.000000 0.000000
vn 1.000000 0.000000 0.000000
vn 1.000000 0.000000 0.000000
vn 1.000000 0.000000 0.000000
vn -1.000000 0.000000 0.000000
vn -1.000000 0.000000 0.000000
vn -1.000000 0.000000 0.000000
vn -1.000000 0.000000 0.000000
vn 0.000000 -1.000000 0.000000
vn 0.000000 -1.000000 0.000000
vn 0.000000 -1.000000 0.000000
vn 0.000000 -1.000000 0.000000
vn 0.000000 0.000000 1.000000
vn 0.000000 0.000000 1.000000
vn 0.000000 0.000000 1.000000
vn 0.000000 0.000000 1.000000
vn 0.000000 1.000000 0.000000
vn 0.000000 1.000000 0.000000
vn 0.000000 1.000000 0.000000
vn 0.000000 1.000000 0.000000
vn -0.000000 0.000000 -1.000000
vn -0.000000 0.000000 -1.000000
vn -0.000000 0.000000 -1.000000
vn -0.000000 0.000000 -1.000000
vn 0.000000 1.000000 0.000000
vn 0.000000 1.000000 0.000000
vn 0.000000 1.000000 0.000000
vn 0.000000 1.000000 0.000000
vn 1.000000 0.000000 0.000000
vn 1.000000 0.000000 0.000000
vn 1.000000 0.000000 0.000000
vn 1.000000 0.000000 0.000000
vn 0.000000 -0.878867 -0.477067
vn 0.000000 -0.878867 -0.477067
vn 0.000000 -0.878867 -0.477067
vn 0.000000 -0.878867 -0.477067
vn 0.000000 -0.878867 -0.477067
vn 0.000000 -0.878867 -0.477067
vn 0.000000 -0.878867 -0.477067
vn 0.000000 -0.878867 -0.477067
vn -1.000000 0.000000 0.000000
vn -1.000000 0.000000 0.000000
vn -1.000000 0.000000 0.000000
vn -1.000000 0.000000 0.000000
vn 0.000000 1.000000 0.000000
vn 0.000000 1.000000 0.000000
vn 0.000000 1.000000 0.000000
vn -0.012181 0.999857 -0.011724
vn 1.000000 0.000000 0.000000
vn 1.000000 0.000000 0.000000
vn 1.000000 0.000000 0.000000
vn 1.000000 0.000000 0.000000
vn -1.000000 0.000000 0.000000
vn -1.000000 0.000000 0.000000
vn -1.000000 0.000000 0.000000
vn -1.000000 0.000000 0.000000
vn 0.000000 0.000000 1.000000
vn 0.000000 0.000000 1.000000
vn 0.000000 0.000000 1.000000
vn 0.000000 0.000000 1.000000
vn 0.000000 0.000000 1.000000
vn 0.000000 0.000000 1.000000
vn 0.000000 0.000000 1.000000
vn 0.000000 0.000000 1.000000
vn 1.000000 0.000000 0.000000
vn 1.000000 0.000000 0.000000
vn 1.000000 0.000000 0.000000
vn 1.000000 0.000000 0.000000
vn 0.000000 0.000000 -1.000000
vn 0.000000 0.000000 -1.000000
vn 0.000000 0.000000 -1.000000
vn 0.000000 0.000000 -1.000000
vn 0.000000 0.000000 -1.000000
vn -0.000000 0.000000 -1.000000
vn -0.000000 0.000000 -1.000000
vn 0.000000 0.000000 -1.000000
vn -1.000000 0.000000 0.000000
vn -1.000000 0.000000 0.000000
vn -1.000000 0.000000 0.000000
vn -1.000000 0.000000 0.000000
vn -1.000000 0.000000 0.000000
vn -1.000000 0.000000 0.000000
vn -1.000000 0.000000 0.000000
vn -1.000000 0.000000 0.000000
vn 0.000000 -0.878867 -0.477067
vn 0.000000 -0.878867 -0.477067
vn 0.000000 -0.878867 -0.477067
vn 0.000000 -0.878867 -0.477067
vn 1.000000 0.000000 0.000000
vn 1.000000 0.000000 0.000000
vn 1.000000 0.000000 0.000000
vn 1.000000 0.000000 0.000000
vn 0.000000 1.000000 0.000000
vn 0.000000 1.000000 0.000000
vn 0.000000 1.000000 0.000000
vn -0.427008 0.904236 0.004733
vn 0.003566 0.910293 -0.413949
vn -0.466146 0.625836 -0.625329
vn 0.000000 1.000000 0.000000
vn 0.000000 1.000000 0.000000
vn 0.000000 1.000000 0.000000
vn 0.000000 0.000000 1.000000
vn 0.000000 0.000000 1.000000
vn 0.000000 0.000000 1.000000
vn 0.000000 0.000000 1.000000
vn 0.000000 -1.000000 0.000000
vn 0.000000 -1.000000 0.000000
vn 0.000000 -0.878867 -0.477067
vn 0.000000 -0.878867 -0.477067
vn 0.000000 -0.878867 -0.477067
vn 0.000000 0.000000 -1.000000
vn 0.000000 0.000000 -1.000000
vn -0.000001 0.000000 -1.000000
vn -0.000001 0.000000 -1.000000
vn 1.000000 0.000000 0.000000
vn 1.000000 0.000000 0.000000
vn 1.000000 0.000000 0.000000
vn 1.000000 0.000000 0.000000
vn 0.000000 1.000000 0.000000
vn 0.000000 1.000000 0.000000
vn 0.000000 1.000000 0.000000
vn -0.428604 0.902942 0.031538
vn -0.590642 0.805762 0.043462
vn -1.000000 0.000000 0.000000
vn -1.000000 0.000000 0.000000
vn -1.000000 0.000000 0.000000
vn -1.000000 0.000000 0.000000
vn 0.000000 -0.878867 -0.477067
vn 0.000000 -0.878867 -0.477067
vn 0.000000 -0.878867 -0.477067
vn 0.000000 -0.878867 -0.477067
vn 0.000000 -0.878867 -0.477067
vn 0.040332 0.720761 -0.692009
vn 0.000000 1.000000 -0.000000
vn 0.023809 0.912445 -0.408506
vn 0.000000 1.000000 0.000000
vn 0.000000 1.000000 0.000000
vn 0.000000 1.000000 0.000000
vn 0.000000 0.000000 1.000000
vn 0.000000 0.000000 1.000000
vn 0.000000 0.000000 1.000000
vn 0.000000 0.000000 1.000000
vn 0.000000 -1.000000 0.000000
vn 0.000000 -1.000000 0.000000
vn 0.000000 -0.878867 -0.477067
vn 0.000000 -0.878867 -0.477067
vn 0.000000 -0.878867 -0.477067
vn 0.000000 -0.878867 -0.477067
vn 0.000000 0.000000 -1.000000
vn 0.000000 0.000000 -1.000000
vn 0.000000 0.000000 -1.000000
vn 0.000000 0.000000 -1.000000
s off
g pCube1
usemtl initialShadingGroup
f 9/15/25 10/16/26 12/18/27 11/17/28
f 11/17/29 12/18/30 14/20/31 13/19/32
f 21/33/33 22/34/34 23/35/35 24/36/36
f 15/21/37 16/22/38 10/24/39 9/23/40
f 10/16/41 16/25/42 14/26/43 12/18/44
f 17/29/45 18/30/46 19/31/47 20/32/48
s 1
f 15/27/49 9/15/50 48/66/51 49/67/52
s 2
f 9/15/53 11/17/54 47/65/55 48/66/56
s 3
f 27/41/57 28/42/58 45/63/59 46/64/60
s 4
f 21/40/61 24/37/62 51/69/63 52/70/64
s 5
f 28/45/65 31/46/66 41/58/67 42/60/68
s 6
f 14/20/69 16/22/70 39/56/71 40/57/72
s 7
f 16/22/73 15/21/74 38/54/75 39/56/76
s 8
f 15/27/77 49/67/78 50/68/79 38/55/80
s 9
f 17/29/81 20/32/82 36/52/83 37/53/84
s 10
f 45/63/85 28/42/86 42/59/87 44/62/88
s off
f 11/17/89 13/28/90 28/42/91 27/41/92
f 20/32/93 19/31/94 30/44/95 29/43/96
s 11
f 47/65/97 11/17/98 27/41/99 46/64/100
s off
f 13/19/101 14/20/102 31/46/103 28/45/104
s 12
f 14/20/105 40/57/106 41/58/107 31/46/108
s off
f 22/34/109 21/33/110 33/48/111 32/47/112
s 13
f 21/40/113 52/70/114 43/61/115 33/49/116
s 14
f 36/52/117 20/32/118 29/43/119 35/51/120
f 59/78/121 36/52/117 35/51/120 58/77/122
s 9
f 37/53/84 36/52/83 59/78/123 60/79/124
s 8
f 38/55/80 50/68/79 61/80/125 62/82/126
s 7
f 39/56/76 38/54/75 62/81/127 53/71/128
s 6
f 40/57/72 39/56/71 53/71/129 54/72/130
s 12
f 41/58/107 40/57/106 54/72/131 55/73/132
s 5
f 42/60/68 41/58/67 55/73/133 56/75/134
s 10
f 44/62/88 42/59/87 56/74/135 57/76/136
f 65/85/137 44/62/88 57/76/136 64/84/138
f 66/86/139 45/63/85 44/62/88 65/85/137
s 3
f 46/64/60 45/63/59 66/86/140 67/87/141
s 11
f 68/88/142 47/65/97 46/64/100 67/87/143
s 2
f 48/66/56 47/65/55 68/88/144 69/89/145
s 1
f 49/67/52 48/66/51 69/89/146 70/90/147
s 8
f 50/68/79 49/67/78 70/90/148 71/91/149
f 61/80/125 50/68/79 71/91/149 72/92/150
s 4
f 52/70/64 51/69/63 73/93/151 74/94/152
s 13
f 43/61/115 52/70/114 74/94/153 63/83/154
s 6
f 54/72/130 53/71/129 23/35/155 22/34/156
s 12
f 55/73/132 54/72/131 22/34/157 32/47/158
s 5
f 56/75/134 55/73/133 32/47/159 33/48/160
s 10
f 57/76/136 56/74/135 33/49/161 43/61/162
f 64/84/138 57/76/136 43/61/162 63/83/163
s 14
f 26/39/164 59/78/121 58/77/122 34/50/165
s 9
f 60/79/124 59/78/123 26/39/166 25/38/167
s 8
f 51/69/168 61/80/125 72/92/150 73/93/169
f 62/82/126 61/80/125 51/69/168 24/37/170
s 7
f 53/71/128 62/81/127 24/36/171 23/35/172
s 10
f 58/77/173 64/84/138 63/83/163 34/50/174
f 35/51/175 65/85/137 64/84/138 58/77/173
f 29/43/176 66/86/139 65/85/137 35/51/175
s 3
f 67/87/141 66/86/140 29/43/177 30/44/178
s 11
f 19/31/179 68/88/142 67/87/143 30/44/180
s 2
f 69/89/145 68/88/144 19/31/181 18/30/182
s 1
f 70/90/147 69/89/146 18/30/183 17/29/184
s 8
f 71/91/149 70/90/148 17/29/185 37/53/186
f 72/92/150 71/91/149 37/53/186 60/79/187
f 73/93/169 72/92/150 60/79/187 25/38/188
s 4
f 74/94/152 73/93/151 25/38/189 26/39/190
s 13
f 63/83/154 74/94/153 26/39/191 34/50/192
g default
v -3.372339 -0.974056 1.797005
v -2.588607 -0.622215 1.516321
v -3.247100 0.069817 1.585527
v -1.813141 -0.159087 1.304843
v -3.492938 -0.123233 0.487026
v -2.058979 -0.352137 0.206341
v -3.618178 -1.167106 0.698503
v -2.184219 -1.396010 0.417819
v -4.389868 -1.015268 0.698503
v -4.144030 -0.822218 1.797005
v -4.018790 0.221655 1.585527
v -4.264627 0.028605 0.487025
v -3.247099 0.768140 1.460449
v -3.492938 0.535090 0.378941
v -4.264627 0.604204 0.378940
v -4.018790 0.827909 1.460449
v -5.400591 -0.884111 0.761434
v -5.249114 -0.686793 1.876122
v -5.105927 0.356242 1.672030
v -5.257402 0.158924 0.557341
vt 0.375000 0.000000
vt 0.625000 0.000000
vt 0.375000 0.250000
vt 0.625000 0.250000
vt 0.375000 0.500000
vt 0.625000 0.500000
vt 0.375000 0.750000
vt 0.625000 0.750000
vt 0.375000 1.000000
vt 0.625000 1.000000
vt 0.875000 0.000000
vt 0.875000 0.250000
vt 0.125000 0.000000
vt 0.125000 0.250000
vt 0.125000 0.000000
vt 0.375000 0.000000
vt 0.375000 0.250000
vt 0.125000 0.250000
vt 0.375000 0.250000
vt 0.125000 0.250000
vt 0.125000 0.250000
vt 0.375000 0.250000
vt 0.125000 0.000000
vt 0.375000 0.000000
vt 0.375000 0.250000
vt 0.125000 0.250000
vn 0.236628 0.128853 0.963018
vn 0.236628 0.128853 0.963018
vn 0.236628 0.128853 0.963018
vn 0.236628 0.128853 0.963018
vn 0.116783 0.973383 -0.197197
vn 0.116783 0.973383 -0.197197
vn 0.116783 0.973383 -0.197197
vn 0.116783 0.973383 -0.197197
vn -0.215250 -0.169030 -0.961819
vn -0.215250 -0.169030 -0.961819
vn -0.215250 -0.169030 -0.961819
vn -0.215250 -0.169030 -0.961819
vn 0.153009 -0.900394 0.407283
vn 0.153009 -0.900394 0.407283
vn 0.153009 -0.900394 0.407283
vn 0.153009 -0.900394 0.407283
vn 0.859660 -0.441821 0.256473
vn 0.859660 -0.441821 0.256473
vn 0.859660 -0.441821 0.256473
vn 0.859660 -0.441821 0.256473
vn -0.982132 0.155554 0.105927
vn -0.982132 0.155554 0.105927
vn -0.982131 0.155554 0.105927
vn -0.982131 0.155554 0.105927
vn -0.188721 -0.959141 0.210793
vn -0.188721 -0.959141 0.210793
vn -0.146988 -0.968533 0.200846
vn -0.139456 -0.970023 0.199017
vn 0.038174 0.194010 0.980257
vn 0.038174 0.194010 0.980257
vn 0.072851 0.187209 0.979615
vn 0.071740 0.187431 0.979655
vn 0.081111 0.971313 -0.223545
vn 0.081111 0.971313 -0.223545
vn 0.081111 0.971313 -0.223545
vn 0.081111 0.971313 -0.223545
vn -0.038173 -0.194010 -0.980257
vn -0.038173 -0.194010 -0.980257
vn -0.066314 -0.188260 -0.979878
vn -0.067439 -0.188027 -0.979846
vn 0.976355 -0.036616 -0.213049
vn 0.976355 -0.036616 -0.213049
vn 0.976355 -0.036616 -0.213049
vn 0.976355 -0.036616 -0.213049
vn -0.024696 -0.172509 -0.984698
vn -0.024696 -0.172509 -0.984698
vn -0.024696 -0.172509 -0.984698
vn -0.024696 -0.172509 -0.984698
vn -0.976330 0.041864 0.212196
vn -0.976330 0.041864 0.212196
vn -0.976330 0.041864 0.212196
vn -0.976330 0.041864 0.212196
vn 0.025811 0.188259 0.981780
vn 0.025811 0.188259 0.981780
vn 0.025811 0.188259 0.981780
vn 0.025811 0.188259 0.981780
vn -0.110003 -0.975256 0.191766
vn -0.110003 -0.975257 0.191766
vn 0.096395 0.182447 0.978479
vn 0.096395 0.182447 0.978479
vn 0.109761 0.975291 -0.191729
vn 0.109761 0.975291 -0.191729
vn 0.109761 0.975291 -0.191729
vn 0.109761 0.975291 -0.191729
vn -0.089056 -0.183491 -0.978979
vn -0.089056 -0.183491 -0.978979
s off
g pCube3
usemtl initialShadingGroup
f 75/95/193 76/96/194 78/98/195 77/97/196
f 77/97/197 78/98/198 80/100/199 79/99/200
f 79/99/201 80/100/202 82/102/203 81/101/204
f 81/101/205 82/102/206 76/104/207 75/103/208
f 76/96/209 82/105/210 80/106/211 78/98/212
f 91/117/213 92/118/214 93/119/215 94/120/216
s 1
f 81/107/217 75/95/218 84/110/219 83/109/220
s 2
f 75/95/221 77/97/222 85/111/223 84/110/224
s off
f 87/113/225 88/114/226 89/115/227 90/116/228
s 3
f 79/108/229 81/107/230 83/109/231 86/112/232
s off
f 77/97/233 79/108/234 88/114/235 87/113/236
f 79/108/237 86/112/238 89/115/239 88/114/240
f 86/112/241 85/111/242 90/116/243 89/115/244
f 85/111/245 77/97/246 87/113/247 90/116/248
s 1
f 83/109/220 84/110/219 92/118/249 91/117/250
s 2
f 84/110/224 85/111/223 93/119/251 92/118/252
s off
f 85/111/253 86/112/254 94/120/255 93/119/256
s 3
f 86/112/232 83/109/231 91/117/257 94/120/258
