# This file uses centimeters as units for non-parametric coordinates.

mtllib Monter.mtl
g default
v 0.047195 -0.386170 0.427833
v 0.927094 -0.537954 0.427833
v -1.181473 0.512781 0.500000
v 0.500000 0.471593 0.500000
v -1.181473 0.512781 -0.500000
v 0.500000 0.471593 -0.500000
v 0.047195 -0.386170 -0.427833
v 0.927094 -0.537954 -0.427833
v -1.554259 1.367290 1.066284
v 0.627965 1.805743 1.066284
v 0.627965 1.805743 -1.066284
v -1.554259 1.367290 -1.066284
v -1.554444 2.848737 0.643729
v 0.222823 2.849199 0.643729
v 0.222823 2.849199 -0.643729
v -1.554444 2.848737 -0.643729
v -1.342483 2.020210 2.015780
v 0.149865 2.583712 2.537992
v -0.125631 3.333759 2.709775
v -1.334173 3.156408 2.037890
v -1.342484 2.020210 -2.015780
v 0.149865 2.583713 -2.537992
v -1.334173 3.156409 -2.037890
v -0.125631 3.333759 -2.709775
v -1.388855 1.761303 2.675595
v -1.236845 2.310592 3.733438
v -1.666246 2.877159 3.765493
v -1.666251 2.768687 2.438664
v -1.388855 1.761303 -2.675595
v -1.236845 2.310593 -3.733438
v -1.666251 2.768688 -2.438664
v -1.666246 2.877159 -3.765493
v -1.543971 1.402615 2.802489
v -1.906145 1.565532 3.823890
v -2.439419 1.800730 3.568110
v -2.374974 1.760073 2.636052
v -1.543971 1.402615 -2.802489
v -1.906146 1.565532 -3.823890
v -2.374974 1.760074 -2.636052
v -2.439419 1.800730 -3.568110
v -1.339343 1.054709 2.914761
v -1.702240 0.947284 3.546118
v -2.237530 0.808248 3.278858
v -1.893811 0.876865 2.785657
v -1.339343 1.054709 -2.914762
v -1.702240 0.947284 -3.546118
v -1.893811 0.876865 -2.785657
v -2.237530 0.808248 -3.278858
v -0.431380 0.982826 3.553200
v -0.860935 1.036081 3.863563
v -1.115237 0.594077 3.750449
v -0.904697 0.614396 3.228844
v -0.431380 0.982826 -3.553200
v -0.860935 1.036081 -3.863563
v -0.904697 0.614396 -3.228844
v -1.115237 0.594077 -3.750449
v -0.530158 1.013189 4.605876
v -0.751831 1.006423 4.605877
v -0.832362 0.783770 4.605876
v -0.593500 0.819223 4.605873
v -0.530158 1.013189 -4.605875
v -0.751832 1.006423 -4.605877
v -0.593500 0.819223 -4.605873
v -0.832362 0.783770 -4.605876
v 0.047195 -0.909951 -0.564701
v 0.047195 -0.909951 0.564701
v -1.181473 -0.519877 0.659955
v -1.181473 -0.519877 -0.659955
v 0.556136 -1.169757 -1.955233
v 0.556136 -1.169757 1.955233
v -1.451509 -1.169744 2.285043
v -1.451509 -1.169744 -2.285043
v 1.155881 -2.732710 -1.813812
v 1.155881 -2.732710 1.813812
v -1.709577 -2.732697 1.921093
v -1.709577 -2.732697 -1.921093
v 0.584499 -5.124570 -1.033212
v 0.584499 -5.124570 1.033212
v -1.001081 -5.124559 1.258467
v -1.001081 -5.124559 -1.258467
v 0.461577 -0.996291 3.098651
v -1.470416 -0.953887 3.379066
v -1.549977 -2.513040 2.629571
v 0.822200 -2.343835 2.386236
v -1.470416 -0.953887 -3.379066
v 0.461577 -0.996291 -3.098651
v 0.822200 -2.343835 -2.386236
v -1.549977 -2.513040 -2.629571
v 0.208858 -2.023902 4.042489
v -1.221824 -2.113641 4.232364
v -1.500652 -2.624212 2.885433
v 0.475908 -2.579025 2.665625
v -1.221824 -2.113641 -4.232364
v 0.208858 -2.023902 -4.042489
v 0.475908 -2.579025 -2.665625
v -1.500652 -2.624212 -2.885433
v 0.425339 -4.084994 3.831524
v -0.545590 -4.475695 3.970423
v -0.734813 -4.551843 3.265276
v 0.606573 -4.012071 3.104480
v -0.545590 -4.475695 -3.970423
v 0.425339 -4.084994 -3.831524
v 0.606573 -4.012071 -3.104480
v -0.734813 -4.551843 -3.265276
vt 0.375000 0.000000
vt 0.625000 0.000000
vt 0.375000 0.250000
vt 0.625000 0.250000
vt 0.375000 0.500000
vt 0.625000 0.500000
vt 0.375000 0.750000
vt 0.625000 0.750000
vt 0.375000 1.000000
vt 0.625000 1.000000
vt 0.875000 0.000000
vt 0.875000 0.250000
vt 0.125000 0.000000
vt 0.125000 0.250000
vt 0.375000 0.250000
vt 0.625000 0.250000
vt 0.625000 0.500000
vt 0.375000 0.500000
vt 0.375000 0.250000
vt 0.625000 0.250000
vt 0.625000 0.500000
vt 0.375000 0.500000
vt 0.375000 0.250000
vt 0.625000 0.250000
vt 0.625000 0.250000
vt 0.375000 0.250000
vt 0.625000 0.500000
vt 0.375000 0.500000
vt 0.375000 0.500000
vt 0.625000 0.500000
vt 0.375000 0.250000
vt 0.625000 0.250000
vt 0.625000 0.250000
vt 0.375000 0.250000
vt 0.625000 0.500000
vt 0.375000 0.500000
vt 0.375000 0.500000
vt 0.625000 0.500000
vt 0.375000 0.250000
vt 0.625000 0.250000
vt 0.625000 0.250000
vt 0.375000 0.250000
vt 0.625000 0.500000
vt 0.375000 0.500000
vt 0.375000 0.500000
vt 0.625000 0.500000
vt 0.375000 0.250000
vt 0.625000 0.250000
vt 0.625000 0.250000
vt 0.375000 0.250000
vt 0.625000 0.500000
vt 0.375000 0.500000
vt 0.375000 0.500000
vt 0.625000 0.500000
vt 0.375000 0.250000
vt 0.625000 0.250000
vt 0.625000 0.250000
vt 0.375000 0.250000
vt 0.625000 0.500000
vt 0.375000 0.500000
vt 0.375000 0.500000
vt 0.625000 0.500000
vt 0.375000 0.250000
vt 0.625000 0.250000
vt 0.625000 0.250000
vt 0.375000 0.250000
vt 0.625000 0.500000
vt 0.375000 0.500000
vt 0.375000 0.500000
vt 0.625000 0.500000
vt 0.125000 0.000000
vt 0.375000 0.000000
vt 0.375000 0.250000
vt 0.125000 0.250000
vt 0.125000 0.000000
vt 0.375000 0.000000
vt 0.375000 0.250000
vt 0.125000 0.250000
vt 0.125000 0.000000
vt 0.375000 0.000000
vt 0.375000 0.250000
vt 0.125000 0.250000
vt 0.125000 0.000000
vt 0.375000 0.000000
vt 0.375000 0.250000
vt 0.125000 0.250000
vt 0.375000 0.000000
vt 0.375000 0.250000
vt 0.375000 0.250000
vt 0.375000 0.000000
vt 0.125000 0.250000
vt 0.125000 0.000000
vt 0.125000 0.000000
vt 0.125000 0.250000
vt 0.375000 0.000000
vt 0.375000 0.250000
vt 0.375000 0.250000
vt 0.375000 0.000000
vt 0.125000 0.250000
vt 0.125000 0.000000
vt 0.125000 0.000000
vt 0.125000 0.250000
vt 0.375000 0.000000
vt 0.375000 0.250000
vt 0.375000 0.250000
vt 0.375000 0.000000
vt 0.125000 0.250000
vt 0.125000 0.000000
vt 0.125000 0.000000
vt 0.125000 0.250000
vn -0.006076 -0.080651 0.996724
vn -0.006076 -0.080651 0.996724
vn -0.006076 -0.080651 0.996724
vn -0.006076 -0.080651 0.996724
vn -0.004136 0.993312 -0.115389
vn -0.004124 0.993356 -0.115009
vn -0.004124 0.993356 0.115009
vn -0.004136 0.993312 0.115389
vn -0.006076 -0.080651 -0.996724
vn -0.006076 -0.080651 -0.996724
vn -0.006076 -0.080651 -0.996724
vn -0.006076 -0.080651 -0.996724
vn -0.169991 -0.985446 0.000000
vn -0.169991 -0.985446 0.000000
vn -0.169991 -0.985446 0.000000
vn -0.169991 -0.985446 0.000000
vn 0.920975 0.389623 0.000000
vn 0.920975 0.389623 0.000000
vn 0.920975 0.389623 0.000000
vn 0.920975 0.389623 0.000000
vn -0.000007 -1.000000 0.000000
vn -0.000007 -1.000000 0.000000
vn -0.000007 -1.000000 0.000000
vn -0.000007 -1.000000 0.000000
vn 0.046778 -0.454949 0.889288
vn 0.046778 -0.454949 0.889288
vn 0.046778 -0.454949 0.889288
vn 0.046778 -0.454949 0.889288
vn 0.995432 -0.095477 0.000000
vn 0.995432 -0.095477 0.000000
vn 0.995432 -0.095477 0.000000
vn 0.995432 -0.095477 0.000000
vn 0.046778 -0.454949 -0.889288
vn 0.046778 -0.454949 -0.889288
vn 0.046778 -0.454949 -0.889288
vn 0.046778 -0.454949 -0.889288
vn -0.916575 -0.399863 0.000000
vn -0.916575 -0.399863 0.000000
vn -0.916575 -0.399863 0.000000
vn -0.916575 -0.399863 0.000000
vn 0.000010 -0.000013 1.000000
vn 0.000010 -0.000013 1.000000
vn 0.000010 -0.000013 1.000000
vn 0.000010 -0.000013 1.000000
vn 0.930556 0.363379 0.044955
vn 0.930556 0.363379 -0.044955
vn 0.931017 0.363161 -0.036348
vn 0.931017 0.363161 0.036348
vn 0.000013 -0.000012 -1.000000
vn 0.000013 -0.000012 -1.000000
vn 0.000013 -0.000012 -1.000000
vn 0.000013 -0.000012 -1.000000
vn -0.997758 0.011205 -0.065975
vn -0.997758 0.011205 0.065975
vn -0.998192 0.010051 0.059260
vn -0.998192 0.010051 -0.059260
vn 0.156548 -0.842646 0.515209
vn 0.156548 -0.842646 0.515209
vn 0.156548 -0.842646 0.515209
vn 0.156548 -0.842646 0.515209
vn 0.801425 0.289117 0.523573
vn 0.884858 0.333595 0.325179
vn -0.117215 0.984177 -0.132879
vn -0.126670 0.984059 -0.124834
vn -0.985068 0.029018 0.169701
vn -0.985068 0.029018 0.169701
vn 0.156548 -0.842646 -0.515209
vn 0.156548 -0.842646 -0.515209
vn 0.156548 -0.842646 -0.515209
vn 0.156548 -0.842646 -0.515209
vn -0.985068 0.029018 -0.169701
vn -0.985068 0.029018 -0.169701
vn -0.126670 0.984059 0.124834
vn -0.117215 0.984177 0.132879
vn 0.884858 0.333595 -0.325179
vn 0.801425 0.289117 -0.523573
vn 0.476267 -0.871345 0.118016
vn 0.476267 -0.871345 0.118016
vn 0.603913 -0.777758 0.174306
vn 0.579583 -0.798370 0.163367
vn 0.570644 0.181522 0.800884
vn 0.570644 0.181522 0.800884
vn -0.563404 0.825778 0.025825
vn -0.644064 0.764972 0.000761
vn -0.897103 -0.154111 -0.414073
vn -0.897103 -0.154111 -0.414073
vn -0.230166 -0.259684 -0.937863
vn -0.695600 -0.215893 -0.685223
vn 0.476267 -0.871345 -0.118016
vn 0.476267 -0.871345 -0.118016
vn 0.579583 -0.798370 -0.163367
vn 0.603913 -0.777758 -0.174306
vn -0.897103 -0.154111 0.414072
vn -0.897103 -0.154111 0.414072
vn -0.695601 -0.215893 0.685222
vn -0.230166 -0.259685 0.937863
vn -0.644063 0.764972 -0.000761
vn -0.563403 0.825778 -0.025825
vn 0.570644 0.181523 -0.800884
vn 0.570644 0.181523 -0.800884
vn 0.796648 -0.542583 0.266375
vn 0.796648 -0.542583 0.266375
vn -0.166654 0.074257 0.983215
vn -0.166654 0.074257 0.983215
vn -0.166654 0.074257 0.983215
vn -0.166654 0.074257 0.983215
vn -0.813566 0.578223 -0.061382
vn -0.813566 0.578223 -0.061382
vn 0.039071 -0.253895 -0.966443
vn 0.039071 -0.253895 -0.966443
vn 0.796648 -0.542583 -0.266375
vn 0.796648 -0.542583 -0.266375
vn 0.039071 -0.253895 0.966442
vn 0.039071 -0.253895 0.966442
vn -0.813566 0.578223 0.061382
vn -0.813566 0.578223 0.061382
vn -0.166655 0.074257 -0.983215
vn -0.166655 0.074257 -0.983215
vn -0.166655 0.074257 -0.983215
vn -0.166655 0.074257 -0.983215
vn 0.875513 0.306174 0.373811
vn 0.875513 0.306174 0.373811
vn 0.875513 0.306174 0.373811
vn 0.875513 0.306174 0.373811
vn -0.432392 -0.394382 0.810864
vn -0.432392 -0.394382 0.810864
vn -0.432392 -0.394382 0.810864
vn -0.432392 -0.394382 0.810864
vn -0.911694 -0.312108 -0.267213
vn -0.911694 -0.312108 -0.267213
vn -0.911694 -0.312108 -0.267213
vn -0.911694 -0.312108 -0.267213
vn 0.195340 -0.098744 -0.975752
vn 0.195340 -0.098744 -0.975752
vn 0.195340 -0.098744 -0.975752
vn 0.195340 -0.098744 -0.975752
vn 0.875513 0.306174 -0.373811
vn 0.875513 0.306174 -0.373811
vn 0.875513 0.306174 -0.373811
vn 0.875513 0.306174 -0.373811
vn 0.195341 -0.098743 0.975752
vn 0.195341 -0.098743 0.975752
vn 0.195341 -0.098743 0.975752
vn 0.195341 -0.098743 0.975752
vn -0.911694 -0.312109 0.267213
vn -0.911694 -0.312109 0.267213
vn -0.911694 -0.312109 0.267213
vn -0.911694 -0.312109 0.267213
vn -0.432393 -0.394382 -0.810864
vn -0.432393 -0.394382 -0.810864
vn -0.432393 -0.394382 -0.810864
vn -0.432393 -0.394382 -0.810864
vn -0.028128 0.999033 0.033796
vn -0.028128 0.999033 0.033796
vn -0.028128 0.999033 0.033796
vn -0.028128 0.999033 0.033796
vn -0.376329 -0.092109 0.921896
vn -0.376329 -0.092109 0.921896
vn -0.376329 -0.092109 0.921896
vn -0.376329 -0.092109 0.921896
vn -0.148033 -0.974902 -0.166291
vn -0.148033 -0.974902 -0.166291
vn -0.148033 -0.974902 -0.166291
vn -0.148033 -0.974902 -0.166291
vn 0.467829 -0.158425 -0.869504
vn 0.467829 -0.158425 -0.869504
vn 0.467829 -0.158425 -0.869504
vn 0.467829 -0.158425 -0.869504
vn -0.028128 0.999033 -0.033797
vn -0.028128 0.999033 -0.033797
vn -0.028128 0.999033 -0.033797
vn -0.028128 0.999033 -0.033797
vn 0.467829 -0.158424 0.869504
vn 0.467829 -0.158424 0.869504
vn 0.467830 -0.158424 0.869504
vn 0.467829 -0.158424 0.869504
vn -0.148033 -0.974902 0.166291
vn -0.148033 -0.974902 0.166291
vn -0.148033 -0.974902 0.166291
vn -0.148033 -0.974902 0.166291
vn -0.376329 -0.092111 -0.921896
vn -0.376329 -0.092111 -0.921896
vn -0.376329 -0.092111 -0.921896
vn -0.376329 -0.092111 -0.921896
vn 0.070827 0.997488 -0.000799
vn 0.070827 0.997488 -0.000799
vn 0.070827 0.997488 -0.000799
vn 0.070827 0.997488 -0.000799
vn -0.890789 0.418696 0.176602
vn -0.890789 0.418696 0.176602
vn -0.890789 0.418696 0.176602
vn -0.890789 0.418696 0.176602
vn 0.242562 -0.964342 0.105872
vn 0.242562 -0.964342 0.105872
vn 0.242562 -0.964342 0.105872
vn 0.242562 -0.964342 0.105872
vn 0.722371 -0.691495 0.003781
vn 0.722371 -0.691495 0.003781
vn 0.722371 -0.691495 0.003781
vn 0.722371 -0.691495 0.003781
vn 0.070826 0.997488 0.000799
vn 0.070826 0.997488 0.000799
vn 0.070826 0.997488 0.000799
vn 0.070826 0.997488 0.000799
vn 0.722371 -0.691495 -0.003781
vn 0.722371 -0.691495 -0.003781
vn 0.722371 -0.691495 -0.003781
vn 0.722371 -0.691495 -0.003781
vn 0.242562 -0.964342 -0.105872
vn 0.242562 -0.964342 -0.105872
vn 0.242562 -0.964342 -0.105872
vn 0.242562 -0.964342 -0.105872
vn -0.890790 0.418695 -0.176602
vn -0.890790 0.418695 -0.176602
vn -0.890790 0.418695 -0.176602
vn -0.890790 0.418695 -0.176602
vn 1.000000 0.000000 0.000000
vn 1.000000 0.000000 0.000000
vn 1.000000 0.000000 0.000000
vn 1.000000 0.000000 0.000000
vn 0.162983 0.184826 0.969162
vn 0.162983 0.184826 0.969163
vn 0.162983 0.184826 0.969163
vn 0.162983 0.184826 0.969163
vn -1.000000 0.000000 0.000000
vn -1.000000 0.000000 0.000000
vn -1.000000 0.000000 0.000000
vn -1.000000 0.000000 0.000000
vn 0.162983 0.184826 -0.969163
vn 0.162983 0.184826 -0.969162
vn 0.162983 0.184826 -0.969163
vn 0.162983 0.184826 -0.969163
vn 0.454667 0.890661 0.000000
vn 0.454667 0.890661 0.000000
vn 0.454667 0.890662 0.000000
vn 0.454667 0.890662 0.000000
vn 0.150534 0.949714 0.274559
vn 0.150534 0.949714 0.274559
vn 0.062162 0.997495 0.033755
vn 0.077714 0.994115 0.075471
vn -0.923451 0.383717 0.000000
vn -0.923451 0.383717 0.000000
vn -0.923451 0.383717 0.000000
vn -0.923451 0.383717 0.000000
vn 0.150534 0.949714 -0.274559
vn 0.150534 0.949714 -0.274559
vn 0.077714 0.994115 -0.075471
vn 0.062162 0.997495 -0.033755
vn 0.939089 0.342535 -0.027975
vn 0.939089 0.342535 0.027975
vn 0.936202 0.351237 0.012574
vn 0.936202 0.351237 -0.012574
vn 0.373309 -0.927707 0.000006
vn 0.373309 -0.927707 0.000006
vn 0.373309 -0.927707 0.000006
vn 0.373309 -0.927707 0.000006
vn -0.989173 0.146211 0.012593
vn -0.989173 0.146210 -0.012593
vn -0.987826 0.155461 -0.005624
vn -0.987826 0.155461 0.005624
vn 0.373309 -0.927707 -0.000006
vn 0.373309 -0.927707 -0.000006
vn 0.373309 -0.927707 -0.000006
vn 0.373309 -0.927707 -0.000006
vn 0.972633 -0.232348 0.000000
vn 0.972633 -0.232348 0.000000
vn 0.972633 -0.232348 0.000000
vn 0.972633 -0.232348 0.000000
vn 0.071384 -0.286224 0.955500
vn 0.071384 -0.286224 0.955500
vn 0.071384 -0.286224 0.955500
vn 0.071384 -0.286224 0.955500
vn -0.958820 -0.284014 0.000000
vn -0.958820 -0.284014 0.000000
vn -0.958820 -0.284014 0.000000
vn -0.958820 -0.284014 0.000000
vn 0.071384 -0.286224 -0.955500
vn 0.071384 -0.286224 -0.955500
vn 0.071384 -0.286224 -0.955500
vn 0.071384 -0.286224 -0.955500
vn -0.016068 0.984932 -0.172196
vn -0.016068 0.984932 -0.172196
vn -0.994569 0.087400 0.056513
vn -0.994569 0.087400 0.056513
vn 0.058137 -0.898636 0.434826
vn 0.058137 -0.898636 0.434826
vn 0.058137 -0.898636 0.434826
vn 0.058137 -0.898636 0.434826
vn 0.951227 0.270206 0.148851
vn 0.951227 0.270206 0.148851
vn -0.016068 0.984932 0.172196
vn -0.016068 0.984932 0.172196
vn 0.951227 0.270206 -0.148851
vn 0.951227 0.270206 -0.148851
vn 0.058137 -0.898636 -0.434826
vn 0.058137 -0.898636 -0.434826
vn 0.058137 -0.898636 -0.434826
vn 0.058137 -0.898636 -0.434826
vn -0.994569 0.087400 -0.056513
vn -0.994569 0.087400 -0.056513
vn 0.098656 0.631610 0.768984
vn 0.098656 0.631610 0.768984
vn 0.098656 0.631610 0.768984
vn 0.098656 0.631610 0.768984
vn -0.976452 -0.044698 0.211055
vn -0.976452 -0.044698 0.211055
vn -0.976452 -0.044698 0.211055
vn -0.976452 -0.044698 0.211055
vn -0.017409 -0.834993 -0.549985
vn -0.017409 -0.834993 -0.549985
vn -0.017409 -0.834993 -0.549985
vn -0.017409 -0.834993 -0.549985
vn 0.928111 -0.090408 0.361161
vn 0.928111 -0.090408 0.361161
vn 0.928111 -0.090408 0.361161
vn 0.928111 -0.090408 0.361161
vn 0.098656 0.631610 -0.768984
vn 0.098656 0.631610 -0.768984
vn 0.098656 0.631610 -0.768984
vn 0.098656 0.631610 -0.768984
vn 0.928111 -0.090408 -0.361161
vn 0.928111 -0.090408 -0.361161
vn 0.928111 -0.090408 -0.361161
vn 0.928111 -0.090408 -0.361161
vn -0.017409 -0.834993 0.549985
vn -0.017409 -0.834993 0.549985
vn -0.017409 -0.834993 0.549985
vn -0.017409 -0.834993 0.549985
vn -0.976452 -0.044698 -0.211055
vn -0.976452 -0.044698 -0.211055
vn -0.976452 -0.044698 -0.211055
vn -0.976452 -0.044698 -0.211055
vn 0.149987 -0.075129 0.985829
vn 0.149987 -0.075129 0.985829
vn 0.149987 -0.075129 0.985829
vn 0.149987 -0.075129 0.985829
vn -0.908858 -0.297497 0.292357
vn -0.908858 -0.297497 0.292357
vn -0.908858 -0.297497 0.292357
vn -0.908858 -0.297497 0.292357
vn -0.066157 -0.252795 -0.965255
vn -0.066157 -0.252795 -0.965255
vn -0.066157 -0.252795 -0.965255
vn -0.066157 -0.252795 -0.965255
vn 0.977015 0.109015 0.183189
vn 0.977015 0.109015 0.183189
vn 0.977015 0.109015 0.183189
vn 0.977015 0.109015 0.183189
vn 0.149987 -0.075129 -0.985829
vn 0.149987 -0.075129 -0.985829
vn 0.149987 -0.075129 -0.985829
vn 0.149987 -0.075129 -0.985829
vn 0.977015 0.109015 -0.183189
vn 0.977015 0.109015 -0.183189
vn 0.977015 0.109015 -0.183189
vn 0.977015 0.109015 -0.183189
vn -0.066157 -0.252795 0.965255
vn -0.066157 -0.252795 0.965255
vn -0.066157 -0.252795 0.965255
vn -0.066157 -0.252795 0.965255
vn -0.908858 -0.297497 -0.292357
vn -0.908858 -0.297497 -0.292357
vn -0.908858 -0.297497 -0.292357
vn -0.908858 -0.297497 -0.292357
s off
g MonsterMesh
usemtl initialShadingGroup
f 1/1/1 2/2/2 4/4/3 3/3/4
s 1
f 13/19/5 14/20/6 15/21/7 16/22/8
s off
f 5/5/9 6/6/10 8/8/11 7/7/12
f 7/7/13 8/8/14 2/10/15 1/9/16
f 2/2/17 8/11/18 6/12/19 4/4/20
f 77/83/21 78/84/22 79/85/23 80/86/24
f 3/3/25 4/4/26 10/16/27 9/15/28
f 4/4/29 6/6/30 11/17/31 10/16/32
f 6/6/33 5/5/34 12/18/35 11/17/36
f 5/5/37 3/3/38 9/15/39 12/18/40
f 57/63/41 58/64/42 59/65/43 60/66/44
s 2
f 10/16/45 11/17/46 15/21/47 14/20/48
s off
f 62/67/49 61/68/50 63/69/51 64/70/52
s 3
f 12/18/53 9/15/54 13/19/55 16/22/56
s off
f 9/15/57 10/16/58 18/24/59 17/23/60
s 2
f 10/16/45 14/20/48 19/25/61 18/24/62
s 1
f 14/20/6 13/19/5 20/26/63 19/25/64
s 3
f 13/19/55 9/15/54 17/23/65 20/26/66
s off
f 11/17/67 12/18/68 21/28/69 22/27/70
s 3
f 12/18/53 16/22/56 23/29/71 21/28/72
s 1
f 16/22/8 15/21/7 24/30/73 23/29/74
s 2
f 15/21/47 11/17/46 22/27/75 24/30/76
s 4
f 17/23/77 18/24/78 26/32/79 25/31/80
s 2
f 18/24/62 19/25/61 27/33/81 26/32/82
s 1
f 19/25/64 20/26/63 28/34/83 27/33/84
s 5
f 20/26/85 17/23/86 25/31/87 28/34/88
s 6
f 22/27/89 21/28/90 29/36/91 30/35/92
s 7
f 21/28/93 23/29/94 31/37/95 29/36/96
s 1
f 23/29/74 24/30/73 32/38/97 31/37/98
s 2
f 24/30/76 22/27/75 30/35/99 32/38/100
s 4
f 25/31/80 26/32/79 34/40/101 33/39/102
s off
f 26/32/103 27/33/104 35/41/105 34/40/106
s 1
f 27/33/84 28/34/83 36/42/107 35/41/108
s 5
f 28/34/88 25/31/87 33/39/109 36/42/110
s 6
f 30/35/92 29/36/91 37/44/111 38/43/112
s 7
f 29/36/96 31/37/95 39/45/113 37/44/114
s 1
f 31/37/98 32/38/97 40/46/115 39/45/116
s off
f 32/38/117 30/35/118 38/43/119 40/46/120
f 33/39/121 34/40/122 42/48/123 41/47/124
f 34/40/125 35/41/126 43/49/127 42/48/128
f 35/41/129 36/42/130 44/50/131 43/49/132
f 36/42/133 33/39/134 41/47/135 44/50/136
f 38/43/137 37/44/138 45/52/139 46/51/140
f 37/44/141 39/45/142 47/53/143 45/52/144
f 39/45/145 40/46/146 48/54/147 47/53/148
f 40/46/149 38/43/150 46/51/151 48/54/152
f 41/47/153 42/48/154 50/56/155 49/55/156
f 42/48/157 43/49/158 51/57/159 50/56/160
f 43/49/161 44/50/162 52/58/163 51/57/164
f 44/50/165 41/47/166 49/55/167 52/58/168
f 46/51/169 45/52/170 53/60/171 54/59/172
f 45/52/173 47/53/174 55/61/175 53/60/176
f 47/53/177 48/54/178 56/62/179 55/61/180
f 48/54/181 46/51/182 54/59/183 56/62/184
f 49/55/185 50/56/186 58/64/187 57/63/188
f 50/56/189 51/57/190 59/65/191 58/64/192
f 51/57/193 52/58/194 60/66/195 59/65/196
f 52/58/197 49/55/198 57/63/199 60/66/200
f 54/59/201 53/60/202 61/68/203 62/67/204
f 53/60/205 55/61/206 63/69/207 61/68/208
f 55/61/209 56/62/210 64/70/211 63/69/212
f 56/62/213 54/59/214 62/67/215 64/70/216
f 7/13/217 1/1/218 66/72/219 65/71/220
f 1/1/221 3/3/222 67/73/223 66/72/224
f 3/3/225 5/14/226 68/74/227 67/73/228
f 5/14/229 7/13/230 65/71/231 68/74/232
f 65/71/233 66/72/234 70/76/235 69/75/236
s 8
f 66/72/237 67/73/238 71/77/239 70/76/240
s off
f 67/73/241 68/74/242 72/78/243 71/77/244
s 9
f 68/74/245 65/71/246 69/75/247 72/78/248
s 10
f 69/75/249 70/76/250 74/80/251 73/79/252
s off
f 97/103/253 98/104/254 99/105/255 100/106/256
s 11
f 71/77/257 72/78/258 76/82/259 75/81/260
s off
f 101/107/261 102/108/262 103/109/263 104/110/264
f 73/79/265 74/80/266 78/84/267 77/83/268
f 74/80/269 75/81/270 79/85/271 78/84/272
f 75/81/273 76/82/274 80/86/275 79/85/276
f 76/82/277 73/79/278 77/83/279 80/86/280
s 8
f 70/76/240 71/77/239 82/88/281 81/87/282
s 11
f 71/77/257 75/81/260 83/89/283 82/88/284
s off
f 75/81/285 74/80/286 84/90/287 83/89/288
s 10
f 74/80/251 70/76/250 81/87/289 84/90/290
s 9
f 72/78/248 69/75/247 86/92/291 85/91/292
s 10
f 69/75/249 73/79/252 87/93/293 86/92/294
s off
f 73/79/295 76/82/296 88/94/297 87/93/298
s 11
f 76/82/259 72/78/258 85/91/299 88/94/300
s off
f 81/87/301 82/88/302 90/96/303 89/95/304
f 82/88/305 83/89/306 91/97/307 90/96/308
f 83/89/309 84/90/310 92/98/311 91/97/312
f 84/90/313 81/87/314 89/95/315 92/98/316
f 85/91/317 86/92/318 94/100/319 93/99/320
f 86/92/321 87/93/322 95/101/323 94/100/324
f 87/93/325 88/94/326 96/102/327 95/101/328
f 88/94/329 85/91/330 93/99/331 96/102/332
f 89/95/333 90/96/334 98/104/335 97/103/336
f 90/96/337 91/97/338 99/105/339 98/104/340
f 91/97/341 92/98/342 100/106/343 99/105/344
f 92/98/345 89/95/346 97/103/347 100/106/348
f 93/99/349 94/100/350 102/108/351 101/107/352
f 94/100/353 95/101/354 103/109/355 102/108/356
f 95/101/357 96/102/358 104/110/359 103/109/360
f 96/102/361 93/99/362 101/107/363 104/110/364
