# This file uses centimeters as units for non-parametric coordinates.

mtllib Pliers.mtl
g default
v -0.265072 -0.299110 0.250000
v 0.265072 -0.299110 0.250000
v -0.265072 0.299110 0.250000
v 0.265072 0.299110 0.250000
v -0.500000 0.299110 -0.500000
v 0.500000 0.299110 -0.500000
v -0.500000 -0.299110 -0.500000
v 0.500000 -0.299110 -0.500000
v 1.268930 -0.207058 0.340292
v 0.654783 -0.207058 0.659708
v 1.268930 0.207058 0.340292
v 0.654783 0.207058 0.659708
v -1.268930 -0.207058 0.340292
v -0.654783 -0.207058 0.659708
v -0.654783 0.207058 0.659708
v -1.268930 0.207058 0.340292
v 2.038530 -0.207058 1.992429
v 1.845763 -0.207058 3.984231
v 1.346450 -0.207058 2.007571
v 1.154237 -0.207058 4.015769
v 2.038530 0.207058 1.992429
v 1.845763 0.207058 3.984231
v 1.346450 0.207058 2.007571
v 1.154237 0.207058 4.015769
v -2.038530 -0.207058 1.992429
v -1.845763 -0.207058 3.984231
v -1.346450 -0.207058 2.007571
v -1.154237 -0.207058 4.015769
v -1.346450 0.207058 2.007571
v -1.154237 0.207058 4.015769
v -2.038530 0.207058 1.992429
v -1.845763 0.207058 3.984231
v -0.116131 0.266507 -1.250000
v 0.116131 0.266507 -1.250000
v 0.116131 -0.266507 -1.250000
v -0.116131 -0.266507 -1.250000
v 1.070692 0.127667 -3.759552
v 1.070692 -0.127667 -3.759552
v 0.804545 -0.113751 -3.740448
v 0.804545 0.113751 -3.740448
v -1.070692 0.127667 -3.759552
v -1.070692 -0.127667 -3.759552
v -0.804545 0.113751 -3.740448
v -0.804545 -0.113751 -3.740448
vt 0.375000 0.000000
vt 0.625000 0.000000
vt 0.375000 0.250000
vt 0.625000 0.250000
vt 0.375000 0.500000
vt 0.625000 0.500000
vt 0.375000 0.750000
vt 0.625000 0.750000
vt 0.375000 1.000000
vt 0.625000 1.000000
vt 0.875000 0.000000
vt 0.875000 0.250000
vt 0.125000 0.000000
vt 0.125000 0.250000
vt 0.625000 0.000000
vt 0.875000 0.000000
vt 0.875000 0.250000
vt 0.625000 0.250000
vt 0.125000 0.000000
vt 0.375000 0.000000
vt 0.375000 0.250000
vt 0.125000 0.250000
vt 0.625000 0.000000
vt 0.625000 0.000000
vt 0.875000 0.000000
vt 0.875000 0.000000
vt 0.875000 0.250000
vt 0.875000 0.250000
vt 0.625000 0.250000
vt 0.625000 0.250000
vt 0.125000 0.000000
vt 0.125000 0.000000
vt 0.375000 0.000000
vt 0.375000 0.000000
vt 0.375000 0.250000
vt 0.375000 0.250000
vt 0.125000 0.250000
vt 0.125000 0.250000
vt 0.375000 0.500000
vt 0.625000 0.500000
vt 0.625000 0.750000
vt 0.375000 0.750000
vt 0.625000 0.500000
vt 0.625000 0.750000
vt 0.625000 0.750000
vt 0.625000 0.500000
vt 0.375000 0.750000
vt 0.375000 0.500000
vt 0.375000 0.500000
vt 0.375000 0.750000
vn 0.337212 0.000000 0.941429
vn -0.337212 0.000000 0.941429
vn -0.337212 0.000000 0.941429
vn 0.337212 0.000000 0.941429
vn -0.044770 0.998365 0.035545
vn 0.044770 0.998365 0.035545
vn 0.018051 0.999792 -0.009443
vn -0.018051 0.999792 -0.009443
vn 0.923330 0.000000 -0.384007
vn -0.923330 0.000000 -0.384007
vn -0.923330 0.000000 -0.384007
vn 0.923330 0.000000 -0.384007
vn -0.018051 -0.999792 -0.009443
vn 0.018051 -0.999792 -0.009443
vn 0.044770 -0.998365 0.035545
vn -0.044770 -0.998365 0.035545
vn 0.045558 0.000000 0.998962
vn 0.045558 0.000000 0.998962
vn 0.045558 0.000000 0.998962
vn 0.045558 0.000000 0.998962
vn -0.045558 0.000000 0.998962
vn -0.045558 0.000000 0.998962
vn -0.045558 0.000000 0.998962
vn -0.045558 0.000000 0.998962
vn 0.026477 -0.999428 0.021022
vn 0.032391 -0.999144 0.025717
vn 0.737739 0.000000 -0.675087
vn 0.737739 0.000000 -0.675087
vn 0.839657 0.000000 -0.543118
vn 0.839657 0.000000 -0.543118
vn 0.032391 0.999144 0.025717
vn 0.026477 0.999428 0.021022
vn -0.840048 0.000000 0.542512
vn -0.840048 0.000000 0.542512
vn -0.032391 -0.999144 0.025717
vn -0.026477 -0.999428 0.021022
vn 0.840048 0.000000 0.542512
vn 0.840048 0.000000 0.542512
vn -0.026477 0.999428 0.021022
vn -0.032391 0.999144 0.025717
vn -0.737739 0.000000 -0.675087
vn -0.737739 0.000000 -0.675087
vn -0.839657 0.000000 -0.543118
vn -0.839657 0.000000 -0.543118
vn 0.000000 -1.000000 -0.000000
vn 0.000000 -1.000000 -0.000000
vn 0.000000 -1.000000 -0.000000
vn 0.000000 -1.000000 -0.000000
vn 0.987701 0.000000 -0.156352
vn 0.987701 0.000000 -0.156352
vn 0.995349 0.000000 0.096330
vn 0.995350 0.000000 0.096330
vn 0.000000 1.000000 -0.000000
vn 0.000000 1.000000 -0.000000
vn 0.000000 1.000000 0.000000
vn 0.000000 1.000000 0.000000
vn -0.989107 0.000000 0.147200
vn -0.989107 0.000000 0.147200
vn -0.995451 0.000000 -0.095279
vn -0.995451 0.000000 -0.095279
vn 0.000000 -1.000000 -0.000000
vn 0.000000 -1.000000 -0.000000
vn 0.000000 -1.000000 0.000000
vn 0.000000 -1.000000 0.000000
vn 0.989107 0.000000 0.147200
vn 0.989107 0.000000 0.147200
vn 0.995451 0.000000 -0.095279
vn 0.995451 0.000000 -0.095279
vn 0.000000 1.000000 -0.000000
vn 0.000000 1.000000 -0.000000
vn 0.000000 1.000000 -0.000000
vn 0.000000 1.000000 -0.000000
vn -0.987701 0.000000 -0.156352
vn -0.987701 0.000000 -0.156352
vn -0.995350 0.000000 0.096330
vn -0.995350 0.000000 0.096330
vn -0.004893 0.998523 -0.054116
vn 0.004893 0.998523 -0.054116
vn -0.071593 0.000000 -0.997434
vn -0.071593 0.000000 -0.997434
vn -0.071593 0.000000 -0.997434
vn -0.071593 0.000000 -0.997434
vn 0.004893 -0.998523 -0.054116
vn -0.004893 -0.998523 -0.054116
vn 0.071593 0.000000 -0.997434
vn 0.071593 0.000000 -0.997434
vn 0.071593 0.000000 -0.997434
vn 0.071593 0.000000 -0.997434
vn 0.985017 0.000000 0.172460
vn 0.985017 0.000000 0.172460
vn 0.985017 0.000000 0.172460
vn 0.985017 0.000000 0.172460
vn -0.006544 -0.998311 -0.057720
vn -0.006544 -0.998311 -0.057720
vn -0.963854 0.000000 -0.266430
vn -0.963854 0.000000 -0.266430
vn -0.006544 0.998311 -0.057720
vn -0.006544 0.998311 -0.057720
vn -0.985017 0.000000 0.172460
vn -0.985017 0.000000 0.172460
vn -0.985017 0.000000 0.172460
vn -0.985017 0.000000 0.172460
vn 0.006544 0.998311 -0.057720
vn 0.006544 0.998311 -0.057720
vn 0.963854 0.000000 -0.266430
vn 0.963854 0.000000 -0.266430
vn 0.006544 -0.998311 -0.057720
vn 0.006544 -0.998311 -0.057720
s 1
g PliersMesh
usemtl initialShadingGroup
f 1/1/1 2/2/2 4/4/3 3/3/4
s 2
f 3/3/5 4/4/6 6/6/7 5/5/8
s 3
f 33/39/9 34/40/10 35/41/11 36/42/12
s 4
f 7/7/13 8/8/14 2/10/15 1/9/16
s off
f 20/24/17 18/26/18 22/28/19 24/30/20
f 26/32/21 28/34/22 30/36/23 32/38/24
s 4
f 2/2/15 8/11/14 9/16/25 10/15/26
s 5
f 8/11/27 6/12/28 11/17/29 9/16/30
s 2
f 6/12/7 4/4/6 12/18/31 11/17/32
s 1
f 4/4/3 2/2/2 10/15/33 12/18/34
s 4
f 7/13/13 1/1/16 14/20/35 13/19/36
s 1
f 1/1/1 3/3/4 15/21/37 14/20/38
s 2
f 3/3/5 5/14/8 16/22/39 15/21/40
s 6
f 5/14/41 7/13/42 13/19/43 16/22/44
s 4
f 10/15/26 9/16/25 17/25/45 19/23/46
f 19/23/46 17/25/45 18/26/47 20/24/48
s 5
f 9/16/30 11/17/29 21/27/49 17/25/50
f 17/25/50 21/27/49 22/28/51 18/26/52
s 2
f 11/17/32 12/18/31 23/29/53 21/27/54
f 21/27/54 23/29/53 24/30/55 22/28/56
s 1
f 12/18/34 10/15/33 19/23/57 23/29/58
f 23/29/58 19/23/57 20/24/59 24/30/60
s 4
f 13/19/36 14/20/35 27/33/61 25/31/62
f 25/31/62 27/33/61 28/34/63 26/32/64
s 1
f 14/20/38 15/21/37 29/35/65 27/33/66
f 27/33/66 29/35/65 30/36/67 28/34/68
s 2
f 15/21/40 16/22/39 31/37/69 29/35/70
f 29/35/70 31/37/69 32/38/71 30/36/72
s 6
f 16/22/44 13/19/43 25/31/73 31/37/74
f 31/37/74 25/31/73 26/32/75 32/38/76
s 2
f 5/5/8 6/6/7 34/40/77 33/39/78
s off
f 37/43/79 38/44/80 39/45/81 40/46/82
s 4
f 8/8/14 7/7/13 36/42/83 35/41/84
s off
f 42/47/85 41/48/86 43/49/87 44/50/88
f 6/6/89 8/8/90 38/44/91 37/43/92
s 4
f 8/8/14 35/41/84 39/45/93 38/44/94
s 3
f 35/41/11 34/40/10 40/46/95 39/45/96
s 2
f 34/40/77 6/6/7 37/43/97 40/46/98
s off
f 7/7/99 5/5/100 41/48/101 42/47/102
s 2
f 5/5/8 33/39/78 43/49/103 41/48/104
s 3
f 33/39/9 36/42/12 44/50/105 43/49/106
s 4
f 36/42/83 7/7/13 42/47/107 44/50/108
