# This file uses centimeters as units for non-parametric coordinates.

mtllib PokerTable.mtl
g default
v -0.564907 -0.513387 0.929450
v 0.564907 -0.513387 0.929450
v -0.564907 -0.068238 0.929450
v 0.564907 -0.068238 0.929450
v -0.564907 -0.068238 -0.929450
v 0.564907 -0.068238 -0.929450
v -0.564907 -0.513387 -0.929450
v 0.564907 -0.513387 -0.929450
v 0.564908 -0.068237 0.000000
v -0.564908 -0.068237 0.000000
v -0.564908 -0.513387 0.000000
v 0.564908 -0.513387 0.000000
v 0.000000 -0.068237 0.929452
v 0.000000 -0.068237 -0.929452
v 0.000000 -0.513387 -0.929452
v 0.000000 -0.513387 0.000000
v 0.000000 -0.513387 0.929452
v -0.564907 1.378472 0.929450
v 0.000000 1.378473 0.929452
v -0.564908 1.378473 0.000000
v 0.000000 1.378473 -0.929452
v -0.564907 1.378472 -0.929450
v 0.564907 1.378472 0.929450
v 0.564908 1.378473 0.000000
v 0.564907 1.378472 -0.929450
v 2.016771 -0.068238 0.929451
v 2.793007 -1.029652 0.929451
v 2.016773 -0.068237 0.000000
v 2.793007 -1.029652 0.000000
v 2.016773 1.378473 0.000000
v 4.239717 -1.029652 0.000000
v 2.016771 1.378472 0.929451
v 4.239717 -1.029652 0.929451
v 2.016771 -0.068238 -0.929451
v 2.793007 -1.029652 -0.929451
v 2.016771 1.378472 -0.929451
v 4.239717 -1.029652 -0.929451
v -1.973131 -0.068238 0.929451
v -2.793007 -1.029652 0.929452
v -1.973132 -0.068237 0.000000
v -2.793007 -1.029652 0.000000
v -1.973131 1.378472 0.929451
v -4.239717 -1.029652 0.929452
v -1.973132 1.378473 0.000000
v -4.239717 -1.029652 0.000000
v -1.973131 -0.068238 -0.929451
v -2.793007 -1.029652 -0.929452
v -1.973131 1.378472 -0.929451
v -4.239717 -1.029652 -0.929452
v -0.564907 -0.068238 3.318225
v -0.564907 -1.029651 4.516854
v 0.000000 -0.068237 3.318227
v 0.000000 -1.029651 4.516855
v 0.000000 1.378473 3.318227
v 0.000000 -1.029651 6.897150
v -0.564907 1.378472 3.318225
v -0.564907 -1.029651 6.897149
v 0.564907 -0.068238 3.318225
v 0.564907 -1.029651 4.516854
v 0.564907 1.378472 3.318225
v 0.564907 -1.029651 6.897149
v -0.564907 -0.068238 -3.318225
v -0.564907 -1.029651 -4.516854
v 0.000000 -0.068237 -3.318228
v 0.000000 -1.029651 -4.516855
v -0.564907 1.378472 -3.318225
v -0.564907 -1.029651 -6.897150
v 0.000000 1.378473 -3.318228
v 0.000000 -1.029651 -6.897150
v 0.564907 -0.068238 -3.318225
v 0.564907 -1.029651 -4.516854
v 0.564907 1.378472 -3.318225
v 0.564907 -1.029651 -6.897150
v -0.429724 2.983808 0.707032
v -0.000000 2.983808 0.707033
v -0.429725 2.983808 0.000000
v -0.000000 2.983808 -0.707033
v -0.429724 2.983808 -0.707032
v 0.429724 2.983808 0.707032
v 0.429725 2.983808 0.000000
v 0.429724 2.983808 -0.707032
v -1.372986 4.100349 2.258996
v 0.000000 4.100349 2.259001
v -1.372989 4.100349 0.000000
v 0.000000 4.100349 -2.259001
v -1.372986 4.100349 -2.258996
v 1.372987 4.100349 2.258996
v 1.372989 4.100349 0.000000
v 1.372987 4.100349 -2.258996
v -3.679987 4.503655 6.054742
v 0.000000 4.503654 7.528509
v -5.052116 4.503654 0.000000
v 0.000000 4.503654 -7.528509
v -3.679987 4.503655 -6.054742
v 3.679988 4.503655 6.054742
v 5.052116 4.503654 0.000000
v 3.679988 4.503655 -6.054742
v -3.679987 5.471434 6.054742
v 0.000000 5.471436 7.528509
v -5.052116 5.471436 0.000000
v 0.000000 5.471436 -7.528509
v -3.679987 5.471434 -6.054742
v 3.679988 5.471434 6.054742
v 5.052116 5.471436 0.000000
v 3.679988 5.471434 -6.054742
v -3.087717 5.471434 5.080270
v 0.000000 5.471436 6.190693
v -4.239009 5.471436 0.000000
v 0.000000 5.471436 -6.190693
v -3.087717 5.471434 -5.080270
v 3.087718 5.471434 5.080270
v 4.239010 5.471436 0.000000
v 3.087718 5.471434 -5.080270
v -3.087717 5.002467 5.080270
v 0.000000 5.002468 6.190693
v 0.000000 5.002467 0.000000
v -4.239009 5.002468 0.000000
v 0.000000 5.002468 -6.190693
v -3.087717 5.002467 -5.080270
v 3.087718 5.002467 5.080270
v 4.239010 5.002468 0.000000
v 3.087718 5.002467 -5.080270
vt 0.375000 0.000000
vt 0.625000 0.000000
vt 0.375000 0.250000
vt 0.625000 0.250000
vt 0.375000 0.500000
vt 0.625000 0.500000
vt 0.375000 0.750000
vt 0.625000 0.750000
vt 0.375000 1.000000
vt 0.625000 1.000000
vt 0.875000 0.000000
vt 0.875000 0.250000
vt 0.125000 0.000000
vt 0.125000 0.250000
vt 0.625000 0.375000
vt 0.750000 0.250000
vt 0.250000 0.250000
vt 0.375000 0.375000
vt 0.250000 0.000000
vt 0.375000 0.875000
vt 0.625000 0.875000
vt 0.750000 0.000000
vt 0.500000 0.250000
vt 0.500000 0.375000
vt 0.500000 0.500000
vt 0.500000 0.750000
vt 0.500000 0.875000
vt 0.500000 0.000000
vt 0.500000 1.000000
vt 0.375000 0.250000
vt 0.500000 0.250000
vt 0.375000 0.375000
vt 0.500000 0.500000
vt 0.375000 0.500000
vt 0.625000 0.250000
vt 0.625000 0.375000
vt 0.625000 0.500000
vt 0.625000 0.250000
vt 0.625000 0.250000
vt 0.625000 0.375000
vt 0.625000 0.375000
vt 0.625000 0.375000
vt 0.625000 0.375000
vt 0.625000 0.250000
vt 0.625000 0.250000
vt 0.625000 0.500000
vt 0.625000 0.500000
vt 0.625000 0.500000
vt 0.625000 0.500000
vt 0.375000 0.375000
vt 0.375000 0.375000
vt 0.375000 0.250000
vt 0.375000 0.250000
vt 0.375000 0.250000
vt 0.375000 0.250000
vt 0.375000 0.375000
vt 0.375000 0.375000
vt 0.375000 0.500000
vt 0.375000 0.500000
vt 0.375000 0.500000
vt 0.375000 0.500000
vt 0.375000 0.250000
vt 0.375000 0.250000
vt 0.500000 0.250000
vt 0.500000 0.250000
vt 0.500000 0.250000
vt 0.500000 0.250000
vt 0.375000 0.250000
vt 0.375000 0.250000
vt 0.625000 0.250000
vt 0.625000 0.250000
vt 0.625000 0.250000
vt 0.625000 0.250000
vt 0.500000 0.500000
vt 0.500000 0.500000
vt 0.375000 0.500000
vt 0.375000 0.500000
vt 0.375000 0.500000
vt 0.375000 0.500000
vt 0.500000 0.500000
vt 0.500000 0.500000
vt 0.625000 0.500000
vt 0.625000 0.500000
vt 0.625000 0.500000
vt 0.625000 0.500000
vt 0.375000 0.250000
vt 0.500000 0.250000
vt 0.375000 0.375000
vt 0.500000 0.500000
vt 0.375000 0.500000
vt 0.625000 0.250000
vt 0.625000 0.375000
vt 0.625000 0.500000
vt 0.375000 0.250000
vt 0.500000 0.250000
vt 0.375000 0.375000
vt 0.500000 0.500000
vt 0.375000 0.500000
vt 0.625000 0.250000
vt 0.625000 0.375000
vt 0.625000 0.500000
vt 0.375000 0.250000
vt 0.500000 0.250000
vt 0.375000 0.375000
vt 0.500000 0.500000
vt 0.375000 0.500000
vt 0.625000 0.250000
vt 0.625000 0.375000
vt 0.625000 0.500000
vt 0.375000 0.250000
vt 0.500000 0.250000
vt 0.375000 0.375000
vt 0.500000 0.500000
vt 0.375000 0.500000
vt 0.625000 0.250000
vt 0.625000 0.375000
vt 0.625000 0.500000
vt 0.375000 0.250000
vt 0.500000 0.250000
vt 0.375000 0.375000
vt 0.500000 0.500000
vt 0.375000 0.500000
vt 0.625000 0.250000
vt 0.625000 0.375000
vt 0.625000 0.500000
vt 0.375000 0.250000
vt 0.500000 0.250000
vt 0.375000 0.375000
vt 0.500000 0.500000
vt 0.375000 0.500000
vt 0.625000 0.250000
vt 0.625000 0.375000
vt 0.625000 0.500000
vn -0.000004 0.000000 1.000000
vn -0.000000 0.000000 1.000000
vn -0.000000 0.000000 1.000000
vn -0.000004 0.000000 1.000000
vn 0.000000 1.000000 0.000000
vn 0.000000 1.000000 0.000000
vn 0.000000 1.000000 0.000000
vn 0.000000 1.000000 0.000000
vn -0.000004 0.000000 -1.000000
vn -0.000000 0.000000 -1.000000
vn -0.000000 0.000000 -1.000000
vn -0.000004 0.000000 -1.000000
vn 0.000000 -1.000000 0.000000
vn 0.000000 -1.000000 0.000000
vn 0.000000 -1.000000 0.000000
vn 0.000000 -1.000000 0.000000
vn 1.000000 0.000000 0.000001
vn 1.000000 0.000000 0.000000
vn 1.000000 0.000000 0.000000
vn 1.000000 0.000000 0.000001
vn -1.000000 0.000000 0.000000
vn -1.000000 0.000000 0.000001
vn -1.000000 0.000000 0.000001
vn -1.000000 0.000000 0.000000
vn 0.000000 1.000000 0.000000
vn 0.000000 1.000000 0.000000
vn -1.000000 0.000000 -0.000001
vn -1.000000 0.000000 -0.000001
vn 0.000000 -1.000000 -0.000000
vn 0.000000 -1.000000 -0.000000
vn 1.000000 0.000000 -0.000001
vn 1.000000 0.000000 -0.000001
vn 0.000000 1.000000 0.000000
vn 0.000000 1.000000 0.000000
vn 0.000000 1.000000 -0.000000
vn 0.000004 0.000000 -1.000000
vn 0.000004 0.000000 -1.000000
vn 0.000000 -1.000000 0.000000
vn 0.000000 -1.000000 0.000000
vn 0.000000 -1.000000 0.000000
vn 0.000004 0.000000 1.000000
vn 0.000004 0.000000 1.000000
vn 0.000000 -1.000000 0.000000
vn 0.000000 -1.000000 0.000000
vn 0.000000 -1.000000 0.000000
vn 0.000000 -1.000000 0.000000
vn -0.000000 -1.000000 0.000000
vn -0.000000 -1.000000 0.000000
vn -0.000000 -1.000000 0.000000
vn -0.000000 -1.000000 0.000000
vn 0.000000 -1.000000 0.000000
vn 0.000000 -1.000000 0.000000
vn 0.000000 -1.000000 0.000000
vn 0.000000 -1.000000 0.000000
vn -0.000000 -1.000000 -0.000000
vn -0.000000 -1.000000 -0.000000
vn -0.000000 -1.000000 -0.000000
vn -0.000000 -1.000000 -0.000000
vn -0.000000 -1.000000 0.000000
vn -0.000000 -1.000000 0.000000
vn -0.000000 -1.000000 0.000000
vn -0.000000 -1.000000 0.000000
vn -0.000000 -1.000000 -0.000000
vn -0.000000 -1.000000 -0.000000
vn -0.000000 -1.000000 -0.000000
vn -0.000000 -1.000000 -0.000000
vn -0.000000 -1.000000 0.000000
vn -0.000000 -1.000000 0.000000
vn -0.000000 -1.000000 0.000000
vn -0.000000 -1.000000 0.000000
vn -0.000000 -1.000000 0.000000
vn -0.000000 -1.000000 0.000000
vn -0.000000 -1.000000 0.000000
vn -0.000000 -1.000000 0.000000
vn 0.000000 -1.000000 -0.000000
vn 0.000000 -1.000000 -0.000000
vn -0.396186 -0.918170 0.000000
vn -0.396186 -0.918170 -0.000001
vn -0.778057 -0.628194 0.000000
vn -0.778057 -0.628194 -0.000001
vn -0.000000 1.000000 -0.000000
vn -0.000000 1.000000 0.000001
vn 0.548104 0.836410 0.000001
vn 0.548105 0.836410 0.000000
vn 0.734794 0.678290 0.000001
vn 0.734794 0.678290 0.000000
vn -0.000001 0.000000 1.000000
vn -0.000001 0.000000 1.000000
vn -0.000000 0.000000 1.000000
vn -0.000000 0.000000 1.000000
vn 0.000000 0.000000 1.000000
vn 0.000000 0.000000 1.000000
vn 0.000000 -1.000000 0.000000
vn -0.396186 -0.918170 0.000001
vn -0.778057 -0.628194 0.000001
vn -0.000001 0.000000 -1.000000
vn -0.000001 0.000000 -1.000000
vn -0.000000 0.000000 -1.000000
vn -0.000000 0.000000 -1.000000
vn 0.000000 0.000000 -1.000000
vn 0.000000 0.000000 -1.000000
vn -0.000000 1.000000 -0.000001
vn 0.548104 0.836410 -0.000001
vn 0.734794 0.678290 -0.000001
vn -0.000000 -1.000000 0.000000
vn -0.000000 -1.000000 -0.000000
vn 0.396186 -0.918170 -0.000001
vn 0.396187 -0.918170 0.000000
vn 0.760894 -0.648876 -0.000001
vn 0.760894 -0.648876 0.000000
vn 0.000001 0.000000 1.000000
vn 0.000001 0.000000 1.000000
vn 0.000000 0.000000 1.000000
vn 0.000000 0.000000 1.000000
vn 0.000000 0.000000 1.000000
vn 0.000000 0.000000 1.000000
vn 0.000000 1.000000 0.000000
vn 0.000000 1.000000 0.000000
vn -0.548105 0.836410 0.000000
vn -0.548104 0.836410 0.000001
vn -0.728183 0.685383 0.000000
vn -0.728183 0.685383 0.000001
vn -0.000000 -1.000000 0.000000
vn 0.396186 -0.918170 0.000001
vn 0.760894 -0.648876 0.000001
vn 0.000000 1.000000 -0.000000
vn -0.548104 0.836410 -0.000001
vn -0.728183 0.685383 -0.000001
vn 0.000001 0.000000 -1.000000
vn 0.000001 0.000000 -1.000000
vn 0.000000 0.000000 -1.000000
vn 0.000000 0.000000 -1.000000
vn 0.000000 0.000000 -1.000000
vn 0.000000 0.000000 -1.000000
vn 0.000001 -1.000000 -0.000000
vn 0.000000 -1.000000 -0.000000
vn 0.000000 -0.965914 -0.258863
vn 0.000001 -0.965914 -0.258862
vn 0.000000 -0.780071 -0.625691
vn 0.000001 -0.780071 -0.625691
vn 0.000000 1.000000 0.000000
vn -0.000001 1.000000 0.000000
vn -0.000002 0.927345 0.374208
vn 0.000000 0.927345 0.374209
vn -0.000002 0.829670 0.558254
vn 0.000000 0.829670 0.558254
vn -1.000000 0.000000 -0.000000
vn -1.000000 0.000000 -0.000000
vn -1.000000 0.000000 -0.000000
vn -1.000000 0.000000 -0.000000
vn -1.000000 0.000000 -0.000000
vn -1.000000 0.000000 -0.000000
vn -0.000001 -1.000000 0.000000
vn -0.000001 -0.965914 -0.258862
vn -0.000001 -0.780071 -0.625691
vn 1.000000 0.000000 -0.000000
vn 1.000000 0.000000 -0.000000
vn 1.000000 0.000000 -0.000000
vn 1.000000 0.000000 -0.000000
vn 1.000000 0.000000 -0.000000
vn 1.000000 0.000000 -0.000000
vn 0.000001 1.000000 0.000000
vn 0.000002 0.927345 0.374208
vn 0.000002 0.829670 0.558254
vn 0.000000 -1.000000 0.000000
vn 0.000001 -1.000000 0.000000
vn 0.000001 -0.965914 0.258862
vn 0.000000 -0.965914 0.258863
vn 0.000002 -0.780071 0.625691
vn 0.000000 -0.780071 0.625691
vn -1.000000 0.000000 0.000000
vn -1.000000 0.000000 0.000000
vn -1.000000 0.000000 0.000000
vn -1.000000 0.000000 0.000000
vn -1.000000 0.000000 0.000000
vn -1.000000 0.000000 0.000000
vn -0.000001 1.000000 0.000000
vn -0.000000 1.000000 -0.000000
vn 0.000000 0.927345 -0.374209
vn -0.000002 0.927345 -0.374208
vn 0.000000 0.829670 -0.558254
vn -0.000002 0.829670 -0.558254
vn -0.000001 -1.000000 0.000000
vn -0.000001 -0.965914 0.258862
vn -0.000002 -0.780071 0.625691
vn 0.000001 1.000000 -0.000000
vn 0.000002 0.927345 -0.374208
vn 0.000002 0.829670 -0.558254
vn 1.000000 0.000000 0.000000
vn 1.000000 0.000000 0.000000
vn 1.000000 0.000000 0.000000
vn 1.000000 0.000000 0.000000
vn 1.000000 0.000000 0.000000
vn 1.000000 0.000000 0.000000
vn -0.000004 0.137239 0.990538
vn -0.000004 0.137239 0.990538
vn -0.000004 0.137239 0.990538
vn -0.000004 0.137239 0.990538
vn -0.996473 0.083912 0.000002
vn -0.996473 0.083912 0.000002
vn -0.996473 0.083912 0.000002
vn -0.996473 0.083912 0.000002
vn -0.000004 0.137239 -0.990538
vn -0.000004 0.137239 -0.990538
vn -0.000004 0.137239 -0.990538
vn -0.000004 0.137239 -0.990538
vn -0.996473 0.083912 -0.000002
vn -0.996473 0.083912 -0.000002
vn -0.996473 0.083912 -0.000002
vn -0.996473 0.083912 -0.000002
vn 0.000004 0.137239 0.990538
vn 0.000004 0.137239 0.990538
vn 0.000004 0.137239 0.990538
vn 0.000004 0.137239 0.990538
vn 0.996473 0.083912 0.000001
vn 0.996473 0.083912 0.000001
vn 0.996473 0.083912 0.000001
vn 0.996473 0.083912 0.000001
vn 0.996473 0.083912 -0.000001
vn 0.996473 0.083912 -0.000001
vn 0.996473 0.083912 -0.000001
vn 0.996473 0.083912 -0.000001
vn 0.000004 0.137239 -0.990538
vn 0.000004 0.137239 -0.990538
vn 0.000004 0.137239 -0.990538
vn 0.000004 0.137239 -0.990538
vn -0.000002 -0.811751 0.584003
vn -0.000002 -0.811751 0.584003
vn -0.000002 -0.811751 0.584003
vn -0.000002 -0.811751 0.584003
vn -0.763893 -0.645343 0.000001
vn -0.763893 -0.645343 0.000001
vn -0.763893 -0.645343 0.000001
vn -0.763893 -0.645343 0.000001
vn -0.000002 -0.811751 -0.584003
vn -0.000002 -0.811751 -0.584003
vn -0.000002 -0.811751 -0.584003
vn -0.000002 -0.811751 -0.584003
vn -0.763893 -0.645343 -0.000001
vn -0.763893 -0.645343 -0.000001
vn -0.763893 -0.645343 -0.000001
vn -0.763893 -0.645343 -0.000001
vn 0.000002 -0.811751 0.584003
vn 0.000002 -0.811751 0.584003
vn 0.000002 -0.811751 0.584003
vn 0.000002 -0.811751 0.584003
vn 0.763893 -0.645343 0.000001
vn 0.763893 -0.645343 0.000001
vn 0.763893 -0.645343 0.000001
vn 0.763893 -0.645343 0.000001
vn 0.763893 -0.645343 -0.000001
vn 0.763893 -0.645343 -0.000001
vn 0.763893 -0.645343 -0.000001
vn 0.763893 -0.645343 -0.000001
vn 0.000002 -0.811751 -0.584003
vn 0.000002 -0.811751 -0.584003
vn 0.000002 -0.811751 -0.584003
vn 0.000002 -0.811751 -0.584003
vn -0.024069 -0.996298 0.082523
vn -0.024069 -0.996298 0.082523
vn -0.024069 -0.996298 0.082523
vn -0.024069 -0.996298 0.082523
vn -0.121059 -0.992444 0.019980
vn -0.121059 -0.992444 0.019980
vn -0.121059 -0.992444 0.019980
vn -0.121059 -0.992444 0.019980
vn -0.024069 -0.996298 -0.082523
vn -0.024069 -0.996298 -0.082523
vn -0.024069 -0.996298 -0.082523
vn -0.024069 -0.996298 -0.082523
vn -0.121059 -0.992444 -0.019980
vn -0.121059 -0.992444 -0.019980
vn -0.121059 -0.992444 -0.019980
vn -0.121059 -0.992444 -0.019980
vn 0.024069 -0.996298 0.082524
vn 0.024069 -0.996298 0.082524
vn 0.024069 -0.996298 0.082524
vn 0.024069 -0.996298 0.082524
vn 0.121059 -0.992444 0.019980
vn 0.121059 -0.992444 0.019980
vn 0.121059 -0.992444 0.019980
vn 0.121059 -0.992444 0.019980
vn 0.121059 -0.992444 -0.019980
vn 0.121059 -0.992444 -0.019980
vn 0.121059 -0.992444 -0.019980
vn 0.121059 -0.992444 -0.019980
vn 0.024069 -0.996298 -0.082524
vn 0.024069 -0.996298 -0.082524
vn 0.024069 -0.996298 -0.082524
vn 0.024069 -0.996298 -0.082524
vn -0.371776 0.000000 0.928322
vn -0.371776 0.000000 0.928322
vn -0.371776 0.000000 0.928322
vn -0.371776 0.000000 0.928322
vn -0.975270 0.000000 0.221016
vn -0.975270 0.000000 0.221016
vn -0.975270 0.000000 0.221016
vn -0.975270 0.000000 0.221016
vn -0.371776 0.000000 -0.928322
vn -0.371776 0.000000 -0.928322
vn -0.371776 0.000000 -0.928322
vn -0.371776 0.000000 -0.928322
vn -0.975270 0.000000 -0.221016
vn -0.975270 0.000000 -0.221016
vn -0.975270 0.000000 -0.221016
vn -0.975270 0.000000 -0.221016
vn 0.371776 0.000000 0.928322
vn 0.371776 0.000000 0.928322
vn 0.371776 0.000000 0.928322
vn 0.371776 0.000000 0.928322
vn 0.975270 0.000000 0.221016
vn 0.975270 0.000000 0.221016
vn 0.975270 0.000000 0.221016
vn 0.975270 0.000000 0.221016
vn 0.975270 0.000000 -0.221016
vn 0.975270 0.000000 -0.221016
vn 0.975270 0.000000 -0.221016
vn 0.975270 0.000000 -0.221016
vn 0.371776 0.000000 -0.928322
vn 0.371776 0.000000 -0.928322
vn 0.371776 0.000000 -0.928322
vn 0.371776 0.000000 -0.928322
vn -0.000000 1.000000 -0.000000
vn -0.000000 1.000000 -0.000000
vn -0.000000 1.000000 -0.000000
vn -0.000000 1.000000 -0.000000
vn 0.000000 1.000000 0.000000
vn 0.000000 1.000000 0.000000
vn 0.000000 1.000000 0.000000
vn 0.000000 1.000000 0.000000
vn -0.000000 1.000000 0.000000
vn -0.000000 1.000000 0.000000
vn -0.000000 1.000000 0.000000
vn -0.000000 1.000000 0.000000
vn 0.000000 1.000000 -0.000000
vn 0.000000 1.000000 -0.000000
vn 0.000000 1.000000 -0.000000
vn 0.000000 1.000000 -0.000000
vn 0.000000 1.000000 -0.000000
vn 0.000000 1.000000 -0.000000
vn 0.000000 1.000000 -0.000000
vn 0.000000 1.000000 -0.000000
vn -0.000000 1.000000 0.000000
vn -0.000000 1.000000 0.000000
vn -0.000000 1.000000 0.000000
vn -0.000000 1.000000 0.000000
vn -0.000000 1.000000 -0.000000
vn -0.000000 1.000000 -0.000000
vn -0.000000 1.000000 -0.000000
vn -0.000000 1.000000 -0.000000
vn 0.000000 1.000000 -0.000000
vn 0.000000 1.000000 -0.000000
vn 0.000000 1.000000 -0.000000
vn 0.000000 1.000000 -0.000000
vn 0.338408 0.000000 -0.941000
vn 0.338408 0.000000 -0.941000
vn 0.338408 0.000000 -0.941000
vn 0.338408 0.000000 -0.941000
vn 0.975270 0.000000 -0.221016
vn 0.975270 0.000000 -0.221016
vn 0.975270 0.000000 -0.221016
vn 0.975270 0.000000 -0.221016
vn 0.338408 0.000000 0.941000
vn 0.338408 0.000000 0.941000
vn 0.338408 0.000000 0.941000
vn 0.338408 0.000000 0.941000
vn 0.975270 0.000000 0.221016
vn 0.975270 0.000000 0.221016
vn 0.975270 0.000000 0.221016
vn 0.975270 0.000000 0.221016
vn -0.338408 0.000000 -0.941000
vn -0.338408 0.000000 -0.941000
vn -0.338408 0.000000 -0.941000
vn -0.338408 0.000000 -0.941000
vn -0.975270 0.000000 -0.221016
vn -0.975270 0.000000 -0.221016
vn -0.975270 0.000000 -0.221016
vn -0.975270 0.000000 -0.221016
vn -0.975270 0.000000 0.221016
vn -0.975270 0.000000 0.221016
vn -0.975270 0.000000 0.221016
vn -0.975270 0.000000 0.221016
vn -0.338408 0.000000 0.941000
vn -0.338408 0.000000 0.941000
vn -0.338408 0.000000 0.941000
vn -0.338408 0.000000 0.941000
s 1
g pCube1
usemtl initialShadingGroup
f 1/1/1 17/28/2 13/23/3 3/3/4
s 2
f 114/126/5 115/127/6 116/24/7 117/128/8
s 3
f 5/5/9 14/25/10 15/26/11 7/7/12
s 4
f 11/20/13 16/27/14 17/29/15 1/9/16
s 5
f 2/2/17 12/22/18 9/16/19 4/4/20
s 6
f 11/19/21 1/1/22 3/3/23 10/17/24
s 2
f 117/128/8 116/24/7 118/129/25 119/130/26
s 6
f 7/13/27 11/19/21 10/17/24 5/14/28
s 4
f 7/7/29 15/26/30 16/27/14 11/20/13
s 5
f 9/16/19 12/22/18 8/11/31 6/12/32
s 2
f 115/127/6 120/131/33 121/132/34 116/24/7
f 118/129/25 116/24/7 121/132/34 122/133/35
s 3
f 15/26/11 14/25/10 6/6/36 8/8/37
s 4
f 16/27/14 15/26/30 8/8/38 12/21/39
f 17/29/15 16/27/14 12/21/39 2/10/40
s 1
f 13/23/3 17/28/2 2/2/41 4/4/42
s off
f 51/63/43 53/65/44 55/67/45 57/69/46
f 41/51/47 39/53/48 43/55/49 45/57/50
f 65/75/51 63/77/52 67/79/53 69/81/54
f 47/59/55 41/51/56 45/57/57 49/61/58
f 53/65/59 59/71/60 61/73/61 55/67/62
f 27/39/63 29/41/64 31/43/65 33/45/66
f 29/41/67 35/47/68 37/49/69 31/43/70
f 71/83/71 65/75/72 69/81/73 73/85/74
s 7
f 4/4/75 9/15/76 28/40/77 26/38/78
f 26/38/78 28/40/77 29/41/79 27/39/80
s 8
f 24/36/81 23/35/82 32/44/83 30/42/84
f 30/42/84 32/44/83 33/45/85 31/43/86
s 9
f 23/35/87 4/4/88 26/38/89 32/44/90
f 32/44/90 26/38/89 27/39/91 33/45/92
s 7
f 9/15/76 6/6/93 34/46/94 28/40/77
f 28/40/77 34/46/94 35/47/95 29/41/79
s 10
f 6/6/96 25/37/97 36/48/98 34/46/99
f 34/46/99 36/48/98 37/49/100 35/47/101
s 8
f 25/37/102 24/36/81 30/42/84 36/48/103
f 36/48/103 30/42/84 31/43/86 37/49/104
s 11
f 10/18/105 3/3/106 38/52/107 40/50/108
f 40/50/108 38/52/107 39/53/109 41/51/110
s 12
f 3/3/111 18/30/112 42/54/113 38/52/114
f 38/52/114 42/54/113 43/55/115 39/53/116
s 13
f 18/30/117 20/32/118 44/56/119 42/54/120
f 42/54/120 44/56/119 45/57/121 43/55/122
s 11
f 5/5/123 10/18/105 40/50/108 46/58/124
f 46/58/124 40/50/108 41/51/110 47/59/125
s 13
f 20/32/118 22/34/126 48/60/127 44/56/119
f 44/56/119 48/60/127 49/61/128 45/57/121
s 14
f 22/34/129 5/5/130 46/58/131 48/60/132
f 48/60/132 46/58/131 47/59/133 49/61/134
s 15
f 3/3/135 13/23/136 52/64/137 50/62/138
f 50/62/138 52/64/137 53/65/139 51/63/140
s 16
f 19/31/141 18/30/142 56/68/143 54/66/144
f 54/66/144 56/68/143 57/69/145 55/67/146
s 17
f 18/30/147 3/3/148 50/62/149 56/68/150
f 56/68/150 50/62/149 51/63/151 57/69/152
s 15
f 13/23/136 4/4/153 58/70/154 52/64/137
f 52/64/137 58/70/154 59/71/155 53/65/139
s 18
f 4/4/156 23/35/157 60/72/158 58/70/159
f 58/70/159 60/72/158 61/73/160 59/71/161
s 16
f 23/35/162 19/31/141 54/66/144 60/72/163
f 60/72/163 54/66/144 55/67/146 61/73/164
s 19
f 14/25/165 5/5/166 62/76/167 64/74/168
f 64/74/168 62/76/167 63/77/169 65/75/170
s 20
f 5/5/171 22/34/172 66/78/173 62/76/174
f 62/76/174 66/78/173 67/79/175 63/77/176
s 21
f 22/34/177 21/33/178 68/80/179 66/78/180
f 66/78/180 68/80/179 69/81/181 67/79/182
s 19
f 6/6/183 14/25/165 64/74/168 70/82/184
f 70/82/184 64/74/168 65/75/170 71/83/185
s 21
f 21/33/178 25/37/186 72/84/187 68/80/179
f 68/80/179 72/84/187 73/85/188 69/81/181
s 22
f 25/37/189 6/6/190 70/82/191 72/84/192
f 72/84/192 70/82/191 71/83/193 73/85/194
s off
f 18/30/195 19/31/196 75/87/197 74/86/198
f 20/32/199 18/30/200 74/86/201 76/88/202
f 21/33/203 22/34/204 78/90/205 77/89/206
f 22/34/207 20/32/208 76/88/209 78/90/210
f 19/31/211 23/35/212 79/91/213 75/87/214
f 23/35/215 24/36/216 80/92/217 79/91/218
f 24/36/219 25/37/220 81/93/221 80/92/222
f 25/37/223 21/33/224 77/89/225 81/93/226
f 74/86/227 75/87/228 83/95/229 82/94/230
f 76/88/231 74/86/232 82/94/233 84/96/234
f 77/89/235 78/90/236 86/98/237 85/97/238
f 78/90/239 76/88/240 84/96/241 86/98/242
f 75/87/243 79/91/244 87/99/245 83/95/246
f 79/91/247 80/92/248 88/100/249 87/99/250
f 80/92/251 81/93/252 89/101/253 88/100/254
f 81/93/255 77/89/256 85/97/257 89/101/258
f 82/94/259 83/95/260 91/103/261 90/102/262
f 84/96/263 82/94/264 90/102/265 92/104/266
f 85/97/267 86/98/268 94/106/269 93/105/270
f 86/98/271 84/96/272 92/104/273 94/106/274
f 83/95/275 87/99/276 95/107/277 91/103/278
f 87/99/279 88/100/280 96/108/281 95/107/282
f 88/100/283 89/101/284 97/109/285 96/108/286
f 89/101/287 85/97/288 93/105/289 97/109/290
f 90/102/291 91/103/292 99/111/293 98/110/294
f 92/104/295 90/102/296 98/110/297 100/112/298
f 93/105/299 94/106/300 102/114/301 101/113/302
f 94/106/303 92/104/304 100/112/305 102/114/306
f 91/103/307 95/107/308 103/115/309 99/111/310
f 95/107/311 96/108/312 104/116/313 103/115/314
f 96/108/315 97/109/316 105/117/317 104/116/318
f 97/109/319 93/105/320 101/113/321 105/117/322
f 98/110/323 99/111/324 107/119/325 106/118/326
f 100/112/327 98/110/328 106/118/329 108/120/330
f 101/113/331 102/114/332 110/122/333 109/121/334
f 102/114/335 100/112/336 108/120/337 110/122/338
f 99/111/339 103/115/340 111/123/341 107/119/342
f 103/115/343 104/116/344 112/124/345 111/123/346
f 104/116/347 105/117/348 113/125/349 112/124/350
f 105/117/351 101/113/352 109/121/353 113/125/354
f 106/118/355 107/119/356 115/127/357 114/126/358
f 108/120/359 106/118/360 114/126/361 117/128/362
f 109/121/363 110/122/364 119/130/365 118/129/366
f 110/122/367 108/120/368 117/128/369 119/130/370
f 107/119/371 111/123/372 120/131/373 115/127/374
f 111/123/375 112/124/376 121/132/377 120/131/378
f 112/124/379 113/125/380 122/133/381 121/132/382
f 113/125/383 109/121/384 118/129/385 122/133/386
