# This file uses centimeters as units for non-parametric coordinates.

mtllib TowerSet.mtl
g default
v 56.023525 7.389247 -44.085186
v 44.354794 3.117279 -89.063766
v 56.023537 16.943359 -44.085205
v 44.354794 35.245949 -89.063766
v 56.226421 16.943359 -42.986012
v 44.557697 35.245949 -87.964523
v 56.226425 7.389251 -42.985996
v 44.557697 3.117279 -87.964523
v 43.275822 3.117279 -87.727905
v 43.072918 3.117279 -88.827148
v 43.275822 35.245949 -87.727905
v 43.072918 35.245949 -88.827148
v 37.991947 3.117279 -123.534592
v 37.991947 12.671394 -123.534592
v 36.710068 3.117279 -123.297981
v 36.710068 12.671394 -123.297981
vt 0.375000 0.000000
vt 0.625000 0.000000
vt 0.375000 0.250000
vt 0.625000 0.250000
vt 0.375000 0.500000
vt 0.625000 0.500000
vt 0.375000 0.750000
vt 0.625000 0.750000
vt 0.375000 1.000000
vt 0.625000 1.000000
vt 0.875000 0.000000
vt 0.875000 0.250000
vt 0.125000 0.000000
vt 0.125000 0.250000
vt 0.625000 0.000000
vt 0.875000 0.000000
vt 0.875000 0.250000
vt 0.625000 0.250000
vt 0.625000 0.250000
vt 0.625000 0.000000
vt 0.625000 0.000000
vt 0.625000 0.250000
vn 0.967957 -0.000000 -0.251116
vn 0.967957 -0.000000 -0.251116
vn 0.967957 -0.000000 -0.251116
vn 0.967957 -0.000000 -0.251116
vn 0.967685 0.177992 -0.178617
vn 0.967685 0.177992 -0.178617
vn 0.967685 0.177992 -0.178617
vn 0.967685 0.177992 -0.178617
vn -0.967957 0.000000 0.251116
vn -0.967957 0.000000 0.251116
vn -0.967957 0.000000 0.251116
vn -0.967957 0.000000 0.251116
vn 0.777295 -0.612557 -0.143477
vn 0.777295 -0.612557 -0.143477
vn 0.777295 -0.612557 -0.143477
vn 0.777295 -0.612557 -0.143477
vn -0.983387 0.000000 0.181520
vn -0.983388 0.000000 0.181518
vn -0.983388 0.000000 0.181518
vn -0.983387 0.000000 0.181520
vn 0.983388 -0.000000 -0.181516
vn 0.983388 -0.000000 -0.181516
vn 0.983388 -0.000000 -0.181516
vn 0.983388 -0.000000 -0.181516
vn 0.000000 -1.000000 0.000000
vn 0.000000 -1.000000 0.000000
vn 0.000000 -1.000000 0.000000
vn 0.000000 -1.000000 0.000000
vn 0.181523 0.000000 0.983387
vn 0.181523 0.000000 0.983387
vn 0.181523 0.000000 0.983387
vn 0.181523 0.000000 0.983387
vn 0.000000 1.000000 0.000000
vn -0.096107 0.848338 -0.520659
vn -0.096107 0.848338 -0.520659
vn 0.000000 1.000000 0.000000
vn -0.181506 0.000000 -0.983390
vn -0.181506 0.000000 -0.983390
vn -0.181506 0.000000 -0.983390
vn -0.181506 0.000000 -0.983390
vn 0.983387 0.000000 -0.181520
vn 0.983387 0.000000 -0.181520
vn 0.983387 0.000000 -0.181520
vn 0.983387 0.000000 -0.181520
vn 0.000000 -1.000000 0.000000
vn 0.000000 -1.000000 0.000000
vn -0.983387 0.000000 0.181520
vn -0.983387 0.000000 0.181520
vn -0.098283 0.840737 -0.532448
vn -0.098283 0.840737 -0.532448
s off
g pCube9
usemtl initialShadingGroup
f 1/1/1 2/2/2 4/4/3 3/3/4
f 3/3/5 4/4/6 6/6/7 5/5/8
f 5/5/9 6/6/10 8/8/11 7/7/12
f 7/7/13 8/8/14 2/10/15 1/9/16
s 1
f 10/15/17 9/16/18 11/17/19 12/18/20
s off
f 7/13/21 1/1/22 3/3/23 5/14/24
s 2
f 2/2/25 8/11/26 9/16/27 10/15/28
s off
f 8/11/29 6/12/30 11/17/31 9/16/32
s 3
f 6/12/33 4/4/34 12/18/35 11/17/36
s off
f 14/19/37 13/20/38 15/21/39 16/22/40
f 4/4/41 2/2/42 13/20/43 14/19/44
s 2
f 2/2/25 10/15/28 15/21/45 13/20/46
s 1
f 10/15/17 12/18/20 16/22/47 15/21/48
s 3
f 12/18/35 4/4/34 14/19/49 16/22/50
g default
v 47.919621 0.377184 -61.744213
v 21.533886 0.377184 -78.440910
v 47.919621 7.681139 -61.744213
v 21.533886 24.938990 -78.440910
v 48.376564 7.681139 -62.466324
v 21.990831 24.938990 -79.163025
v 48.376564 0.377184 -62.466324
v 21.990831 0.377184 -79.163025
v 21.148739 0.377184 -79.695892
v 20.691793 0.377184 -78.973785
v 21.148739 24.938990 -79.695892
v 20.691793 24.938990 -78.973785
v -8.887451 -0.086469 -30.366186
v -8.887451 7.681137 -30.366186
v -9.729542 -0.086469 -30.899054
v -9.729542 7.681137 -30.899054
vt 0.375000 0.000000
vt 0.625000 0.000000
vt 0.375000 0.250000
vt 0.625000 0.250000
vt 0.375000 0.500000
vt 0.625000 0.500000
vt 0.375000 0.750000
vt 0.625000 0.750000
vt 0.375000 1.000000
vt 0.625000 1.000000
vt 0.875000 0.000000
vt 0.875000 0.250000
vt 0.125000 0.000000
vt 0.125000 0.250000
vt 0.625000 0.000000
vt 0.875000 0.000000
vt 0.875000 0.250000
vt 0.625000 0.250000
vt 0.625000 0.250000
vt 0.625000 0.000000
vt 0.625000 0.000000
vt 0.625000 0.250000
vn -0.534726 0.000000 0.845026
vn -0.534726 0.000000 0.845026
vn -0.534726 0.000000 0.845026
vn -0.534726 0.000000 0.845026
vn 0.408767 0.875217 0.258661
vn 0.408767 0.875217 0.258661
vn 0.408767 0.875217 0.258661
vn 0.408767 0.875217 0.258661
vn 0.534726 0.000000 -0.845026
vn 0.534726 0.000000 -0.845026
vn 0.534726 0.000000 -0.845026
vn 0.534726 0.000000 -0.845026
vn 0.000000 -1.000000 0.000000
vn 0.000000 -1.000000 0.000000
vn 0.000000 -1.000000 0.000000
vn 0.000000 -1.000000 0.000000
vn -0.845026 0.000000 -0.534726
vn -0.845026 0.000000 -0.534726
vn -0.845024 0.000000 -0.534728
vn -0.845024 0.000000 -0.534728
vn 0.845027 0.000000 0.534724
vn 0.845027 0.000000 0.534724
vn 0.845027 0.000000 0.534724
vn 0.845027 0.000000 0.534724
vn 0.004293 -0.999968 -0.006785
vn 0.004293 -0.999968 -0.006785
vn 0.000000 -1.000000 0.000000
vn 0.000000 -1.000000 0.000000
vn 0.534723 0.000000 -0.845028
vn 0.534723 0.000000 -0.845028
vn 0.534723 0.000000 -0.845028
vn 0.534723 0.000000 -0.845028
vn 0.000000 1.000000 0.000001
vn 0.000000 1.000000 0.000001
vn -0.153116 0.958127 0.241968
vn -0.153116 0.958127 0.241968
vn -0.534726 0.000000 0.845026
vn -0.534726 0.000000 0.845026
vn -0.534726 0.000000 0.845026
vn -0.534726 0.000000 0.845026
vn 0.845026 0.000000 0.534726
vn 0.845026 0.000000 0.534726
vn 0.845026 0.000000 0.534726
vn 0.845026 0.000000 0.534726
vn 0.004358 -0.999967 -0.006887
vn 0.004358 -0.999967 -0.006887
vn -0.845026 0.000000 -0.534726
vn -0.845026 0.000000 -0.534726
vn -0.155224 0.956940 0.245298
vn -0.155224 0.956940 0.245298
s off
g pCube8
usemtl initialShadingGroup
f 17/23/51 19/25/52 20/26/53 18/24/54
f 19/25/55 21/27/56 22/28/57 20/26/58
f 21/27/59 23/29/60 24/30/61 22/28/62
f 23/29/63 17/31/64 18/32/65 24/30/66
s 1
f 26/37/67 28/40/68 27/39/69 25/38/70
s off
f 23/35/71 21/36/72 19/25/73 17/23/74
s 2
f 18/24/75 26/37/76 25/38/77 24/33/78
s off
f 24/33/79 25/38/80 27/39/81 22/34/82
s 3
f 22/34/83 27/39/84 28/40/85 20/26/86
s off
f 30/41/87 32/44/88 31/43/89 29/42/90
f 20/26/91 30/41/92 29/42/93 18/24/94
s 2
f 18/24/75 29/42/95 31/43/96 26/37/76
s 1
f 26/37/67 31/43/97 32/44/98 28/40/68
s 3
f 28/40/85 32/44/99 30/41/100 20/26/86
g default
v 8.286980 0.101001 -46.966896
v 39.511757 0.101001 -46.966896
v 8.286980 7.404955 -46.966896
v 39.511757 24.662807 -46.966896
v 8.286980 7.404955 -47.821438
v 39.511757 24.662807 -47.821438
v 8.286980 0.101001 -47.821438
v 39.511757 0.101001 -47.821438
v 40.508286 0.101001 -47.821438
v 40.508286 0.101001 -46.966896
v 40.508286 24.662807 -47.821438
v 40.508286 24.662807 -46.966896
v 39.511757 0.101001 -12.254063
v 39.511757 7.404954 -12.254063
v 40.508286 0.101001 -12.254063
v 40.508286 7.404954 -12.254063
vt 0.375000 0.000000
vt 0.625000 0.000000
vt 0.375000 0.250000
vt 0.625000 0.250000
vt 0.375000 0.500000
vt 0.625000 0.500000
vt 0.375000 0.750000
vt 0.625000 0.750000
vt 0.375000 1.000000
vt 0.625000 1.000000
vt 0.875000 0.000000
vt 0.875000 0.250000
vt 0.125000 0.000000
vt 0.125000 0.250000
vt 0.625000 0.000000
vt 0.875000 0.000000
vt 0.875000 0.250000
vt 0.625000 0.250000
vt 0.625000 0.250000
vt 0.625000 0.000000
vt 0.625000 0.000000
vt 0.625000 0.250000
vn 0.000000 0.000000 1.000000
vn 0.000000 0.000000 1.000000
vn 0.000000 0.000000 1.000000
vn 0.000000 0.000000 1.000000
vn -0.483730 0.875217 0.000000
vn -0.483730 0.875217 0.000000
vn -0.483730 0.875217 0.000000
vn -0.483730 0.875217 0.000000
vn 0.000000 0.000000 -1.000000
vn 0.000000 0.000000 -1.000000
vn 0.000000 0.000000 -1.000000
vn 0.000000 0.000000 -1.000000
vn 0.000000 -1.000000 0.000000
vn 0.000000 -1.000000 0.000000
vn 0.000000 -1.000000 0.000000
vn 0.000000 -1.000000 0.000000
vn 1.000000 0.000000 0.000000
vn 1.000000 0.000000 0.000000
vn 1.000000 0.000000 0.000000
vn 1.000000 0.000000 0.000000
vn -1.000000 0.000000 0.000000
vn -1.000000 0.000000 0.000000
vn -1.000000 0.000000 0.000000
vn -1.000000 0.000000 0.000000
vn 0.000000 -1.000000 0.000000
vn 0.000000 -1.000000 0.000000
vn 0.000000 -1.000000 0.000000
vn 0.000000 -1.000000 0.000000
vn 0.000000 0.000000 -1.000000
vn 0.000000 0.000000 -1.000000
vn 0.000000 0.000000 -1.000000
vn 0.000000 0.000000 -1.000000
vn 0.000000 1.000000 0.000000
vn 0.000000 0.899684 0.436541
vn 0.000000 0.899684 0.436541
vn 0.000000 1.000000 0.000000
vn 0.000000 0.000000 1.000000
vn 0.000000 0.000000 1.000000
vn 0.000000 0.000000 1.000000
vn 0.000000 0.000000 1.000000
vn -1.000000 0.000000 0.000000
vn -1.000000 0.000000 0.000000
vn -1.000000 0.000000 0.000000
vn -1.000000 0.000000 0.000000
vn 0.000000 -1.000000 0.000000
vn 0.000000 -1.000000 0.000000
vn 1.000000 0.000000 0.000000
vn 1.000000 0.000000 0.000000
vn 0.000000 0.895442 0.445179
vn 0.000000 0.895442 0.445179
s off
g pCube7
usemtl initialShadingGroup
f 33/45/101 34/46/102 36/48/103 35/47/104
f 35/47/105 36/48/106 38/50/107 37/49/108
f 37/49/109 38/50/110 40/52/111 39/51/112
f 39/51/113 40/52/114 34/54/115 33/53/116
s 1
f 42/59/117 41/60/118 43/61/119 44/62/120
s off
f 39/57/121 33/45/122 35/47/123 37/58/124
s 2
f 34/46/125 40/55/126 41/60/127 42/59/128
s off
f 40/55/129 38/56/130 43/61/131 41/60/132
s 3
f 38/56/133 36/48/134 44/62/135 43/61/136
s off
f 46/63/137 45/64/138 47/65/139 48/66/140
f 36/48/141 34/46/142 45/64/143 46/63/144
s 2
f 34/46/125 42/59/128 47/65/145 45/64/146
s 1
f 42/59/117 44/62/120 48/66/147 47/65/148
s 3
f 44/62/135 36/48/134 46/63/149 48/66/150
g default
v 0.957152 0.005500 3.521178
v 1.858830 0.005500 3.136858
v 0.972928 0.792740 3.176471
v 1.611291 0.792740 2.902874
v -0.000897 0.792740 0.903507
v 0.636266 0.792740 0.630760
v -0.011872 0.005500 1.265166
v 0.889806 0.005500 0.880846
vt 0.375000 0.000000
vt 0.625000 0.000000
vt 0.375000 0.250000
vt 0.625000 0.250000
vt 0.375000 0.500000
vt 0.625000 0.500000
vt 0.375000 0.750000
vt 0.625000 0.750000
vt 0.375000 1.000000
vt 0.625000 1.000000
vt 0.875000 0.000000
vt 0.875000 0.250000
vt 0.125000 0.000000
vt 0.125000 0.250000
vn 0.365285 0.368039 0.855052
vn 0.365285 0.368039 0.855052
vn 0.365285 0.368039 0.855052
vn 0.365285 0.368039 0.855052
vn 0.000000 1.000000 0.000000
vn 0.000000 1.000000 0.000000
vn 0.000000 1.000000 0.000000
vn 0.000000 1.000000 0.000000
vn -0.362333 -0.385525 -0.848578
vn -0.362333 -0.385525 -0.848578
vn -0.362333 -0.385525 -0.848578
vn -0.362333 -0.385525 -0.848578
vn 0.000000 -1.000000 0.000000
vn 0.000000 -1.000000 0.000000
vn 0.000000 -1.000000 0.000000
vn 0.000000 -1.000000 0.000000
vn 0.905724 0.168696 -0.388852
vn 0.905724 0.168696 -0.388852
vn 0.905724 0.168696 -0.388852
vn 0.905724 0.168696 -0.388852
vn -0.902443 0.189013 0.387132
vn -0.902443 0.189013 0.387132
vn -0.902443 0.189013 0.387132
vn -0.902443 0.189013 0.387132
s off
g pCube1
usemtl initialShadingGroup
f 49/67/151 50/68/152 52/70/153 51/69/154
f 51/69/155 52/70/156 54/72/157 53/71/158
f 53/71/159 54/72/160 56/74/161 55/73/162
f 55/73/163 56/74/164 50/76/165 49/75/166
f 50/68/167 56/77/168 54/78/169 52/70/170
f 55/79/171 49/67/172 51/69/173 53/80/174
g default
v 0.896454 0.000000 -0.896454
v 0.000000 0.000000 -1.267777
v -0.896454 0.000000 -0.896454
v -1.267777 0.000000 0.000000
v -0.896454 0.000000 0.896454
v 0.000000 0.000000 1.267777
v 0.896454 0.000000 0.896454
v 1.267777 0.000000 0.000000
v 0.639330 7.921840 -0.639330
v 0.000000 7.921840 -0.904148
v -0.639330 7.921840 -0.639330
v -0.904148 7.921840 0.000000
v -0.639330 7.921840 0.639330
v 0.000000 7.921840 0.904149
v 0.639330 7.921840 0.639330
v 0.904149 7.921840 0.000000
vt 0.375000 0.312500
vt 0.406250 0.312500
vt 0.437500 0.312500
vt 0.468750 0.312500
vt 0.500000 0.312500
vt 0.531250 0.312500
vt 0.562500 0.312500
vt 0.593750 0.312500
vt 0.625000 0.312500
vt 0.375000 0.688440
vt 0.406250 0.688440
vt 0.437500 0.688440
vt 0.468750 0.688440
vt 0.500000 0.688440
vt 0.531250 0.688440
vt 0.562500 0.688440
vt 0.593750 0.688440
vt 0.625000 0.688440
vn 0.382340 0.042370 -0.923050
vn 0.382340 0.042370 -0.923050
vn 0.382339 0.042370 -0.923050
vn 0.382339 0.042370 -0.923050
vn -0.382339 0.042370 -0.923050
vn -0.382339 0.042370 -0.923050
vn -0.382339 0.042370 -0.923050
vn -0.382339 0.042370 -0.923050
vn -0.923050 0.042370 -0.382339
vn -0.923050 0.042370 -0.382339
vn -0.923050 0.042370 -0.382339
vn -0.923050 0.042370 -0.382339
vn -0.923050 0.042370 0.382340
vn -0.923050 0.042370 0.382340
vn -0.923050 0.042370 0.382339
vn -0.923050 0.042370 0.382339
vn -0.382340 0.042370 0.923050
vn -0.382340 0.042370 0.923050
vn -0.382340 0.042370 0.923050
vn -0.382340 0.042370 0.923050
vn 0.382339 0.042370 0.923050
vn 0.382339 0.042370 0.923050
vn 0.382339 0.042370 0.923050
vn 0.382339 0.042370 0.923050
vn 0.923050 0.042370 0.382340
vn 0.923050 0.042370 0.382340
vn 0.923050 0.042370 0.382339
vn 0.923050 0.042370 0.382339
vn 0.923050 0.042370 -0.382340
vn 0.923050 0.042370 -0.382340
vn 0.923050 0.042370 -0.382340
vn 0.923050 0.042370 -0.382340
s off
g pCylinder1
usemtl initialShadingGroup
f 57/81/175 58/82/176 66/91/177 65/90/178
f 58/82/179 59/83/180 67/92/181 66/91/182
f 59/83/183 60/84/184 68/93/185 67/92/186
f 60/84/187 61/85/188 69/94/189 68/93/190
f 61/85/191 62/86/192 70/95/193 69/94/194
f 62/86/195 63/87/196 71/96/197 70/95/198
f 63/87/199 64/88/200 72/97/201 71/96/202
f 64/88/203 57/89/204 65/98/205 72/97/206
g default
v -3.521178 0.005500 0.957153
v -3.136858 0.005500 1.858830
v -3.176471 0.792740 0.972928
v -2.902874 0.792740 1.611291
v -0.903507 0.792740 -0.000897
v -0.630761 0.792740 0.636266
v -1.265166 0.005500 -0.011872
v -0.880846 0.005500 0.889806
vt 0.375000 0.000000
vt 0.625000 0.000000
vt 0.375000 0.250000
vt 0.625000 0.250000
vt 0.375000 0.500000
vt 0.625000 0.500000
vt 0.375000 0.750000
vt 0.625000 0.750000
vt 0.375000 1.000000
vt 0.625000 1.000000
vt 0.875000 0.000000
vt 0.875000 0.250000
vt 0.125000 0.000000
vt 0.125000 0.250000
vn -0.855052 0.368039 0.365285
vn -0.855052 0.368039 0.365285
vn -0.855052 0.368039 0.365285
vn -0.855052 0.368039 0.365285
vn 0.000000 1.000000 -0.000000
vn 0.000000 1.000000 -0.000000
vn 0.000000 1.000000 -0.000000
vn 0.000000 1.000000 -0.000000
vn 0.848578 -0.385525 -0.362333
vn 0.848578 -0.385525 -0.362333
vn 0.848578 -0.385525 -0.362333
vn 0.848578 -0.385525 -0.362333
vn 0.000000 -1.000000 0.000000
vn 0.000000 -1.000000 0.000000
vn 0.000000 -1.000000 0.000000
vn 0.000000 -1.000000 0.000000
vn 0.388852 0.168696 0.905724
vn 0.388852 0.168696 0.905724
vn 0.388852 0.168696 0.905724
vn 0.388852 0.168696 0.905724
vn -0.387132 0.189013 -0.902443
vn -0.387132 0.189013 -0.902443
vn -0.387132 0.189013 -0.902443
vn -0.387132 0.189013 -0.902443
s off
g pCube2
usemtl initialShadingGroup
f 73/99/207 74/100/208 76/102/209 75/101/210
f 75/101/211 76/102/212 78/104/213 77/103/214
f 77/103/215 78/104/216 80/106/217 79/105/218
f 79/105/219 80/106/220 74/108/221 73/107/222
f 74/100/223 80/109/224 78/110/225 76/102/226
f 79/111/227 73/99/228 75/101/229 77/112/230
g default
v -0.957152 0.005500 -3.521178
v -1.858830 0.005500 -3.136858
v -0.972928 0.792740 -3.176471
v -1.611291 0.792740 -2.902874
v 0.000897 0.792740 -0.903507
v -0.636266 0.792740 -0.630760
v 0.011872 0.005500 -1.265166
v -0.889806 0.005500 -0.880846
vt 0.375000 0.000000
vt 0.625000 0.000000
vt 0.375000 0.250000
vt 0.625000 0.250000
vt 0.375000 0.500000
vt 0.625000 0.500000
vt 0.375000 0.750000
vt 0.625000 0.750000
vt 0.375000 1.000000
vt 0.625000 1.000000
vt 0.875000 0.000000
vt 0.875000 0.250000
vt 0.125000 0.000000
vt 0.125000 0.250000
vn -0.365285 0.368039 -0.855052
vn -0.365285 0.368039 -0.855052
vn -0.365285 0.368039 -0.855052
vn -0.365285 0.368039 -0.855052
vn 0.000000 1.000000 0.000000
vn 0.000000 1.000000 0.000000
vn 0.000000 1.000000 0.000000
vn 0.000000 1.000000 0.000000
vn 0.362333 -0.385525 0.848578
vn 0.362333 -0.385525 0.848578
vn 0.362333 -0.385525 0.848578
vn 0.362333 -0.385525 0.848578
vn 0.000000 -1.000000 -0.000000
vn 0.000000 -1.000000 -0.000000
vn 0.000000 -1.000000 -0.000000
vn 0.000000 -1.000000 -0.000000
vn -0.905724 0.168696 0.388852
vn -0.905724 0.168696 0.388852
vn -0.905724 0.168696 0.388852
vn -0.905724 0.168696 0.388852
vn 0.902443 0.189013 -0.387132
vn 0.902443 0.189013 -0.387132
vn 0.902443 0.189013 -0.387132
vn 0.902443 0.189013 -0.387132
s off
g pCube3
usemtl initialShadingGroup
f 81/113/231 82/114/232 84/116/233 83/115/234
f 83/115/235 84/116/236 86/118/237 85/117/238
f 85/117/239 86/118/240 88/120/241 87/119/242
f 87/119/243 88/120/244 82/122/245 81/121/246
f 82/114/247 88/123/248 86/124/249 84/116/250
f 87/125/251 81/113/252 83/115/253 85/126/254
g default
v 3.521178 0.005500 -0.957152
v 3.136858 0.005500 -1.858830
v 3.176471 0.792740 -0.972929
v 2.902874 0.792740 -1.611291
v 0.903507 0.792740 0.000897
v 0.630760 0.792740 -0.636266
v 1.265166 0.005500 0.011872
v 0.880846 0.005500 -0.889806
vt 0.375000 0.000000
vt 0.625000 0.000000
vt 0.375000 0.250000
vt 0.625000 0.250000
vt 0.375000 0.500000
vt 0.625000 0.500000
vt 0.375000 0.750000
vt 0.625000 0.750000
vt 0.375000 1.000000
vt 0.625000 1.000000
vt 0.875000 0.000000
vt 0.875000 0.250000
vt 0.125000 0.000000
vt 0.125000 0.250000
vn 0.855052 0.368039 -0.365285
vn 0.855052 0.368039 -0.365285
vn 0.855052 0.368039 -0.365285
vn 0.855052 0.368039 -0.365285
vn 0.000000 1.000000 0.000000
vn 0.000000 1.000000 0.000000
vn 0.000000 1.000000 0.000000
vn 0.000000 1.000000 0.000000
vn -0.848578 -0.385525 0.362333
vn -0.848578 -0.385525 0.362333
vn -0.848578 -0.385525 0.362333
vn -0.848578 -0.385525 0.362333
vn 0.000000 -1.000000 0.000000
vn 0.000000 -1.000000 0.000000
vn 0.000000 -1.000000 0.000000
vn 0.000000 -1.000000 0.000000
vn -0.388852 0.168696 -0.905724
vn -0.388852 0.168696 -0.905724
vn -0.388852 0.168696 -0.905724
vn -0.388852 0.168696 -0.905724
vn 0.387132 0.189013 0.902443
vn 0.387132 0.189013 0.902443
vn 0.387132 0.189013 0.902443
vn 0.387132 0.189013 0.902443
s off
g pCube4
usemtl initialShadingGroup
f 89/127/255 90/128/256 92/130/257 91/129/258
f 91/129/259 92/130/260 94/132/261 93/131/262
f 93/131/263 94/132/264 96/134/265 95/133/266
f 95/133/267 96/134/268 90/136/269 89/135/270
f 90/128/271 96/137/272 94/138/273 92/130/274
f 95/139/275 89/127/276 91/129/277 93/140/278
g default
v 23.251158 -0.018356 -28.790432
v 27.436304 -0.018356 -28.790432
v 22.399374 13.721571 -31.180490
v 25.046246 13.721571 -27.938648
v 25.641216 13.721571 -33.827362
v 28.288088 13.721571 -30.585520
v 23.251158 -0.018356 -32.975578
v 27.436304 -0.018356 -32.975578
vt 0.375000 0.000000
vt 0.625000 0.000000
vt 0.375000 0.250000
vt 0.625000 0.250000
vt 0.375000 0.500000
vt 0.625000 0.500000
vt 0.375000 0.750000
vt 0.625000 0.750000
vt 0.375000 1.000000
vt 0.625000 1.000000
vt 0.875000 0.000000
vt 0.875000 0.250000
vt 0.125000 0.000000
vt 0.125000 0.250000
vn -0.428694 -0.000000 0.903450
vn -0.428694 -0.000000 0.903450
vn -0.428694 -0.000000 0.903450
vn -0.428694 -0.000000 0.903450
vn 0.000000 1.000000 0.000000
vn 0.000000 1.000000 0.000000
vn 0.000000 1.000000 0.000000
vn 0.000000 1.000000 0.000000
vn 0.428694 -0.000000 -0.903450
vn 0.428694 -0.000000 -0.903450
vn 0.428694 -0.000000 -0.903450
vn 0.428694 -0.000000 -0.903450
vn 0.000000 -1.000000 0.000000
vn 0.000000 -1.000000 0.000000
vn 0.000000 -1.000000 0.000000
vn 0.000000 -1.000000 0.000000
vn 0.903450 0.000000 0.428694
vn 0.903450 0.000000 0.428694
vn 0.903450 0.000000 0.428694
vn 0.903450 0.000000 0.428694
vn -0.903450 -0.000000 -0.428694
vn -0.903450 -0.000000 -0.428694
vn -0.903450 -0.000000 -0.428694
vn -0.903450 -0.000000 -0.428694
s off
g pCube5
usemtl initialShadingGroup
f 97/141/279 98/142/280 100/144/281 99/143/282
f 99/143/283 100/144/284 102/146/285 101/145/286
f 101/145/287 102/146/288 104/148/289 103/147/290
f 103/147/291 104/148/292 98/150/293 97/149/294
f 98/142/295 104/151/296 102/152/297 100/144/298
f 103/153/299 97/141/300 99/143/301 101/154/302
g default
v 12.690950 -0.018356 -36.638191
v 16.876099 -0.018356 -36.638191
v 11.839169 13.721571 -39.028248
v 14.486039 13.721571 -35.786407
v 15.081009 13.721571 -41.675121
v 17.727880 13.721571 -38.433281
v 12.690950 -0.018356 -40.823338
v 16.876099 -0.018356 -40.823338
vt 0.375000 0.000000
vt 0.625000 0.000000
vt 0.375000 0.250000
vt 0.625000 0.250000
vt 0.375000 0.500000
vt 0.625000 0.500000
vt 0.375000 0.750000
vt 0.625000 0.750000
vt 0.375000 1.000000
vt 0.625000 1.000000
vt 0.875000 0.000000
vt 0.875000 0.250000
vt 0.125000 0.000000
vt 0.125000 0.250000
vn -0.428694 -0.000000 0.903450
vn -0.428694 -0.000000 0.903450
vn -0.428694 -0.000000 0.903450
vn -0.428693 -0.000000 0.903450
vn 0.000000 1.000000 0.000000
vn 0.000000 1.000000 0.000000
vn 0.000000 1.000000 0.000000
vn 0.000000 1.000000 0.000000
vn 0.428693 -0.000000 -0.903450
vn 0.428693 -0.000000 -0.903450
vn 0.428693 -0.000000 -0.903450
vn 0.428693 -0.000000 -0.903450
vn 0.000000 -1.000000 0.000000
vn 0.000000 -1.000000 0.000000
vn 0.000000 -1.000000 0.000000
vn 0.000000 -1.000000 0.000000
vn 0.903450 -0.000000 0.428693
vn 0.903450 -0.000000 0.428693
vn 0.903450 -0.000000 0.428693
vn 0.903450 -0.000000 0.428693
vn -0.903450 0.000000 -0.428693
vn -0.903450 0.000000 -0.428693
vn -0.903450 0.000000 -0.428693
vn -0.903450 0.000000 -0.428693
s off
g pCube6
usemtl initialShadingGroup
f 105/155/303 106/156/304 108/158/305 107/157/306
f 107/157/307 108/158/308 110/160/309 109/159/310
f 109/159/311 110/160/312 112/162/313 111/161/314
f 111/161/315 112/162/316 106/164/317 105/163/318
f 106/156/319 112/165/320 110/166/321 108/158/322
f 111/167/323 105/155/324 107/157/325 109/168/326
