# This file uses centimeters as units for non-parametric coordinates.

mtllib Wrench.mtl
g default
v -1.000000 -0.250000 6.000000
v 1.000000 -0.250000 6.000000
v -1.000000 0.250000 6.000000
v 1.000000 0.250000 6.000000
v -0.250000 0.250000 -6.000000
v 0.250000 0.250000 -6.000000
v -0.250000 -0.250000 -6.000000
v 0.250000 -0.250000 -6.000000
v -0.500000 -0.250000 7.500000
v 0.500000 -0.250000 7.500000
v 0.500000 0.250000 7.500000
v -0.500000 0.250000 7.500000
v 2.000000 -0.250000 7.000000
v 2.000000 0.250000 7.000000
v 1.000000 0.250000 8.000000
v 1.000000 -0.250000 8.000000
v -2.000000 -0.250000 7.000000
v -2.000000 0.250000 7.000000
v -1.000000 -0.250000 8.000000
v -1.000000 0.250000 8.000000
v 2.000000 -0.250000 8.500000
v 2.000000 0.250000 8.500000
v 1.000000 0.250000 8.500000
v 1.000000 -0.250000 8.500000
v -2.000000 -0.250000 8.500000
v -2.000000 0.250000 8.500000
v -1.000000 -0.250000 8.500000
v -1.000000 0.250000 8.500000
v 1.750000 -0.250000 9.250000
v 1.750000 0.250000 9.250000
v 1.000000 0.250000 10.000000
v 1.000000 -0.250000 10.000000
v -1.750000 -0.250000 9.250000
v -1.750000 0.250000 9.250000
v -1.000000 -0.250000 10.000000
v -1.000000 0.250000 10.000000
v -0.500000 0.250000 0.000000
v -0.500000 -0.250000 0.000000
v 0.500000 -0.250000 0.000000
v 0.500000 0.250000 0.000000
v -0.500000 0.250000 3.000000
v -0.500000 -0.250000 3.000000
v 0.500000 -0.250000 3.000000
v 0.500000 0.250000 3.000000
v -0.750000 0.250000 -3.000000
v -0.750000 -0.250000 -3.000000
v 0.750000 -0.250000 -3.000000
v 0.750000 0.250000 -3.000000
v -0.875000 0.250000 -4.500000
v -0.875000 -0.250000 -4.500000
v 0.875000 -0.250000 -4.500000
v 0.875000 0.250000 -4.500000
v -0.687500 0.250000 -5.250000
v -0.687500 -0.250000 -5.250000
v 0.687500 -0.250000 -5.250000
v 0.687500 0.250000 -5.250000
vt 0.375000 0.000000
vt 0.625000 0.000000
vt 0.375000 0.250000
vt 0.625000 0.250000
vt 0.375000 0.500000
vt 0.625000 0.500000
vt 0.375000 0.750000
vt 0.625000 0.750000
vt 0.375000 1.000000
vt 0.625000 1.000000
vt 0.875000 0.000000
vt 0.875000 0.250000
vt 0.125000 0.000000
vt 0.125000 0.250000
vt 0.375000 0.000000
vt 0.625000 0.000000
vt 0.625000 0.250000
vt 0.375000 0.250000
vt 0.625000 0.000000
vt 0.625000 0.250000
vt 0.625000 0.250000
vt 0.625000 0.000000
vt 0.375000 0.250000
vt 0.375000 0.000000
vt 0.375000 0.000000
vt 0.375000 0.250000
vt 0.625000 0.000000
vt 0.625000 0.250000
vt 0.625000 0.250000
vt 0.625000 0.000000
vt 0.375000 0.250000
vt 0.375000 0.000000
vt 0.375000 0.000000
vt 0.375000 0.250000
vt 0.625000 0.000000
vt 0.625000 0.250000
vt 0.625000 0.250000
vt 0.625000 0.000000
vt 0.375000 0.250000
vt 0.375000 0.000000
vt 0.375000 0.000000
vt 0.375000 0.250000
vt 0.250000 0.250000
vt 0.375000 0.375000
vt 0.250000 0.000000
vt 0.375000 0.875000
vt 0.625000 0.875000
vt 0.750000 0.000000
vt 0.625000 0.375000
vt 0.750000 0.250000
vt 0.312500 0.250000
vt 0.375000 0.312500
vt 0.312500 0.000000
vt 0.375000 0.937500
vt 0.625000 0.937500
vt 0.687500 0.000000
vt 0.625000 0.312500
vt 0.687500 0.250000
vt 0.187500 0.250000
vt 0.375000 0.437500
vt 0.187500 0.000000
vt 0.375000 0.812500
vt 0.625000 0.812500
vt 0.812500 0.000000
vt 0.625000 0.437500
vt 0.812500 0.250000
vt 0.156250 0.250000
vt 0.375000 0.468750
vt 0.156250 0.000000
vt 0.375000 0.781250
vt 0.625000 0.781250
vt 0.843750 0.000000
vt 0.625000 0.468750
vt 0.843750 0.250000
vt 0.140625 0.250000
vt 0.375000 0.484375
vt 0.140625 0.000000
vt 0.375000 0.765625
vt 0.625000 0.765625
vt 0.859375 0.000000
vt 0.625000 0.484375
vt 0.859375 0.250000
vn 0.316228 0.000000 0.948683
vn -0.316228 0.000000 0.948683
vn -0.316228 0.000000 0.948683
vn 0.316228 0.000000 0.948683
vn 0.000000 1.000000 0.000000
vn 0.000000 1.000000 0.000000
vn 0.000000 1.000000 0.000000
vn 0.000000 1.000000 0.000000
vn 0.000000 0.000000 -1.000000
vn 0.000000 0.000000 -1.000000
vn 0.000000 0.000000 -1.000000
vn 0.000000 0.000000 -1.000000
vn 0.000000 -1.000000 0.000000
vn 0.000000 -1.000000 0.000000
vn 0.000000 -1.000000 0.000000
vn 0.000000 -1.000000 0.000000
vn 0.986394 0.000000 -0.164399
vn 0.996546 0.000000 -0.083045
vn 0.996546 0.000000 -0.083045
vn 0.986394 0.000000 -0.164399
vn -0.996546 0.000000 -0.083045
vn -0.986394 0.000000 -0.164399
vn -0.986394 0.000000 -0.164399
vn -0.996546 0.000000 -0.083045
vn 0.000000 -1.000000 0.000000
vn 0.000000 -1.000000 0.000000
vn 0.707107 0.000000 0.707107
vn 0.707107 0.000000 0.707107
vn 0.707107 0.000000 0.707107
vn 0.707107 0.000000 0.707107
vn 0.000000 1.000000 0.000000
vn 0.000000 1.000000 0.000000
vn -0.707107 0.000000 0.707107
vn -0.707107 0.000000 0.707107
vn -0.707107 0.000000 0.707107
vn -0.707107 0.000000 0.707107
vn 0.707107 0.000000 -0.707107
vn 0.707107 0.000000 -0.707107
vn 0.928477 0.000000 -0.371391
vn 0.928477 0.000000 -0.371391
vn 0.000000 1.000000 0.000000
vn 0.000000 1.000000 0.000000
vn -0.894427 0.000000 0.447214
vn -0.894427 0.000000 0.447214
vn 0.000000 -1.000000 0.000000
vn 0.000000 -1.000000 0.000000
vn -0.707107 0.000000 -0.707107
vn -0.707107 0.000000 -0.707107
vn -0.928477 0.000000 -0.371391
vn -0.928477 0.000000 -0.371391
vn 0.000000 -1.000000 0.000000
vn 0.000000 -1.000000 0.000000
vn 0.894427 0.000000 0.447214
vn 0.894427 0.000000 0.447214
vn 0.000000 1.000000 0.000000
vn 0.000000 1.000000 0.000000
vn 0.993884 0.000000 0.110432
vn 0.993884 0.000000 0.110432
vn 0.000000 1.000000 0.000000
vn 0.000000 1.000000 0.000000
vn -1.000000 0.000000 0.000000
vn -1.000000 0.000000 0.000000
vn 0.000000 -1.000000 0.000000
vn 0.000000 -1.000000 0.000000
vn -0.993884 0.000000 0.110432
vn -0.993884 0.000000 0.110432
vn 0.000000 -1.000000 0.000000
vn 0.000000 -1.000000 0.000000
vn 1.000000 0.000000 0.000000
vn 1.000000 0.000000 0.000000
vn 0.000000 1.000000 0.000000
vn 0.000000 1.000000 0.000000
vn 0.948683 0.000000 0.316228
vn 0.948683 0.000000 0.316228
vn 0.000000 1.000000 0.000000
vn 0.000000 1.000000 0.000000
vn -1.000000 0.000000 0.000000
vn -1.000000 0.000000 0.000000
vn 0.000000 -1.000000 0.000000
vn 0.000000 -1.000000 0.000000
vn -0.948683 0.000000 0.316228
vn -0.948683 0.000000 0.316228
vn 0.000000 -1.000000 0.000000
vn 0.000000 -1.000000 0.000000
vn 1.000000 0.000000 0.000000
vn 1.000000 0.000000 0.000000
vn 0.000000 1.000000 0.000000
vn 0.000000 1.000000 0.000000
vn -0.996546 0.000000 0.083045
vn -0.999133 0.000000 0.041631
vn -0.999133 0.000000 0.041631
vn -0.996546 0.000000 0.083045
vn 0.000000 -1.000000 0.000000
vn 0.000000 -1.000000 0.000000
vn 0.000000 -1.000000 0.000000
vn 0.000000 -1.000000 0.000000
vn 0.999133 0.000000 0.041631
vn 0.999133 0.000000 0.041631
vn 0.996546 0.000000 0.083045
vn 0.996546 0.000000 0.083045
vn 0.000000 1.000000 0.000000
vn 0.000000 1.000000 0.000000
vn 0.000000 1.000000 0.000000
vn 0.000000 1.000000 0.000000
vn -0.999615 0.000000 -0.027767
vn -0.999615 0.000000 -0.027767
vn 0.000000 -1.000000 0.000000
vn 0.000000 -1.000000 0.000000
vn 0.999615 0.000000 -0.027767
vn 0.999615 0.000000 -0.027767
vn 0.000000 1.000000 0.000000
vn 0.000000 1.000000 0.000000
vn -0.923077 0.000000 -0.384615
vn -0.923077 0.000000 -0.384615
vn 0.000000 -1.000000 0.000000
vn 0.000000 -1.000000 0.000000
vn 0.923077 0.000000 -0.384615
vn 0.923077 0.000000 -0.384615
vn 0.000000 1.000000 0.000000
vn 0.000000 1.000000 0.000000
vn -0.863779 0.000000 -0.503871
vn -0.863779 0.000000 -0.503871
vn 0.000000 -1.000000 0.000000
vn 0.000000 -1.000000 0.000000
vn 0.863779 0.000000 -0.503871
vn 0.863779 0.000000 -0.503871
vn 0.000000 1.000000 0.000000
vn 0.000000 1.000000 0.000000
s 1
g WrenchMesh
usemtl initialShadingGroup
f 9/15/1 10/16/2 11/17/3 12/18/4
s 2
f 3/3/5 4/4/6 44/57/7 41/52/8
s off
f 5/5/9 6/6/10 8/8/11 7/7/12
s 3
f 42/54/13 43/55/14 2/10/15 1/9/16
s 4
f 2/2/17 43/56/18 44/58/19 4/4/20
s 5
f 42/53/21 1/1/22 3/3/23 41/51/24
s 3
f 1/1/16 2/2/15 10/16/25 9/15/26
s off
f 29/35/27 30/36/28 31/37/29 32/38/30
s 2
f 4/4/6 3/3/5 12/18/31 11/17/32
s off
f 34/39/33 33/40/34 35/41/35 36/42/36
s 6
f 2/2/37 4/4/38 14/20/39 13/19/40
s 2
f 4/4/6 11/17/32 15/21/41 14/20/42
s 1
f 11/17/3 10/16/2 16/22/43 15/21/44
s 3
f 10/16/25 2/2/15 13/19/45 16/22/46
s 7
f 3/3/47 1/1/48 17/24/49 18/23/50
s 3
f 1/1/16 9/15/26 19/25/51 17/24/52
s 1
f 9/15/1 12/18/4 20/26/53 19/25/54
s 2
f 12/18/31 3/3/5 18/23/55 20/26/56
s 6
f 13/19/40 14/20/39 22/28/57 21/27/58
s 2
f 14/20/42 15/21/41 23/29/59 22/28/60
s 1
f 15/21/44 16/22/43 24/30/61 23/29/62
s 3
f 16/22/46 13/19/45 21/27/63 24/30/64
s 7
f 18/23/50 17/24/49 25/32/65 26/31/66
s 3
f 17/24/52 19/25/51 27/33/67 25/32/68
s 1
f 19/25/54 20/26/53 28/34/69 27/33/70
s 2
f 20/26/56 18/23/55 26/31/71 28/34/72
s 6
f 21/27/58 22/28/57 30/36/73 29/35/74
s 2
f 22/28/60 23/29/59 31/37/75 30/36/76
s 1
f 23/29/62 24/30/61 32/38/77 31/37/78
s 3
f 24/30/64 21/27/63 29/35/79 32/38/80
s 7
f 26/31/66 25/32/65 33/40/81 34/39/82
s 3
f 25/32/68 27/33/67 35/41/83 33/40/84
s 1
f 27/33/70 28/34/69 36/42/85 35/41/86
s 2
f 28/34/72 26/31/71 34/39/87 36/42/88
s 5
f 46/61/89 38/45/90 37/43/91 45/59/92
s 3
f 46/62/93 47/63/94 39/47/95 38/46/96
s 4
f 40/50/97 39/48/98 47/64/99 48/66/100
s 2
f 37/44/101 40/49/102 48/65/103 45/60/104
s 5
f 38/45/90 42/53/21 41/51/24 37/43/91
s 3
f 38/46/96 39/47/95 43/55/14 42/54/13
s 4
f 44/58/19 43/56/18 39/48/98 40/50/97
s 2
f 41/52/8 44/57/7 40/49/102 37/44/101
s 5
f 50/69/105 46/61/89 45/59/92 49/67/106
s 3
f 50/70/107 51/71/108 47/63/94 46/62/93
s 4
f 48/66/100 47/64/99 51/72/109 52/74/110
s 2
f 45/60/104 48/65/103 52/73/111 49/68/112
s 5
f 54/77/113 50/69/105 49/67/106 53/75/114
s 3
f 54/78/115 55/79/116 51/71/108 50/70/107
s 4
f 52/74/110 51/72/109 55/80/117 56/82/118
s 2
f 49/68/112 52/73/111 56/81/119 53/76/120
s 5
f 7/13/121 54/77/113 53/75/114 5/14/122
s 3
f 7/7/123 8/8/124 55/79/116 54/78/115
s 4
f 56/82/118 55/80/117 8/11/125 6/12/126
s 2
f 53/76/120 56/81/119 6/6/127 5/5/128
